M48
;GenerationSoftware,Autodesk,EAGLE,9.6.2*%
;CreationDate,2020-09-27T02:44:21Z*%
FMAT,2
ICI,OFF
METRIC,TZ,000.000
T2C1.016
T1C1.300
%
G90
M71
T1
X5080Y36910
X5080Y15240
X5080Y10240
X5080Y41910
T2
X22860Y50800
X20320Y50800
X15240Y50800
X12700Y50800
X10160Y50800
X7620Y50800
X5080Y50800
X2540Y50800
X2540Y2540
X5080Y2540
X7620Y2540
X10160Y2540
X12700Y2540
X15240Y2540
X17780Y2540
X20320Y2540
X24130Y2540
X26670Y2540
X29210Y2540
X31750Y2540
X34290Y2540
X36830Y2540
X39370Y2540
X41910Y2540
X44450Y2540
X46990Y2540
X35560Y50800
X38100Y50800
X27940Y33147
X25400Y32893
X22860Y33147
X20320Y32893
X17780Y33147
X15240Y32893
X15240Y22733
X17780Y22987
X20320Y22733
X22860Y22987
X25400Y22733
X27940Y22987
X39370Y21590
X33020Y50800
X39370Y24130
X36830Y24130
X39370Y26670
X36830Y26670
X39370Y29210
X36830Y29210
X36830Y21590
X36830Y31750
X39370Y34290
X36830Y34290
X30480Y50800
X27940Y50800
X25400Y50800
X39370Y31750
M30