G04 EAGLE Gerber RS-274X export*
G75*
%MOMM*%
%FSLAX34Y34*%
%LPD*%
%INBottom Copper*%
%IPPOS*%
%AMOC8*
5,1,8,0,0,1.08239X$1,22.5*%
G01*
%ADD10C,1.879600*%
%ADD11P,1.649562X8X112.500000*%
%ADD12R,2.032000X2.032000*%
%ADD13C,2.032000*%
%ADD14C,0.152400*%


D10*
X330200Y508000D03*
X304800Y508000D03*
X279400Y508000D03*
X254000Y508000D03*
X228600Y508000D03*
X203200Y508000D03*
X152400Y508000D03*
X127000Y508000D03*
X101600Y508000D03*
X76200Y508000D03*
X50800Y508000D03*
X25400Y508000D03*
X25400Y25400D03*
X50800Y25400D03*
X76200Y25400D03*
X101600Y25400D03*
X127000Y25400D03*
X152400Y25400D03*
X177800Y25400D03*
X203200Y25400D03*
X241300Y25400D03*
X266700Y25400D03*
X292100Y25400D03*
X317500Y25400D03*
X342900Y25400D03*
X368300Y25400D03*
X393700Y25400D03*
X419100Y25400D03*
X444500Y25400D03*
X469900Y25400D03*
X355600Y508000D03*
X381000Y508000D03*
X279400Y331470D03*
X254000Y328930D03*
X228600Y331470D03*
X203200Y328930D03*
X177800Y331470D03*
X152400Y328930D03*
X152400Y227330D03*
X177800Y229870D03*
X203200Y227330D03*
X228600Y229870D03*
X254000Y227330D03*
X279400Y229870D03*
D11*
X393700Y215900D03*
X368300Y215900D03*
X393700Y241300D03*
X368300Y241300D03*
X393700Y266700D03*
X368300Y266700D03*
X393700Y292100D03*
X368300Y292100D03*
X393700Y317500D03*
X368300Y317500D03*
X393700Y342900D03*
X368300Y342900D03*
D12*
X50800Y152400D03*
D13*
X50800Y102400D03*
D12*
X50800Y419100D03*
D13*
X50800Y369100D03*
D14*
X204216Y228600D02*
X210312Y228600D01*
X272796Y291084D01*
X367284Y291084D01*
X204216Y228600D02*
X203200Y227330D01*
X367284Y291084D02*
X368300Y292100D01*
X382524Y291084D02*
X393192Y291084D01*
X382524Y291084D02*
X368808Y277368D01*
X275844Y277368D01*
X228600Y230124D01*
X393192Y291084D02*
X393700Y292100D01*
X228600Y230124D02*
X228600Y229870D01*
X394716Y335280D02*
X394716Y342900D01*
X394716Y335280D02*
X406908Y323088D01*
X406908Y291084D01*
X393192Y277368D01*
X390144Y277368D01*
X379476Y266700D01*
X379476Y263652D01*
X367284Y251460D01*
X342900Y251460D01*
X181356Y89916D01*
X44196Y89916D01*
X38100Y96012D01*
X38100Y140208D01*
X50292Y152400D01*
X393700Y342900D02*
X394716Y342900D01*
X50800Y152400D02*
X50292Y152400D01*
X368300Y342900D02*
X379476Y342900D01*
X394716Y327660D01*
X397764Y327660D01*
X403860Y321564D01*
X403860Y312420D01*
X394716Y303276D01*
X262128Y303276D01*
X190500Y231648D01*
X190500Y225552D01*
X68580Y103632D01*
X51816Y103632D01*
X50800Y102400D01*
X228600Y331470D02*
X228600Y431292D01*
X304800Y507492D01*
X304800Y508000D01*
X382524Y316992D02*
X393192Y316992D01*
X382524Y316992D02*
X371856Y306324D01*
X173736Y306324D01*
X152400Y327660D01*
X393192Y316992D02*
X393700Y317500D01*
X152400Y327660D02*
X152400Y328930D01*
X192024Y316992D02*
X367284Y316992D01*
X192024Y316992D02*
X178308Y330708D01*
X367284Y316992D02*
X368300Y317500D01*
X178308Y330708D02*
X177800Y331470D01*
M02*
