G04 EAGLE Gerber RS-274X export*
G75*
%MOMM*%
%FSLAX34Y34*%
%LPD*%
%INSilkscreen Top*%
%IPPOS*%
%AMOC8*
5,1,8,0,0,1.08239X$1,22.5*%
G01*
%ADD10C,0.152400*%
%ADD11C,0.127000*%
%ADD12C,0.203200*%


D10*
X253520Y472449D02*
X253520Y473888D01*
X258318Y473888D01*
X258318Y471009D01*
X258316Y470923D01*
X258310Y470837D01*
X258301Y470751D01*
X258287Y470666D01*
X258270Y470582D01*
X258249Y470498D01*
X258224Y470416D01*
X258196Y470335D01*
X258164Y470255D01*
X258128Y470176D01*
X258089Y470100D01*
X258046Y470025D01*
X258001Y469952D01*
X257952Y469881D01*
X257899Y469813D01*
X257844Y469746D01*
X257786Y469683D01*
X257725Y469622D01*
X257662Y469564D01*
X257595Y469509D01*
X257527Y469457D01*
X257456Y469407D01*
X257383Y469362D01*
X257308Y469319D01*
X257232Y469280D01*
X257153Y469244D01*
X257073Y469212D01*
X256992Y469184D01*
X256910Y469159D01*
X256826Y469138D01*
X256742Y469121D01*
X256657Y469107D01*
X256571Y469098D01*
X256485Y469092D01*
X256399Y469090D01*
X251601Y469090D01*
X251515Y469092D01*
X251429Y469098D01*
X251343Y469107D01*
X251258Y469121D01*
X251174Y469138D01*
X251090Y469159D01*
X251008Y469184D01*
X250927Y469212D01*
X250847Y469244D01*
X250768Y469280D01*
X250692Y469319D01*
X250617Y469362D01*
X250544Y469407D01*
X250473Y469456D01*
X250405Y469509D01*
X250338Y469564D01*
X250275Y469622D01*
X250214Y469683D01*
X250156Y469746D01*
X250101Y469813D01*
X250049Y469881D01*
X249999Y469952D01*
X249954Y470025D01*
X249911Y470100D01*
X249872Y470176D01*
X249836Y470255D01*
X249804Y470335D01*
X249776Y470416D01*
X249751Y470498D01*
X249730Y470582D01*
X249713Y470666D01*
X249699Y470751D01*
X249690Y470837D01*
X249684Y470923D01*
X249682Y471009D01*
X249682Y473888D01*
X249682Y478844D02*
X258318Y478844D01*
X258318Y483641D02*
X249682Y478844D01*
X249682Y483641D02*
X258318Y483641D01*
X258318Y488597D02*
X249682Y488597D01*
X249682Y490996D01*
X249684Y491093D01*
X249690Y491189D01*
X249699Y491285D01*
X249713Y491381D01*
X249730Y491476D01*
X249752Y491570D01*
X249777Y491663D01*
X249805Y491756D01*
X249838Y491847D01*
X249874Y491936D01*
X249914Y492024D01*
X249957Y492111D01*
X250003Y492196D01*
X250053Y492278D01*
X250107Y492359D01*
X250163Y492437D01*
X250223Y492513D01*
X250285Y492587D01*
X250351Y492658D01*
X250419Y492726D01*
X250490Y492792D01*
X250564Y492854D01*
X250640Y492914D01*
X250718Y492970D01*
X250799Y493024D01*
X250882Y493074D01*
X250966Y493120D01*
X251053Y493163D01*
X251141Y493203D01*
X251230Y493239D01*
X251321Y493272D01*
X251414Y493300D01*
X251507Y493325D01*
X251601Y493347D01*
X251696Y493364D01*
X251792Y493378D01*
X251888Y493387D01*
X251984Y493393D01*
X252081Y493395D01*
X255919Y493395D01*
X256016Y493393D01*
X256112Y493387D01*
X256208Y493378D01*
X256304Y493364D01*
X256399Y493347D01*
X256493Y493325D01*
X256586Y493300D01*
X256679Y493272D01*
X256770Y493239D01*
X256859Y493203D01*
X256947Y493163D01*
X257034Y493120D01*
X257119Y493074D01*
X257201Y493024D01*
X257282Y492970D01*
X257360Y492914D01*
X257436Y492854D01*
X257510Y492792D01*
X257581Y492726D01*
X257649Y492658D01*
X257715Y492587D01*
X257777Y492513D01*
X257837Y492437D01*
X257893Y492359D01*
X257947Y492278D01*
X257997Y492196D01*
X258043Y492111D01*
X258086Y492024D01*
X258126Y491936D01*
X258162Y491847D01*
X258195Y491756D01*
X258223Y491663D01*
X258248Y491570D01*
X258270Y491476D01*
X258287Y491381D01*
X258301Y491285D01*
X258310Y491189D01*
X258316Y491093D01*
X258318Y490996D01*
X258318Y488597D01*
X228120Y473888D02*
X228120Y472449D01*
X228120Y473888D02*
X232918Y473888D01*
X232918Y471009D01*
X232916Y470923D01*
X232910Y470837D01*
X232901Y470751D01*
X232887Y470666D01*
X232870Y470582D01*
X232849Y470498D01*
X232824Y470416D01*
X232796Y470335D01*
X232764Y470255D01*
X232728Y470176D01*
X232689Y470100D01*
X232646Y470025D01*
X232601Y469952D01*
X232552Y469881D01*
X232499Y469813D01*
X232444Y469746D01*
X232386Y469683D01*
X232325Y469622D01*
X232262Y469564D01*
X232195Y469509D01*
X232127Y469457D01*
X232056Y469407D01*
X231983Y469362D01*
X231908Y469319D01*
X231832Y469280D01*
X231753Y469244D01*
X231673Y469212D01*
X231592Y469184D01*
X231510Y469159D01*
X231426Y469138D01*
X231342Y469121D01*
X231257Y469107D01*
X231171Y469098D01*
X231085Y469092D01*
X230999Y469090D01*
X226201Y469090D01*
X226115Y469092D01*
X226029Y469098D01*
X225943Y469107D01*
X225858Y469121D01*
X225774Y469138D01*
X225690Y469159D01*
X225608Y469184D01*
X225527Y469212D01*
X225447Y469244D01*
X225368Y469280D01*
X225292Y469319D01*
X225217Y469362D01*
X225144Y469407D01*
X225073Y469456D01*
X225005Y469509D01*
X224938Y469564D01*
X224875Y469622D01*
X224814Y469683D01*
X224756Y469746D01*
X224701Y469813D01*
X224649Y469881D01*
X224599Y469952D01*
X224554Y470025D01*
X224511Y470100D01*
X224472Y470176D01*
X224436Y470255D01*
X224404Y470335D01*
X224376Y470416D01*
X224351Y470498D01*
X224330Y470582D01*
X224313Y470666D01*
X224299Y470751D01*
X224290Y470837D01*
X224284Y470923D01*
X224282Y471009D01*
X224282Y473888D01*
X224282Y478844D02*
X232918Y478844D01*
X232918Y483641D02*
X224282Y478844D01*
X224282Y483641D02*
X232918Y483641D01*
X232918Y488597D02*
X224282Y488597D01*
X224282Y490996D01*
X224284Y491093D01*
X224290Y491189D01*
X224299Y491285D01*
X224313Y491381D01*
X224330Y491476D01*
X224352Y491570D01*
X224377Y491663D01*
X224405Y491756D01*
X224438Y491847D01*
X224474Y491936D01*
X224514Y492024D01*
X224557Y492111D01*
X224603Y492196D01*
X224653Y492278D01*
X224707Y492359D01*
X224763Y492437D01*
X224823Y492513D01*
X224885Y492587D01*
X224951Y492658D01*
X225019Y492726D01*
X225090Y492792D01*
X225164Y492854D01*
X225240Y492914D01*
X225318Y492970D01*
X225399Y493024D01*
X225482Y493074D01*
X225566Y493120D01*
X225653Y493163D01*
X225741Y493203D01*
X225830Y493239D01*
X225921Y493272D01*
X226014Y493300D01*
X226107Y493325D01*
X226201Y493347D01*
X226296Y493364D01*
X226392Y493378D01*
X226488Y493387D01*
X226584Y493393D01*
X226681Y493395D01*
X230519Y493395D01*
X230616Y493393D01*
X230712Y493387D01*
X230808Y493378D01*
X230904Y493364D01*
X230999Y493347D01*
X231093Y493325D01*
X231186Y493300D01*
X231279Y493272D01*
X231370Y493239D01*
X231459Y493203D01*
X231547Y493163D01*
X231634Y493120D01*
X231719Y493074D01*
X231801Y493024D01*
X231882Y492970D01*
X231960Y492914D01*
X232036Y492854D01*
X232110Y492792D01*
X232181Y492726D01*
X232249Y492658D01*
X232315Y492587D01*
X232377Y492513D01*
X232437Y492437D01*
X232493Y492359D01*
X232547Y492278D01*
X232597Y492196D01*
X232643Y492111D01*
X232686Y492024D01*
X232726Y491936D01*
X232762Y491847D01*
X232795Y491756D01*
X232823Y491663D01*
X232848Y491570D01*
X232870Y491476D01*
X232887Y491381D01*
X232901Y491285D01*
X232910Y491189D01*
X232916Y491093D01*
X232918Y490996D01*
X232918Y488597D01*
X280360Y474497D02*
X280360Y468740D01*
X283238Y471619D02*
X277481Y471619D01*
X283718Y478974D02*
X283718Y481852D01*
X283716Y481938D01*
X283710Y482024D01*
X283701Y482110D01*
X283687Y482195D01*
X283670Y482279D01*
X283649Y482363D01*
X283624Y482445D01*
X283596Y482526D01*
X283564Y482606D01*
X283528Y482685D01*
X283489Y482761D01*
X283446Y482836D01*
X283401Y482909D01*
X283352Y482980D01*
X283299Y483048D01*
X283244Y483115D01*
X283186Y483178D01*
X283125Y483239D01*
X283062Y483297D01*
X282995Y483352D01*
X282927Y483405D01*
X282856Y483454D01*
X282783Y483499D01*
X282708Y483542D01*
X282632Y483581D01*
X282553Y483617D01*
X282473Y483649D01*
X282392Y483677D01*
X282310Y483702D01*
X282226Y483723D01*
X282142Y483740D01*
X282057Y483754D01*
X281971Y483763D01*
X281885Y483769D01*
X281799Y483771D01*
X280839Y483771D01*
X280753Y483769D01*
X280667Y483763D01*
X280581Y483754D01*
X280496Y483740D01*
X280412Y483723D01*
X280328Y483702D01*
X280246Y483677D01*
X280165Y483649D01*
X280085Y483617D01*
X280006Y483581D01*
X279930Y483542D01*
X279855Y483499D01*
X279782Y483454D01*
X279711Y483405D01*
X279643Y483352D01*
X279576Y483297D01*
X279513Y483239D01*
X279452Y483178D01*
X279394Y483115D01*
X279339Y483048D01*
X279287Y482980D01*
X279237Y482909D01*
X279192Y482836D01*
X279149Y482761D01*
X279110Y482685D01*
X279074Y482606D01*
X279042Y482526D01*
X279014Y482445D01*
X278989Y482363D01*
X278968Y482279D01*
X278951Y482195D01*
X278937Y482110D01*
X278928Y482024D01*
X278922Y481938D01*
X278920Y481852D01*
X278920Y478974D01*
X275082Y478974D01*
X275082Y483771D01*
X275082Y487638D02*
X283718Y490516D01*
X275082Y493395D01*
X325882Y471613D02*
X334518Y471613D01*
X325882Y471613D02*
X325882Y474012D01*
X325884Y474109D01*
X325890Y474205D01*
X325899Y474301D01*
X325913Y474397D01*
X325930Y474492D01*
X325952Y474586D01*
X325977Y474679D01*
X326005Y474772D01*
X326038Y474863D01*
X326074Y474952D01*
X326114Y475040D01*
X326157Y475127D01*
X326203Y475212D01*
X326253Y475294D01*
X326307Y475375D01*
X326363Y475453D01*
X326423Y475529D01*
X326485Y475603D01*
X326551Y475674D01*
X326619Y475742D01*
X326690Y475808D01*
X326764Y475870D01*
X326840Y475930D01*
X326918Y475986D01*
X326999Y476040D01*
X327082Y476090D01*
X327166Y476136D01*
X327253Y476179D01*
X327341Y476219D01*
X327430Y476255D01*
X327521Y476288D01*
X327614Y476316D01*
X327707Y476341D01*
X327801Y476363D01*
X327896Y476380D01*
X327992Y476394D01*
X328088Y476403D01*
X328184Y476409D01*
X328281Y476411D01*
X328378Y476409D01*
X328474Y476403D01*
X328570Y476394D01*
X328666Y476380D01*
X328761Y476363D01*
X328855Y476341D01*
X328948Y476316D01*
X329041Y476288D01*
X329132Y476255D01*
X329221Y476219D01*
X329309Y476179D01*
X329396Y476136D01*
X329481Y476090D01*
X329563Y476040D01*
X329644Y475986D01*
X329722Y475930D01*
X329798Y475870D01*
X329872Y475808D01*
X329943Y475742D01*
X330011Y475674D01*
X330077Y475603D01*
X330139Y475529D01*
X330199Y475453D01*
X330255Y475375D01*
X330309Y475294D01*
X330359Y475212D01*
X330405Y475127D01*
X330448Y475040D01*
X330488Y474952D01*
X330524Y474863D01*
X330557Y474772D01*
X330585Y474679D01*
X330610Y474586D01*
X330632Y474492D01*
X330649Y474397D01*
X330663Y474301D01*
X330672Y474205D01*
X330678Y474109D01*
X330680Y474012D01*
X330680Y471613D01*
X330680Y474492D02*
X334518Y476411D01*
X334518Y483246D02*
X334516Y483332D01*
X334510Y483418D01*
X334501Y483504D01*
X334487Y483589D01*
X334470Y483673D01*
X334449Y483757D01*
X334424Y483839D01*
X334396Y483920D01*
X334364Y484000D01*
X334328Y484079D01*
X334289Y484155D01*
X334246Y484230D01*
X334201Y484303D01*
X334152Y484374D01*
X334099Y484442D01*
X334044Y484509D01*
X333986Y484572D01*
X333925Y484633D01*
X333862Y484691D01*
X333795Y484746D01*
X333727Y484799D01*
X333656Y484848D01*
X333583Y484893D01*
X333508Y484936D01*
X333432Y484975D01*
X333353Y485011D01*
X333273Y485043D01*
X333192Y485071D01*
X333110Y485096D01*
X333026Y485117D01*
X332942Y485134D01*
X332857Y485148D01*
X332771Y485157D01*
X332685Y485163D01*
X332599Y485165D01*
X334518Y483246D02*
X334516Y483123D01*
X334511Y483000D01*
X334501Y482877D01*
X334488Y482755D01*
X334471Y482633D01*
X334451Y482511D01*
X334427Y482391D01*
X334399Y482271D01*
X334368Y482152D01*
X334332Y482034D01*
X334294Y481917D01*
X334252Y481801D01*
X334206Y481687D01*
X334157Y481574D01*
X334105Y481463D01*
X334049Y481353D01*
X333990Y481245D01*
X333927Y481139D01*
X333862Y481035D01*
X333793Y480932D01*
X333721Y480832D01*
X333646Y480735D01*
X333569Y480639D01*
X333488Y480546D01*
X333405Y480455D01*
X333319Y480367D01*
X327801Y480608D02*
X327715Y480610D01*
X327629Y480616D01*
X327543Y480625D01*
X327458Y480639D01*
X327374Y480656D01*
X327290Y480677D01*
X327208Y480702D01*
X327127Y480730D01*
X327047Y480762D01*
X326968Y480798D01*
X326892Y480837D01*
X326817Y480880D01*
X326744Y480925D01*
X326673Y480974D01*
X326605Y481027D01*
X326538Y481082D01*
X326475Y481140D01*
X326414Y481201D01*
X326356Y481264D01*
X326301Y481331D01*
X326248Y481399D01*
X326199Y481470D01*
X326154Y481543D01*
X326111Y481618D01*
X326072Y481694D01*
X326036Y481773D01*
X326004Y481853D01*
X325976Y481934D01*
X325951Y482016D01*
X325930Y482100D01*
X325913Y482184D01*
X325899Y482269D01*
X325890Y482355D01*
X325884Y482441D01*
X325882Y482527D01*
X325884Y482643D01*
X325889Y482758D01*
X325899Y482874D01*
X325912Y482989D01*
X325928Y483103D01*
X325949Y483217D01*
X325973Y483331D01*
X326001Y483443D01*
X326032Y483554D01*
X326067Y483665D01*
X326105Y483774D01*
X326147Y483882D01*
X326192Y483988D01*
X326241Y484094D01*
X326293Y484197D01*
X326348Y484299D01*
X326407Y484398D01*
X326469Y484496D01*
X326534Y484592D01*
X326602Y484686D01*
X329480Y481568D02*
X329434Y481493D01*
X329384Y481420D01*
X329331Y481350D01*
X329275Y481282D01*
X329216Y481217D01*
X329154Y481154D01*
X329090Y481095D01*
X329022Y481038D01*
X328952Y480984D01*
X328880Y480934D01*
X328806Y480887D01*
X328730Y480843D01*
X328651Y480803D01*
X328571Y480767D01*
X328490Y480734D01*
X328407Y480705D01*
X328322Y480679D01*
X328237Y480657D01*
X328151Y480640D01*
X328064Y480626D01*
X327977Y480616D01*
X327889Y480610D01*
X327801Y480608D01*
X330920Y484206D02*
X330966Y484280D01*
X331016Y484353D01*
X331069Y484423D01*
X331125Y484491D01*
X331184Y484556D01*
X331246Y484619D01*
X331311Y484678D01*
X331378Y484735D01*
X331448Y484789D01*
X331520Y484839D01*
X331594Y484886D01*
X331670Y484930D01*
X331749Y484970D01*
X331829Y485006D01*
X331910Y485039D01*
X331993Y485069D01*
X332078Y485094D01*
X332163Y485116D01*
X332249Y485133D01*
X332336Y485147D01*
X332423Y485157D01*
X332511Y485163D01*
X332599Y485165D01*
X330920Y484206D02*
X329480Y481567D01*
X325882Y490996D02*
X334518Y490996D01*
X325882Y488597D02*
X325882Y493395D01*
X207518Y476061D02*
X198882Y473182D01*
X198882Y478940D02*
X207518Y476061D01*
X207518Y483376D02*
X198882Y483376D01*
X207518Y482417D02*
X207518Y484336D01*
X198882Y484336D02*
X198882Y482417D01*
X198882Y488597D02*
X207518Y488597D01*
X207518Y493395D02*
X198882Y488597D01*
X198882Y493395D02*
X207518Y493395D01*
X305760Y461696D02*
X305760Y455939D01*
X308638Y458817D02*
X302881Y458817D01*
X309118Y466172D02*
X309118Y468571D01*
X309116Y468668D01*
X309110Y468764D01*
X309101Y468860D01*
X309087Y468956D01*
X309070Y469051D01*
X309048Y469145D01*
X309023Y469238D01*
X308995Y469331D01*
X308962Y469422D01*
X308926Y469511D01*
X308886Y469599D01*
X308843Y469686D01*
X308797Y469771D01*
X308747Y469853D01*
X308693Y469934D01*
X308637Y470012D01*
X308577Y470088D01*
X308515Y470162D01*
X308449Y470233D01*
X308381Y470301D01*
X308310Y470367D01*
X308236Y470429D01*
X308160Y470489D01*
X308082Y470545D01*
X308001Y470599D01*
X307919Y470649D01*
X307834Y470695D01*
X307747Y470738D01*
X307659Y470778D01*
X307570Y470814D01*
X307479Y470847D01*
X307386Y470875D01*
X307293Y470900D01*
X307199Y470922D01*
X307104Y470939D01*
X307008Y470953D01*
X306912Y470962D01*
X306816Y470968D01*
X306719Y470970D01*
X306622Y470968D01*
X306526Y470962D01*
X306430Y470953D01*
X306334Y470939D01*
X306239Y470922D01*
X306145Y470900D01*
X306052Y470875D01*
X305959Y470847D01*
X305868Y470814D01*
X305779Y470778D01*
X305691Y470738D01*
X305604Y470695D01*
X305520Y470649D01*
X305437Y470599D01*
X305356Y470545D01*
X305278Y470489D01*
X305202Y470429D01*
X305128Y470367D01*
X305057Y470301D01*
X304989Y470233D01*
X304923Y470162D01*
X304861Y470088D01*
X304801Y470012D01*
X304745Y469934D01*
X304691Y469853D01*
X304641Y469771D01*
X304595Y469686D01*
X304552Y469599D01*
X304512Y469511D01*
X304476Y469422D01*
X304443Y469331D01*
X304415Y469238D01*
X304390Y469145D01*
X304368Y469051D01*
X304351Y468956D01*
X304337Y468860D01*
X304328Y468764D01*
X304322Y468668D01*
X304320Y468571D01*
X300482Y469051D02*
X300482Y466172D01*
X300482Y469051D02*
X300484Y469137D01*
X300490Y469223D01*
X300499Y469309D01*
X300513Y469394D01*
X300530Y469478D01*
X300551Y469562D01*
X300576Y469644D01*
X300604Y469725D01*
X300636Y469805D01*
X300672Y469884D01*
X300711Y469960D01*
X300754Y470035D01*
X300799Y470108D01*
X300848Y470179D01*
X300901Y470247D01*
X300956Y470314D01*
X301014Y470377D01*
X301075Y470438D01*
X301138Y470496D01*
X301205Y470551D01*
X301273Y470604D01*
X301344Y470653D01*
X301417Y470698D01*
X301492Y470741D01*
X301568Y470780D01*
X301647Y470816D01*
X301727Y470848D01*
X301808Y470876D01*
X301890Y470901D01*
X301974Y470922D01*
X302058Y470939D01*
X302143Y470953D01*
X302229Y470962D01*
X302315Y470968D01*
X302401Y470970D01*
X302487Y470968D01*
X302573Y470962D01*
X302659Y470953D01*
X302744Y470939D01*
X302828Y470922D01*
X302912Y470901D01*
X302994Y470876D01*
X303075Y470848D01*
X303155Y470816D01*
X303234Y470780D01*
X303310Y470741D01*
X303385Y470698D01*
X303458Y470653D01*
X303529Y470604D01*
X303597Y470551D01*
X303664Y470496D01*
X303727Y470438D01*
X303788Y470377D01*
X303846Y470314D01*
X303901Y470247D01*
X303954Y470179D01*
X304003Y470108D01*
X304048Y470035D01*
X304091Y469960D01*
X304130Y469884D01*
X304166Y469805D01*
X304198Y469725D01*
X304226Y469644D01*
X304251Y469562D01*
X304272Y469478D01*
X304289Y469394D01*
X304303Y469309D01*
X304312Y469223D01*
X304318Y469137D01*
X304320Y469051D01*
X304320Y467131D01*
X308638Y474732D02*
X309118Y474732D01*
X308638Y474732D02*
X308638Y475211D01*
X309118Y475211D01*
X309118Y474732D01*
X309118Y478974D02*
X309118Y481372D01*
X309116Y481469D01*
X309110Y481565D01*
X309101Y481661D01*
X309087Y481757D01*
X309070Y481852D01*
X309048Y481946D01*
X309023Y482039D01*
X308995Y482132D01*
X308962Y482223D01*
X308926Y482312D01*
X308886Y482400D01*
X308843Y482487D01*
X308797Y482572D01*
X308747Y482654D01*
X308693Y482735D01*
X308637Y482813D01*
X308577Y482889D01*
X308515Y482963D01*
X308449Y483034D01*
X308381Y483102D01*
X308310Y483168D01*
X308236Y483230D01*
X308160Y483290D01*
X308082Y483346D01*
X308001Y483400D01*
X307919Y483450D01*
X307834Y483496D01*
X307747Y483539D01*
X307659Y483579D01*
X307570Y483615D01*
X307479Y483648D01*
X307386Y483676D01*
X307293Y483701D01*
X307199Y483723D01*
X307104Y483740D01*
X307008Y483754D01*
X306912Y483763D01*
X306816Y483769D01*
X306719Y483771D01*
X306622Y483769D01*
X306526Y483763D01*
X306430Y483754D01*
X306334Y483740D01*
X306239Y483723D01*
X306145Y483701D01*
X306052Y483676D01*
X305959Y483648D01*
X305868Y483615D01*
X305779Y483579D01*
X305691Y483539D01*
X305604Y483496D01*
X305520Y483450D01*
X305437Y483400D01*
X305356Y483346D01*
X305278Y483290D01*
X305202Y483230D01*
X305128Y483168D01*
X305057Y483102D01*
X304989Y483034D01*
X304923Y482963D01*
X304861Y482889D01*
X304801Y482813D01*
X304745Y482735D01*
X304691Y482654D01*
X304641Y482572D01*
X304595Y482487D01*
X304552Y482400D01*
X304512Y482312D01*
X304476Y482223D01*
X304443Y482132D01*
X304415Y482039D01*
X304390Y481946D01*
X304368Y481852D01*
X304351Y481757D01*
X304337Y481661D01*
X304328Y481565D01*
X304322Y481469D01*
X304320Y481372D01*
X300482Y481852D02*
X300482Y478974D01*
X300482Y481852D02*
X300484Y481938D01*
X300490Y482024D01*
X300499Y482110D01*
X300513Y482195D01*
X300530Y482279D01*
X300551Y482363D01*
X300576Y482445D01*
X300604Y482526D01*
X300636Y482606D01*
X300672Y482685D01*
X300711Y482761D01*
X300754Y482836D01*
X300799Y482909D01*
X300848Y482980D01*
X300901Y483048D01*
X300956Y483115D01*
X301014Y483178D01*
X301075Y483239D01*
X301138Y483297D01*
X301205Y483352D01*
X301273Y483405D01*
X301344Y483454D01*
X301417Y483499D01*
X301492Y483542D01*
X301568Y483581D01*
X301647Y483617D01*
X301727Y483649D01*
X301808Y483677D01*
X301890Y483702D01*
X301974Y483723D01*
X302058Y483740D01*
X302143Y483754D01*
X302229Y483763D01*
X302315Y483769D01*
X302401Y483771D01*
X302487Y483769D01*
X302573Y483763D01*
X302659Y483754D01*
X302744Y483740D01*
X302828Y483723D01*
X302912Y483702D01*
X302994Y483677D01*
X303075Y483649D01*
X303155Y483617D01*
X303234Y483581D01*
X303310Y483542D01*
X303385Y483499D01*
X303458Y483454D01*
X303529Y483405D01*
X303597Y483352D01*
X303664Y483297D01*
X303727Y483239D01*
X303788Y483178D01*
X303846Y483115D01*
X303901Y483048D01*
X303954Y482980D01*
X304003Y482909D01*
X304048Y482836D01*
X304091Y482761D01*
X304130Y482685D01*
X304166Y482606D01*
X304198Y482526D01*
X304226Y482445D01*
X304251Y482363D01*
X304272Y482279D01*
X304289Y482195D01*
X304303Y482110D01*
X304312Y482024D01*
X304318Y481938D01*
X304320Y481852D01*
X304320Y479933D01*
X300482Y487638D02*
X309118Y490516D01*
X300482Y493395D01*
X152400Y488597D02*
X152230Y488599D01*
X152060Y488605D01*
X151891Y488615D01*
X151721Y488629D01*
X151552Y488648D01*
X151384Y488670D01*
X151216Y488696D01*
X151049Y488726D01*
X150883Y488761D01*
X150717Y488799D01*
X150552Y488841D01*
X150389Y488887D01*
X150227Y488937D01*
X150065Y488991D01*
X149906Y489048D01*
X149747Y489110D01*
X149590Y489175D01*
X149435Y489244D01*
X149281Y489317D01*
X149205Y489345D01*
X149130Y489377D01*
X149056Y489412D01*
X148984Y489450D01*
X148914Y489492D01*
X148846Y489537D01*
X148780Y489585D01*
X148716Y489636D01*
X148655Y489690D01*
X148596Y489746D01*
X148540Y489806D01*
X148487Y489867D01*
X148437Y489931D01*
X148389Y489998D01*
X148345Y490066D01*
X148304Y490137D01*
X148266Y490209D01*
X148232Y490283D01*
X148201Y490358D01*
X148173Y490435D01*
X148149Y490513D01*
X148129Y490592D01*
X148112Y490672D01*
X148099Y490752D01*
X148089Y490833D01*
X148084Y490914D01*
X148082Y490996D01*
X148084Y491078D01*
X148089Y491159D01*
X148099Y491240D01*
X148112Y491320D01*
X148129Y491400D01*
X148149Y491479D01*
X148173Y491557D01*
X148201Y491634D01*
X148232Y491709D01*
X148266Y491783D01*
X148304Y491855D01*
X148345Y491926D01*
X148389Y491994D01*
X148437Y492061D01*
X148487Y492125D01*
X148540Y492186D01*
X148596Y492246D01*
X148655Y492302D01*
X148716Y492356D01*
X148780Y492407D01*
X148846Y492455D01*
X148914Y492500D01*
X148984Y492542D01*
X149056Y492580D01*
X149130Y492615D01*
X149205Y492647D01*
X149281Y492675D01*
X149435Y492748D01*
X149590Y492817D01*
X149747Y492882D01*
X149906Y492944D01*
X150065Y493001D01*
X150227Y493055D01*
X150389Y493105D01*
X150552Y493151D01*
X150717Y493193D01*
X150883Y493231D01*
X151049Y493266D01*
X151216Y493296D01*
X151384Y493322D01*
X151552Y493344D01*
X151721Y493363D01*
X151891Y493377D01*
X152060Y493387D01*
X152230Y493393D01*
X152400Y493395D01*
X152400Y488597D02*
X152570Y488599D01*
X152740Y488605D01*
X152909Y488615D01*
X153079Y488629D01*
X153248Y488648D01*
X153416Y488670D01*
X153584Y488696D01*
X153751Y488726D01*
X153917Y488761D01*
X154083Y488799D01*
X154248Y488841D01*
X154411Y488887D01*
X154573Y488937D01*
X154735Y488991D01*
X154894Y489048D01*
X155053Y489110D01*
X155210Y489175D01*
X155365Y489244D01*
X155519Y489317D01*
X155595Y489345D01*
X155670Y489377D01*
X155744Y489412D01*
X155816Y489450D01*
X155886Y489492D01*
X155954Y489537D01*
X156020Y489585D01*
X156084Y489636D01*
X156145Y489690D01*
X156204Y489746D01*
X156260Y489806D01*
X156313Y489867D01*
X156363Y489931D01*
X156411Y489998D01*
X156455Y490066D01*
X156496Y490137D01*
X156534Y490209D01*
X156568Y490283D01*
X156599Y490358D01*
X156627Y490435D01*
X156651Y490513D01*
X156671Y490592D01*
X156688Y490672D01*
X156701Y490752D01*
X156711Y490833D01*
X156716Y490914D01*
X156718Y490996D01*
X155519Y492675D02*
X155365Y492748D01*
X155210Y492817D01*
X155053Y492882D01*
X154894Y492944D01*
X154735Y493001D01*
X154573Y493055D01*
X154411Y493105D01*
X154248Y493151D01*
X154083Y493193D01*
X153917Y493231D01*
X153751Y493266D01*
X153584Y493296D01*
X153416Y493322D01*
X153248Y493344D01*
X153079Y493363D01*
X152909Y493377D01*
X152740Y493387D01*
X152570Y493393D01*
X152400Y493395D01*
X155519Y492675D02*
X155595Y492647D01*
X155670Y492615D01*
X155744Y492580D01*
X155816Y492542D01*
X155886Y492500D01*
X155954Y492455D01*
X156020Y492407D01*
X156084Y492356D01*
X156145Y492302D01*
X156204Y492246D01*
X156260Y492186D01*
X156313Y492125D01*
X156363Y492061D01*
X156411Y491994D01*
X156455Y491926D01*
X156496Y491855D01*
X156534Y491783D01*
X156568Y491709D01*
X156599Y491634D01*
X156627Y491557D01*
X156651Y491479D01*
X156671Y491400D01*
X156688Y491320D01*
X156701Y491240D01*
X156711Y491159D01*
X156716Y491078D01*
X156718Y490996D01*
X154799Y489077D02*
X150001Y492915D01*
X124601Y488597D02*
X122682Y490996D01*
X131318Y490996D01*
X131318Y488597D02*
X131318Y493395D01*
X99441Y493395D02*
X99349Y493393D01*
X99258Y493387D01*
X99167Y493378D01*
X99076Y493364D01*
X98986Y493347D01*
X98897Y493325D01*
X98809Y493300D01*
X98722Y493272D01*
X98636Y493239D01*
X98552Y493203D01*
X98469Y493164D01*
X98388Y493121D01*
X98309Y493074D01*
X98232Y493025D01*
X98157Y492972D01*
X98085Y492916D01*
X98015Y492857D01*
X97947Y492795D01*
X97882Y492730D01*
X97820Y492662D01*
X97761Y492592D01*
X97705Y492520D01*
X97652Y492445D01*
X97603Y492368D01*
X97556Y492289D01*
X97513Y492208D01*
X97474Y492125D01*
X97438Y492041D01*
X97405Y491955D01*
X97377Y491868D01*
X97352Y491780D01*
X97330Y491691D01*
X97313Y491601D01*
X97299Y491510D01*
X97290Y491419D01*
X97284Y491328D01*
X97282Y491236D01*
X97284Y491133D01*
X97290Y491031D01*
X97299Y490929D01*
X97312Y490827D01*
X97329Y490726D01*
X97350Y490625D01*
X97374Y490526D01*
X97403Y490427D01*
X97434Y490330D01*
X97470Y490233D01*
X97508Y490138D01*
X97551Y490045D01*
X97597Y489953D01*
X97646Y489863D01*
X97698Y489775D01*
X97754Y489688D01*
X97813Y489604D01*
X97874Y489523D01*
X97939Y489443D01*
X98007Y489366D01*
X98078Y489291D01*
X98151Y489220D01*
X98227Y489151D01*
X98305Y489084D01*
X98386Y489021D01*
X98469Y488961D01*
X98554Y488904D01*
X98641Y488850D01*
X98731Y488799D01*
X98822Y488752D01*
X98914Y488708D01*
X99009Y488667D01*
X99104Y488630D01*
X99201Y488597D01*
X101120Y492675D02*
X101054Y492742D01*
X100985Y492806D01*
X100914Y492867D01*
X100840Y492925D01*
X100764Y492980D01*
X100686Y493032D01*
X100606Y493081D01*
X100524Y493127D01*
X100440Y493169D01*
X100354Y493208D01*
X100267Y493243D01*
X100179Y493274D01*
X100089Y493302D01*
X99999Y493327D01*
X99907Y493348D01*
X99815Y493365D01*
X99722Y493378D01*
X99629Y493387D01*
X99535Y493393D01*
X99441Y493395D01*
X101120Y492675D02*
X105918Y488597D01*
X105918Y493395D01*
X80518Y490996D02*
X80518Y488597D01*
X80518Y490996D02*
X80516Y491093D01*
X80510Y491189D01*
X80501Y491285D01*
X80487Y491381D01*
X80470Y491476D01*
X80448Y491570D01*
X80423Y491663D01*
X80395Y491756D01*
X80362Y491847D01*
X80326Y491936D01*
X80286Y492024D01*
X80243Y492111D01*
X80197Y492196D01*
X80147Y492278D01*
X80093Y492359D01*
X80037Y492437D01*
X79977Y492513D01*
X79915Y492587D01*
X79849Y492658D01*
X79781Y492726D01*
X79710Y492792D01*
X79636Y492854D01*
X79560Y492914D01*
X79482Y492970D01*
X79401Y493024D01*
X79319Y493074D01*
X79234Y493120D01*
X79147Y493163D01*
X79059Y493203D01*
X78970Y493239D01*
X78879Y493272D01*
X78786Y493300D01*
X78693Y493325D01*
X78599Y493347D01*
X78504Y493364D01*
X78408Y493378D01*
X78312Y493387D01*
X78216Y493393D01*
X78119Y493395D01*
X78022Y493393D01*
X77926Y493387D01*
X77830Y493378D01*
X77734Y493364D01*
X77639Y493347D01*
X77545Y493325D01*
X77452Y493300D01*
X77359Y493272D01*
X77268Y493239D01*
X77179Y493203D01*
X77091Y493163D01*
X77004Y493120D01*
X76920Y493074D01*
X76837Y493024D01*
X76756Y492970D01*
X76678Y492914D01*
X76602Y492854D01*
X76528Y492792D01*
X76457Y492726D01*
X76389Y492658D01*
X76323Y492587D01*
X76261Y492513D01*
X76201Y492437D01*
X76145Y492359D01*
X76091Y492278D01*
X76041Y492196D01*
X75995Y492111D01*
X75952Y492024D01*
X75912Y491936D01*
X75876Y491847D01*
X75843Y491756D01*
X75815Y491663D01*
X75790Y491570D01*
X75768Y491476D01*
X75751Y491381D01*
X75737Y491285D01*
X75728Y491189D01*
X75722Y491093D01*
X75720Y490996D01*
X71882Y491476D02*
X71882Y488597D01*
X71882Y491476D02*
X71884Y491562D01*
X71890Y491648D01*
X71899Y491734D01*
X71913Y491819D01*
X71930Y491903D01*
X71951Y491987D01*
X71976Y492069D01*
X72004Y492150D01*
X72036Y492230D01*
X72072Y492309D01*
X72111Y492385D01*
X72154Y492460D01*
X72199Y492533D01*
X72248Y492604D01*
X72301Y492672D01*
X72356Y492739D01*
X72414Y492802D01*
X72475Y492863D01*
X72538Y492921D01*
X72605Y492976D01*
X72673Y493029D01*
X72744Y493078D01*
X72817Y493123D01*
X72892Y493166D01*
X72968Y493205D01*
X73047Y493241D01*
X73127Y493273D01*
X73208Y493301D01*
X73290Y493326D01*
X73374Y493347D01*
X73458Y493364D01*
X73543Y493378D01*
X73629Y493387D01*
X73715Y493393D01*
X73801Y493395D01*
X73887Y493393D01*
X73973Y493387D01*
X74059Y493378D01*
X74144Y493364D01*
X74228Y493347D01*
X74312Y493326D01*
X74394Y493301D01*
X74475Y493273D01*
X74555Y493241D01*
X74634Y493205D01*
X74710Y493166D01*
X74785Y493123D01*
X74858Y493078D01*
X74929Y493029D01*
X74997Y492976D01*
X75064Y492921D01*
X75127Y492863D01*
X75188Y492802D01*
X75246Y492739D01*
X75301Y492672D01*
X75354Y492604D01*
X75403Y492533D01*
X75448Y492460D01*
X75491Y492385D01*
X75530Y492309D01*
X75566Y492230D01*
X75598Y492150D01*
X75626Y492069D01*
X75651Y491987D01*
X75672Y491903D01*
X75689Y491819D01*
X75703Y491734D01*
X75712Y491648D01*
X75718Y491562D01*
X75720Y491476D01*
X75720Y489557D01*
X53199Y488597D02*
X46482Y490516D01*
X53199Y488597D02*
X53199Y493395D01*
X51280Y491956D02*
X55118Y491956D01*
X29718Y491476D02*
X29718Y488597D01*
X29718Y491476D02*
X29716Y491562D01*
X29710Y491648D01*
X29701Y491734D01*
X29687Y491819D01*
X29670Y491903D01*
X29649Y491987D01*
X29624Y492069D01*
X29596Y492150D01*
X29564Y492230D01*
X29528Y492309D01*
X29489Y492385D01*
X29446Y492460D01*
X29401Y492533D01*
X29352Y492604D01*
X29299Y492672D01*
X29244Y492739D01*
X29186Y492802D01*
X29125Y492863D01*
X29062Y492921D01*
X28995Y492976D01*
X28927Y493029D01*
X28856Y493078D01*
X28783Y493123D01*
X28708Y493166D01*
X28632Y493205D01*
X28553Y493241D01*
X28473Y493273D01*
X28392Y493301D01*
X28310Y493326D01*
X28226Y493347D01*
X28142Y493364D01*
X28057Y493378D01*
X27971Y493387D01*
X27885Y493393D01*
X27799Y493395D01*
X26839Y493395D01*
X26753Y493393D01*
X26667Y493387D01*
X26581Y493378D01*
X26496Y493364D01*
X26412Y493347D01*
X26328Y493326D01*
X26246Y493301D01*
X26165Y493273D01*
X26085Y493241D01*
X26006Y493205D01*
X25930Y493166D01*
X25855Y493123D01*
X25782Y493078D01*
X25711Y493029D01*
X25643Y492976D01*
X25576Y492921D01*
X25513Y492863D01*
X25452Y492802D01*
X25394Y492739D01*
X25339Y492672D01*
X25287Y492604D01*
X25237Y492533D01*
X25192Y492460D01*
X25149Y492385D01*
X25110Y492309D01*
X25074Y492230D01*
X25042Y492150D01*
X25014Y492069D01*
X24989Y491987D01*
X24968Y491903D01*
X24951Y491819D01*
X24937Y491734D01*
X24928Y491648D01*
X24922Y491562D01*
X24920Y491476D01*
X24920Y488597D01*
X21082Y488597D01*
X21082Y493395D01*
X393220Y43660D02*
X393220Y42220D01*
X393220Y43660D02*
X398018Y43660D01*
X398018Y40781D01*
X398016Y40695D01*
X398010Y40609D01*
X398001Y40523D01*
X397987Y40438D01*
X397970Y40354D01*
X397949Y40270D01*
X397924Y40188D01*
X397896Y40107D01*
X397864Y40027D01*
X397828Y39948D01*
X397789Y39872D01*
X397746Y39797D01*
X397701Y39724D01*
X397652Y39653D01*
X397599Y39585D01*
X397544Y39518D01*
X397486Y39455D01*
X397425Y39394D01*
X397362Y39336D01*
X397295Y39281D01*
X397227Y39229D01*
X397156Y39179D01*
X397083Y39134D01*
X397008Y39091D01*
X396932Y39052D01*
X396853Y39016D01*
X396773Y38984D01*
X396692Y38956D01*
X396610Y38931D01*
X396526Y38910D01*
X396442Y38893D01*
X396357Y38879D01*
X396271Y38870D01*
X396185Y38864D01*
X396099Y38862D01*
X391301Y38862D01*
X391215Y38864D01*
X391129Y38870D01*
X391043Y38879D01*
X390958Y38893D01*
X390874Y38910D01*
X390790Y38931D01*
X390708Y38956D01*
X390627Y38984D01*
X390547Y39016D01*
X390468Y39052D01*
X390392Y39091D01*
X390317Y39134D01*
X390244Y39179D01*
X390173Y39228D01*
X390105Y39281D01*
X390038Y39336D01*
X389975Y39394D01*
X389914Y39455D01*
X389856Y39518D01*
X389801Y39585D01*
X389749Y39653D01*
X389699Y39724D01*
X389654Y39797D01*
X389611Y39872D01*
X389572Y39948D01*
X389536Y40027D01*
X389504Y40107D01*
X389476Y40188D01*
X389451Y40270D01*
X389430Y40354D01*
X389413Y40438D01*
X389399Y40523D01*
X389390Y40609D01*
X389384Y40695D01*
X389382Y40781D01*
X389382Y43660D01*
X389382Y48616D02*
X398018Y48616D01*
X398018Y53413D02*
X389382Y48616D01*
X389382Y53413D02*
X398018Y53413D01*
X398018Y58369D02*
X389382Y58369D01*
X389382Y60768D01*
X389384Y60865D01*
X389390Y60961D01*
X389399Y61057D01*
X389413Y61153D01*
X389430Y61248D01*
X389452Y61342D01*
X389477Y61435D01*
X389505Y61528D01*
X389538Y61619D01*
X389574Y61708D01*
X389614Y61796D01*
X389657Y61883D01*
X389703Y61968D01*
X389753Y62050D01*
X389807Y62131D01*
X389863Y62209D01*
X389923Y62285D01*
X389985Y62359D01*
X390051Y62430D01*
X390119Y62498D01*
X390190Y62564D01*
X390264Y62626D01*
X390340Y62686D01*
X390418Y62742D01*
X390499Y62796D01*
X390582Y62846D01*
X390666Y62892D01*
X390753Y62935D01*
X390841Y62975D01*
X390930Y63011D01*
X391021Y63044D01*
X391114Y63072D01*
X391207Y63097D01*
X391301Y63119D01*
X391396Y63136D01*
X391492Y63150D01*
X391588Y63159D01*
X391684Y63165D01*
X391781Y63167D01*
X395619Y63167D01*
X395716Y63165D01*
X395812Y63159D01*
X395908Y63150D01*
X396004Y63136D01*
X396099Y63119D01*
X396193Y63097D01*
X396286Y63072D01*
X396379Y63044D01*
X396470Y63011D01*
X396559Y62975D01*
X396647Y62935D01*
X396734Y62892D01*
X396819Y62846D01*
X396901Y62796D01*
X396982Y62742D01*
X397060Y62686D01*
X397136Y62626D01*
X397210Y62564D01*
X397281Y62498D01*
X397349Y62430D01*
X397415Y62359D01*
X397477Y62285D01*
X397537Y62209D01*
X397593Y62131D01*
X397647Y62050D01*
X397697Y61968D01*
X397743Y61883D01*
X397786Y61796D01*
X397826Y61708D01*
X397862Y61619D01*
X397895Y61528D01*
X397923Y61435D01*
X397948Y61342D01*
X397970Y61248D01*
X397987Y61153D01*
X398001Y61057D01*
X398010Y60961D01*
X398016Y60865D01*
X398018Y60768D01*
X398018Y58369D01*
X365901Y38862D02*
X363982Y41261D01*
X372618Y41261D01*
X372618Y38862D02*
X372618Y43660D01*
X372618Y48006D02*
X372618Y50405D01*
X372616Y50502D01*
X372610Y50598D01*
X372601Y50694D01*
X372587Y50790D01*
X372570Y50885D01*
X372548Y50979D01*
X372523Y51072D01*
X372495Y51165D01*
X372462Y51256D01*
X372426Y51345D01*
X372386Y51433D01*
X372343Y51520D01*
X372297Y51605D01*
X372247Y51687D01*
X372193Y51768D01*
X372137Y51846D01*
X372077Y51922D01*
X372015Y51996D01*
X371949Y52067D01*
X371881Y52135D01*
X371810Y52201D01*
X371736Y52263D01*
X371660Y52323D01*
X371582Y52379D01*
X371501Y52433D01*
X371419Y52483D01*
X371334Y52529D01*
X371247Y52572D01*
X371159Y52612D01*
X371070Y52648D01*
X370979Y52681D01*
X370886Y52709D01*
X370793Y52734D01*
X370699Y52756D01*
X370604Y52773D01*
X370508Y52787D01*
X370412Y52796D01*
X370316Y52802D01*
X370219Y52804D01*
X370122Y52802D01*
X370026Y52796D01*
X369930Y52787D01*
X369834Y52773D01*
X369739Y52756D01*
X369645Y52734D01*
X369552Y52709D01*
X369459Y52681D01*
X369368Y52648D01*
X369279Y52612D01*
X369191Y52572D01*
X369104Y52529D01*
X369020Y52483D01*
X368937Y52433D01*
X368856Y52379D01*
X368778Y52323D01*
X368702Y52263D01*
X368628Y52201D01*
X368557Y52135D01*
X368489Y52067D01*
X368423Y51996D01*
X368361Y51922D01*
X368301Y51846D01*
X368245Y51768D01*
X368191Y51687D01*
X368141Y51605D01*
X368095Y51520D01*
X368052Y51433D01*
X368012Y51345D01*
X367976Y51256D01*
X367943Y51165D01*
X367915Y51072D01*
X367890Y50979D01*
X367868Y50885D01*
X367851Y50790D01*
X367837Y50694D01*
X367828Y50598D01*
X367822Y50502D01*
X367820Y50405D01*
X363982Y50885D02*
X363982Y48006D01*
X363982Y50885D02*
X363984Y50971D01*
X363990Y51057D01*
X363999Y51143D01*
X364013Y51228D01*
X364030Y51312D01*
X364051Y51396D01*
X364076Y51478D01*
X364104Y51559D01*
X364136Y51639D01*
X364172Y51718D01*
X364211Y51794D01*
X364254Y51869D01*
X364299Y51942D01*
X364348Y52013D01*
X364401Y52081D01*
X364456Y52148D01*
X364514Y52211D01*
X364575Y52272D01*
X364638Y52330D01*
X364705Y52385D01*
X364773Y52438D01*
X364844Y52487D01*
X364917Y52532D01*
X364992Y52575D01*
X365068Y52614D01*
X365147Y52650D01*
X365227Y52682D01*
X365308Y52710D01*
X365390Y52735D01*
X365474Y52756D01*
X365558Y52773D01*
X365643Y52787D01*
X365729Y52796D01*
X365815Y52802D01*
X365901Y52804D01*
X365987Y52802D01*
X366073Y52796D01*
X366159Y52787D01*
X366244Y52773D01*
X366328Y52756D01*
X366412Y52735D01*
X366494Y52710D01*
X366575Y52682D01*
X366655Y52650D01*
X366734Y52614D01*
X366810Y52575D01*
X366885Y52532D01*
X366958Y52487D01*
X367029Y52438D01*
X367097Y52385D01*
X367164Y52330D01*
X367227Y52272D01*
X367288Y52211D01*
X367346Y52148D01*
X367401Y52081D01*
X367454Y52013D01*
X367503Y51942D01*
X367548Y51869D01*
X367591Y51794D01*
X367630Y51718D01*
X367666Y51639D01*
X367698Y51559D01*
X367726Y51478D01*
X367751Y51396D01*
X367772Y51312D01*
X367789Y51228D01*
X367803Y51143D01*
X367812Y51057D01*
X367818Y50971D01*
X367820Y50885D01*
X367820Y48966D01*
X340501Y38862D02*
X338582Y41261D01*
X347218Y41261D01*
X347218Y38862D02*
X347218Y43660D01*
X338582Y50645D02*
X338584Y50737D01*
X338590Y50828D01*
X338599Y50919D01*
X338613Y51010D01*
X338630Y51100D01*
X338652Y51189D01*
X338677Y51277D01*
X338705Y51364D01*
X338738Y51450D01*
X338774Y51534D01*
X338813Y51617D01*
X338856Y51698D01*
X338903Y51777D01*
X338952Y51854D01*
X339005Y51929D01*
X339061Y52001D01*
X339120Y52071D01*
X339182Y52139D01*
X339247Y52204D01*
X339315Y52266D01*
X339385Y52325D01*
X339457Y52381D01*
X339532Y52434D01*
X339609Y52483D01*
X339688Y52530D01*
X339769Y52573D01*
X339852Y52612D01*
X339936Y52648D01*
X340022Y52681D01*
X340109Y52709D01*
X340197Y52734D01*
X340286Y52756D01*
X340376Y52773D01*
X340467Y52787D01*
X340558Y52796D01*
X340649Y52802D01*
X340741Y52804D01*
X338582Y50645D02*
X338584Y50542D01*
X338590Y50440D01*
X338599Y50338D01*
X338612Y50236D01*
X338629Y50135D01*
X338650Y50034D01*
X338674Y49935D01*
X338703Y49836D01*
X338734Y49739D01*
X338770Y49642D01*
X338808Y49547D01*
X338851Y49454D01*
X338897Y49362D01*
X338946Y49272D01*
X338998Y49184D01*
X339054Y49097D01*
X339113Y49013D01*
X339174Y48932D01*
X339239Y48852D01*
X339307Y48775D01*
X339378Y48700D01*
X339451Y48629D01*
X339527Y48560D01*
X339605Y48493D01*
X339686Y48430D01*
X339769Y48370D01*
X339854Y48313D01*
X339941Y48259D01*
X340031Y48208D01*
X340122Y48161D01*
X340214Y48117D01*
X340309Y48076D01*
X340404Y48039D01*
X340501Y48006D01*
X342420Y52084D02*
X342354Y52151D01*
X342285Y52215D01*
X342214Y52276D01*
X342140Y52334D01*
X342064Y52389D01*
X341986Y52441D01*
X341906Y52490D01*
X341824Y52536D01*
X341740Y52578D01*
X341654Y52617D01*
X341567Y52652D01*
X341479Y52683D01*
X341389Y52711D01*
X341299Y52736D01*
X341207Y52757D01*
X341115Y52774D01*
X341022Y52787D01*
X340929Y52796D01*
X340835Y52802D01*
X340741Y52804D01*
X342420Y52084D02*
X347218Y48006D01*
X347218Y52804D01*
X315101Y38862D02*
X313182Y41261D01*
X321818Y41261D01*
X321818Y38862D02*
X321818Y43660D01*
X315101Y48006D02*
X313182Y50405D01*
X321818Y50405D01*
X321818Y48006D02*
X321818Y52804D01*
X414782Y41741D02*
X423418Y38862D01*
X423418Y44619D02*
X414782Y41741D01*
X421259Y43900D02*
X421259Y39582D01*
X423418Y48875D02*
X414782Y48875D01*
X414782Y51274D01*
X414784Y51371D01*
X414790Y51467D01*
X414799Y51563D01*
X414813Y51659D01*
X414830Y51754D01*
X414852Y51848D01*
X414877Y51941D01*
X414905Y52034D01*
X414938Y52125D01*
X414974Y52214D01*
X415014Y52302D01*
X415057Y52389D01*
X415103Y52474D01*
X415153Y52556D01*
X415207Y52637D01*
X415263Y52715D01*
X415323Y52791D01*
X415385Y52865D01*
X415451Y52936D01*
X415519Y53004D01*
X415590Y53070D01*
X415664Y53132D01*
X415740Y53192D01*
X415818Y53248D01*
X415899Y53302D01*
X415982Y53352D01*
X416066Y53398D01*
X416153Y53441D01*
X416241Y53481D01*
X416330Y53517D01*
X416421Y53550D01*
X416514Y53578D01*
X416607Y53603D01*
X416701Y53625D01*
X416796Y53642D01*
X416892Y53656D01*
X416988Y53665D01*
X417084Y53671D01*
X417181Y53673D01*
X417278Y53671D01*
X417374Y53665D01*
X417470Y53656D01*
X417566Y53642D01*
X417661Y53625D01*
X417755Y53603D01*
X417848Y53578D01*
X417941Y53550D01*
X418032Y53517D01*
X418121Y53481D01*
X418209Y53441D01*
X418296Y53398D01*
X418381Y53352D01*
X418463Y53302D01*
X418544Y53248D01*
X418622Y53192D01*
X418698Y53132D01*
X418772Y53070D01*
X418843Y53004D01*
X418911Y52936D01*
X418977Y52865D01*
X419039Y52791D01*
X419099Y52715D01*
X419155Y52637D01*
X419209Y52556D01*
X419259Y52474D01*
X419305Y52389D01*
X419348Y52302D01*
X419388Y52214D01*
X419424Y52125D01*
X419457Y52034D01*
X419485Y51941D01*
X419510Y51848D01*
X419532Y51754D01*
X419549Y51659D01*
X419563Y51563D01*
X419572Y51467D01*
X419578Y51371D01*
X419580Y51274D01*
X419580Y48875D01*
X419580Y51754D02*
X423418Y53673D01*
X423418Y58265D02*
X423418Y62103D01*
X423418Y58265D02*
X414782Y58265D01*
X414782Y62103D01*
X418620Y61144D02*
X418620Y58265D01*
X414782Y66190D02*
X423418Y66190D01*
X414782Y66190D02*
X414782Y70028D01*
X418620Y70028D02*
X418620Y66190D01*
X289701Y38862D02*
X287782Y41261D01*
X296418Y41261D01*
X296418Y38862D02*
X296418Y43660D01*
X292100Y48006D02*
X291930Y48008D01*
X291760Y48014D01*
X291591Y48024D01*
X291421Y48038D01*
X291252Y48057D01*
X291084Y48079D01*
X290916Y48105D01*
X290749Y48135D01*
X290583Y48170D01*
X290417Y48208D01*
X290252Y48250D01*
X290089Y48296D01*
X289927Y48346D01*
X289765Y48400D01*
X289606Y48457D01*
X289447Y48519D01*
X289290Y48584D01*
X289135Y48653D01*
X288981Y48726D01*
X288905Y48754D01*
X288830Y48786D01*
X288756Y48821D01*
X288684Y48859D01*
X288614Y48901D01*
X288546Y48946D01*
X288480Y48994D01*
X288416Y49045D01*
X288355Y49099D01*
X288296Y49155D01*
X288240Y49215D01*
X288187Y49276D01*
X288137Y49340D01*
X288089Y49407D01*
X288045Y49475D01*
X288004Y49546D01*
X287966Y49618D01*
X287932Y49692D01*
X287901Y49767D01*
X287873Y49844D01*
X287849Y49922D01*
X287829Y50001D01*
X287812Y50081D01*
X287799Y50161D01*
X287789Y50242D01*
X287784Y50323D01*
X287782Y50405D01*
X287784Y50487D01*
X287789Y50568D01*
X287799Y50649D01*
X287812Y50729D01*
X287829Y50809D01*
X287849Y50888D01*
X287873Y50966D01*
X287901Y51043D01*
X287932Y51118D01*
X287966Y51192D01*
X288004Y51264D01*
X288045Y51335D01*
X288089Y51403D01*
X288137Y51470D01*
X288187Y51534D01*
X288240Y51595D01*
X288296Y51655D01*
X288355Y51711D01*
X288416Y51765D01*
X288480Y51816D01*
X288546Y51864D01*
X288614Y51909D01*
X288684Y51951D01*
X288756Y51989D01*
X288830Y52024D01*
X288905Y52056D01*
X288981Y52084D01*
X289135Y52157D01*
X289290Y52226D01*
X289447Y52291D01*
X289606Y52353D01*
X289765Y52410D01*
X289927Y52464D01*
X290089Y52514D01*
X290252Y52560D01*
X290417Y52602D01*
X290583Y52640D01*
X290749Y52675D01*
X290916Y52705D01*
X291084Y52731D01*
X291252Y52753D01*
X291421Y52772D01*
X291591Y52786D01*
X291760Y52796D01*
X291930Y52802D01*
X292100Y52804D01*
X292100Y48006D02*
X292270Y48008D01*
X292440Y48014D01*
X292609Y48024D01*
X292779Y48038D01*
X292948Y48057D01*
X293116Y48079D01*
X293284Y48105D01*
X293451Y48135D01*
X293617Y48170D01*
X293783Y48208D01*
X293948Y48250D01*
X294111Y48296D01*
X294273Y48346D01*
X294435Y48400D01*
X294594Y48457D01*
X294753Y48519D01*
X294910Y48584D01*
X295065Y48653D01*
X295219Y48726D01*
X295295Y48754D01*
X295370Y48786D01*
X295444Y48821D01*
X295516Y48859D01*
X295586Y48901D01*
X295654Y48946D01*
X295720Y48994D01*
X295784Y49045D01*
X295845Y49099D01*
X295904Y49155D01*
X295960Y49215D01*
X296013Y49276D01*
X296063Y49340D01*
X296111Y49407D01*
X296155Y49475D01*
X296196Y49546D01*
X296234Y49618D01*
X296268Y49692D01*
X296299Y49767D01*
X296327Y49844D01*
X296351Y49922D01*
X296371Y50001D01*
X296388Y50081D01*
X296401Y50161D01*
X296411Y50242D01*
X296416Y50323D01*
X296418Y50405D01*
X295219Y52084D02*
X295065Y52157D01*
X294910Y52226D01*
X294753Y52291D01*
X294594Y52353D01*
X294435Y52410D01*
X294273Y52464D01*
X294111Y52514D01*
X293948Y52560D01*
X293783Y52602D01*
X293617Y52640D01*
X293451Y52675D01*
X293284Y52705D01*
X293116Y52731D01*
X292948Y52753D01*
X292779Y52772D01*
X292609Y52786D01*
X292440Y52796D01*
X292270Y52802D01*
X292100Y52804D01*
X295219Y52084D02*
X295295Y52056D01*
X295370Y52024D01*
X295444Y51989D01*
X295516Y51951D01*
X295586Y51909D01*
X295654Y51864D01*
X295720Y51816D01*
X295784Y51765D01*
X295845Y51711D01*
X295904Y51655D01*
X295960Y51595D01*
X296013Y51534D01*
X296063Y51470D01*
X296111Y51403D01*
X296155Y51335D01*
X296196Y51264D01*
X296234Y51192D01*
X296268Y51118D01*
X296299Y51043D01*
X296327Y50966D01*
X296351Y50888D01*
X296371Y50809D01*
X296388Y50729D01*
X296401Y50649D01*
X296411Y50568D01*
X296416Y50487D01*
X296418Y50405D01*
X294499Y48486D02*
X289701Y52324D01*
X267180Y43660D02*
X267180Y40781D01*
X267178Y40695D01*
X267172Y40609D01*
X267163Y40523D01*
X267149Y40438D01*
X267132Y40354D01*
X267111Y40270D01*
X267086Y40188D01*
X267058Y40107D01*
X267026Y40027D01*
X266990Y39948D01*
X266951Y39872D01*
X266908Y39797D01*
X266863Y39724D01*
X266814Y39653D01*
X266761Y39585D01*
X266706Y39518D01*
X266648Y39455D01*
X266587Y39394D01*
X266524Y39336D01*
X266457Y39281D01*
X266389Y39229D01*
X266318Y39179D01*
X266245Y39134D01*
X266170Y39091D01*
X266094Y39052D01*
X266015Y39016D01*
X265935Y38984D01*
X265854Y38956D01*
X265772Y38931D01*
X265688Y38910D01*
X265604Y38893D01*
X265519Y38879D01*
X265433Y38870D01*
X265347Y38864D01*
X265261Y38862D01*
X264781Y38862D01*
X264684Y38864D01*
X264588Y38870D01*
X264492Y38879D01*
X264396Y38893D01*
X264301Y38910D01*
X264207Y38932D01*
X264114Y38957D01*
X264021Y38985D01*
X263930Y39018D01*
X263841Y39054D01*
X263753Y39094D01*
X263666Y39137D01*
X263582Y39183D01*
X263499Y39233D01*
X263418Y39287D01*
X263340Y39343D01*
X263264Y39403D01*
X263190Y39465D01*
X263119Y39531D01*
X263051Y39599D01*
X262985Y39670D01*
X262923Y39744D01*
X262863Y39820D01*
X262807Y39898D01*
X262753Y39979D01*
X262703Y40062D01*
X262657Y40146D01*
X262614Y40233D01*
X262574Y40321D01*
X262538Y40410D01*
X262505Y40501D01*
X262477Y40594D01*
X262452Y40687D01*
X262430Y40781D01*
X262413Y40876D01*
X262399Y40972D01*
X262390Y41068D01*
X262384Y41164D01*
X262382Y41261D01*
X262384Y41358D01*
X262390Y41454D01*
X262399Y41550D01*
X262413Y41646D01*
X262430Y41741D01*
X262452Y41835D01*
X262477Y41928D01*
X262505Y42021D01*
X262538Y42112D01*
X262574Y42201D01*
X262614Y42289D01*
X262657Y42376D01*
X262703Y42461D01*
X262753Y42543D01*
X262807Y42624D01*
X262863Y42702D01*
X262923Y42778D01*
X262985Y42852D01*
X263051Y42923D01*
X263119Y42991D01*
X263190Y43057D01*
X263264Y43119D01*
X263340Y43179D01*
X263418Y43235D01*
X263499Y43289D01*
X263582Y43339D01*
X263666Y43385D01*
X263753Y43428D01*
X263841Y43468D01*
X263930Y43504D01*
X264021Y43537D01*
X264114Y43565D01*
X264207Y43590D01*
X264301Y43612D01*
X264396Y43629D01*
X264492Y43643D01*
X264588Y43652D01*
X264684Y43658D01*
X264781Y43660D01*
X267180Y43660D01*
X267303Y43658D01*
X267426Y43652D01*
X267549Y43642D01*
X267671Y43628D01*
X267793Y43611D01*
X267914Y43589D01*
X268034Y43564D01*
X268154Y43534D01*
X268272Y43501D01*
X268389Y43464D01*
X268506Y43424D01*
X268620Y43380D01*
X268734Y43332D01*
X268845Y43280D01*
X268955Y43225D01*
X269063Y43166D01*
X269170Y43104D01*
X269274Y43039D01*
X269376Y42970D01*
X269476Y42898D01*
X269573Y42823D01*
X269668Y42744D01*
X269760Y42663D01*
X269850Y42579D01*
X269937Y42492D01*
X270021Y42402D01*
X270102Y42310D01*
X270181Y42215D01*
X270256Y42118D01*
X270328Y42018D01*
X270397Y41916D01*
X270462Y41812D01*
X270524Y41705D01*
X270583Y41597D01*
X270638Y41487D01*
X270690Y41376D01*
X270738Y41262D01*
X270782Y41148D01*
X270822Y41031D01*
X270859Y40914D01*
X270892Y40796D01*
X270922Y40676D01*
X270947Y40556D01*
X270969Y40435D01*
X270986Y40313D01*
X271000Y40191D01*
X271010Y40068D01*
X271016Y39945D01*
X271018Y39822D01*
X243219Y38862D02*
X243122Y38864D01*
X243026Y38870D01*
X242930Y38879D01*
X242834Y38893D01*
X242739Y38910D01*
X242645Y38932D01*
X242552Y38957D01*
X242459Y38985D01*
X242368Y39018D01*
X242279Y39054D01*
X242191Y39094D01*
X242104Y39137D01*
X242019Y39183D01*
X241937Y39233D01*
X241856Y39287D01*
X241778Y39343D01*
X241702Y39403D01*
X241628Y39465D01*
X241557Y39531D01*
X241489Y39599D01*
X241423Y39670D01*
X241361Y39744D01*
X241301Y39820D01*
X241245Y39898D01*
X241191Y39979D01*
X241141Y40062D01*
X241095Y40146D01*
X241052Y40233D01*
X241012Y40321D01*
X240976Y40410D01*
X240943Y40501D01*
X240915Y40594D01*
X240890Y40687D01*
X240868Y40781D01*
X240851Y40876D01*
X240837Y40972D01*
X240828Y41068D01*
X240822Y41164D01*
X240820Y41261D01*
X240822Y41358D01*
X240828Y41454D01*
X240837Y41550D01*
X240851Y41646D01*
X240868Y41741D01*
X240890Y41835D01*
X240915Y41928D01*
X240943Y42021D01*
X240976Y42112D01*
X241012Y42201D01*
X241052Y42289D01*
X241095Y42376D01*
X241141Y42461D01*
X241191Y42543D01*
X241245Y42624D01*
X241301Y42702D01*
X241361Y42778D01*
X241423Y42852D01*
X241489Y42923D01*
X241557Y42991D01*
X241628Y43057D01*
X241702Y43119D01*
X241778Y43179D01*
X241856Y43235D01*
X241937Y43289D01*
X242020Y43339D01*
X242104Y43385D01*
X242191Y43428D01*
X242279Y43468D01*
X242368Y43504D01*
X242459Y43537D01*
X242552Y43565D01*
X242645Y43590D01*
X242739Y43612D01*
X242834Y43629D01*
X242930Y43643D01*
X243026Y43652D01*
X243122Y43658D01*
X243219Y43660D01*
X243316Y43658D01*
X243412Y43652D01*
X243508Y43643D01*
X243604Y43629D01*
X243699Y43612D01*
X243793Y43590D01*
X243886Y43565D01*
X243979Y43537D01*
X244070Y43504D01*
X244159Y43468D01*
X244247Y43428D01*
X244334Y43385D01*
X244419Y43339D01*
X244501Y43289D01*
X244582Y43235D01*
X244660Y43179D01*
X244736Y43119D01*
X244810Y43057D01*
X244881Y42991D01*
X244949Y42923D01*
X245015Y42852D01*
X245077Y42778D01*
X245137Y42702D01*
X245193Y42624D01*
X245247Y42543D01*
X245297Y42460D01*
X245343Y42376D01*
X245386Y42289D01*
X245426Y42201D01*
X245462Y42112D01*
X245495Y42021D01*
X245523Y41928D01*
X245548Y41835D01*
X245570Y41741D01*
X245587Y41646D01*
X245601Y41550D01*
X245610Y41454D01*
X245616Y41358D01*
X245618Y41261D01*
X245616Y41164D01*
X245610Y41068D01*
X245601Y40972D01*
X245587Y40876D01*
X245570Y40781D01*
X245548Y40687D01*
X245523Y40594D01*
X245495Y40501D01*
X245462Y40410D01*
X245426Y40321D01*
X245386Y40233D01*
X245343Y40146D01*
X245297Y40061D01*
X245247Y39979D01*
X245193Y39898D01*
X245137Y39820D01*
X245077Y39744D01*
X245015Y39670D01*
X244949Y39599D01*
X244881Y39531D01*
X244810Y39465D01*
X244736Y39403D01*
X244660Y39343D01*
X244582Y39287D01*
X244501Y39233D01*
X244419Y39183D01*
X244334Y39137D01*
X244247Y39094D01*
X244159Y39054D01*
X244070Y39018D01*
X243979Y38985D01*
X243886Y38957D01*
X243793Y38932D01*
X243699Y38910D01*
X243604Y38893D01*
X243508Y38879D01*
X243412Y38870D01*
X243316Y38864D01*
X243219Y38862D01*
X238901Y39342D02*
X238815Y39344D01*
X238729Y39350D01*
X238643Y39359D01*
X238558Y39373D01*
X238474Y39390D01*
X238390Y39411D01*
X238308Y39436D01*
X238227Y39464D01*
X238147Y39496D01*
X238068Y39532D01*
X237992Y39571D01*
X237917Y39614D01*
X237844Y39659D01*
X237773Y39708D01*
X237705Y39761D01*
X237638Y39816D01*
X237575Y39874D01*
X237514Y39935D01*
X237456Y39998D01*
X237401Y40065D01*
X237348Y40133D01*
X237299Y40204D01*
X237254Y40277D01*
X237211Y40352D01*
X237172Y40428D01*
X237136Y40507D01*
X237104Y40587D01*
X237076Y40668D01*
X237051Y40750D01*
X237030Y40834D01*
X237013Y40918D01*
X236999Y41003D01*
X236990Y41089D01*
X236984Y41175D01*
X236982Y41261D01*
X236984Y41347D01*
X236990Y41433D01*
X236999Y41519D01*
X237013Y41604D01*
X237030Y41688D01*
X237051Y41772D01*
X237076Y41854D01*
X237104Y41935D01*
X237136Y42015D01*
X237172Y42094D01*
X237211Y42170D01*
X237254Y42245D01*
X237299Y42318D01*
X237348Y42389D01*
X237401Y42457D01*
X237456Y42524D01*
X237514Y42587D01*
X237575Y42648D01*
X237638Y42706D01*
X237705Y42761D01*
X237773Y42814D01*
X237844Y42863D01*
X237917Y42908D01*
X237992Y42951D01*
X238068Y42990D01*
X238147Y43026D01*
X238227Y43058D01*
X238308Y43086D01*
X238390Y43111D01*
X238474Y43132D01*
X238558Y43149D01*
X238643Y43163D01*
X238729Y43172D01*
X238815Y43178D01*
X238901Y43180D01*
X238987Y43178D01*
X239073Y43172D01*
X239159Y43163D01*
X239244Y43149D01*
X239328Y43132D01*
X239412Y43111D01*
X239494Y43086D01*
X239575Y43058D01*
X239655Y43026D01*
X239734Y42990D01*
X239810Y42951D01*
X239885Y42908D01*
X239958Y42863D01*
X240029Y42814D01*
X240097Y42761D01*
X240164Y42706D01*
X240227Y42648D01*
X240288Y42587D01*
X240346Y42524D01*
X240401Y42457D01*
X240454Y42389D01*
X240503Y42318D01*
X240548Y42245D01*
X240591Y42170D01*
X240630Y42094D01*
X240666Y42015D01*
X240698Y41935D01*
X240726Y41854D01*
X240751Y41772D01*
X240772Y41688D01*
X240789Y41604D01*
X240803Y41519D01*
X240812Y41433D01*
X240818Y41347D01*
X240820Y41261D01*
X240818Y41175D01*
X240812Y41089D01*
X240803Y41003D01*
X240789Y40918D01*
X240772Y40834D01*
X240751Y40750D01*
X240726Y40668D01*
X240698Y40587D01*
X240666Y40507D01*
X240630Y40428D01*
X240591Y40352D01*
X240548Y40277D01*
X240503Y40204D01*
X240454Y40133D01*
X240401Y40065D01*
X240346Y39998D01*
X240288Y39935D01*
X240227Y39874D01*
X240164Y39816D01*
X240097Y39761D01*
X240029Y39708D01*
X239958Y39659D01*
X239885Y39614D01*
X239810Y39571D01*
X239734Y39532D01*
X239655Y39496D01*
X239575Y39464D01*
X239494Y39436D01*
X239412Y39411D01*
X239328Y39390D01*
X239244Y39373D01*
X239159Y39359D01*
X239073Y39350D01*
X238987Y39344D01*
X238901Y39342D01*
X199842Y38862D02*
X198882Y38862D01*
X198882Y43660D01*
X207518Y41261D01*
X177320Y41741D02*
X177320Y38862D01*
X177320Y41741D02*
X177322Y41827D01*
X177328Y41913D01*
X177337Y41999D01*
X177351Y42084D01*
X177368Y42168D01*
X177389Y42252D01*
X177414Y42334D01*
X177442Y42415D01*
X177474Y42495D01*
X177510Y42574D01*
X177549Y42650D01*
X177592Y42725D01*
X177637Y42798D01*
X177687Y42869D01*
X177739Y42937D01*
X177794Y43004D01*
X177852Y43067D01*
X177913Y43128D01*
X177976Y43186D01*
X178043Y43241D01*
X178111Y43294D01*
X178182Y43343D01*
X178255Y43388D01*
X178330Y43431D01*
X178406Y43470D01*
X178485Y43506D01*
X178565Y43538D01*
X178646Y43566D01*
X178729Y43591D01*
X178812Y43612D01*
X178896Y43629D01*
X178981Y43643D01*
X179067Y43652D01*
X179153Y43658D01*
X179239Y43660D01*
X179719Y43660D01*
X179816Y43658D01*
X179912Y43652D01*
X180008Y43643D01*
X180104Y43629D01*
X180199Y43612D01*
X180293Y43590D01*
X180386Y43565D01*
X180479Y43537D01*
X180570Y43504D01*
X180659Y43468D01*
X180747Y43428D01*
X180834Y43385D01*
X180919Y43339D01*
X181001Y43289D01*
X181082Y43235D01*
X181160Y43179D01*
X181236Y43119D01*
X181310Y43057D01*
X181381Y42991D01*
X181449Y42923D01*
X181515Y42852D01*
X181577Y42778D01*
X181637Y42702D01*
X181693Y42624D01*
X181747Y42543D01*
X181797Y42460D01*
X181843Y42376D01*
X181886Y42289D01*
X181926Y42201D01*
X181962Y42112D01*
X181995Y42021D01*
X182023Y41928D01*
X182048Y41835D01*
X182070Y41741D01*
X182087Y41646D01*
X182101Y41550D01*
X182110Y41454D01*
X182116Y41358D01*
X182118Y41261D01*
X182116Y41164D01*
X182110Y41068D01*
X182101Y40972D01*
X182087Y40876D01*
X182070Y40781D01*
X182048Y40687D01*
X182023Y40594D01*
X181995Y40501D01*
X181962Y40410D01*
X181926Y40321D01*
X181886Y40233D01*
X181843Y40146D01*
X181797Y40061D01*
X181747Y39979D01*
X181693Y39898D01*
X181637Y39820D01*
X181577Y39744D01*
X181515Y39670D01*
X181449Y39599D01*
X181381Y39531D01*
X181310Y39465D01*
X181236Y39403D01*
X181160Y39343D01*
X181082Y39287D01*
X181001Y39233D01*
X180919Y39183D01*
X180834Y39137D01*
X180747Y39094D01*
X180659Y39054D01*
X180570Y39018D01*
X180479Y38985D01*
X180386Y38957D01*
X180293Y38932D01*
X180199Y38910D01*
X180104Y38893D01*
X180008Y38879D01*
X179912Y38870D01*
X179816Y38864D01*
X179719Y38862D01*
X177320Y38862D01*
X177197Y38864D01*
X177074Y38870D01*
X176951Y38880D01*
X176829Y38894D01*
X176707Y38911D01*
X176586Y38933D01*
X176466Y38958D01*
X176346Y38988D01*
X176228Y39021D01*
X176111Y39058D01*
X175994Y39098D01*
X175880Y39142D01*
X175766Y39190D01*
X175655Y39242D01*
X175545Y39297D01*
X175437Y39356D01*
X175330Y39418D01*
X175226Y39483D01*
X175124Y39552D01*
X175024Y39624D01*
X174927Y39699D01*
X174832Y39778D01*
X174740Y39859D01*
X174650Y39943D01*
X174563Y40030D01*
X174479Y40120D01*
X174398Y40212D01*
X174319Y40307D01*
X174244Y40404D01*
X174172Y40504D01*
X174103Y40606D01*
X174038Y40710D01*
X173976Y40817D01*
X173917Y40925D01*
X173862Y41035D01*
X173810Y41146D01*
X173763Y41260D01*
X173718Y41374D01*
X173678Y41491D01*
X173641Y41608D01*
X173608Y41726D01*
X173578Y41846D01*
X173553Y41966D01*
X173531Y42087D01*
X173514Y42209D01*
X173500Y42331D01*
X173490Y42454D01*
X173484Y42577D01*
X173482Y42700D01*
X156718Y41741D02*
X156718Y38862D01*
X156718Y41741D02*
X156716Y41827D01*
X156710Y41913D01*
X156701Y41999D01*
X156687Y42084D01*
X156670Y42168D01*
X156649Y42252D01*
X156624Y42334D01*
X156596Y42415D01*
X156564Y42495D01*
X156528Y42574D01*
X156489Y42650D01*
X156446Y42725D01*
X156401Y42798D01*
X156352Y42869D01*
X156299Y42937D01*
X156244Y43004D01*
X156186Y43067D01*
X156125Y43128D01*
X156062Y43186D01*
X155995Y43241D01*
X155927Y43294D01*
X155856Y43343D01*
X155783Y43388D01*
X155708Y43431D01*
X155632Y43470D01*
X155553Y43506D01*
X155473Y43538D01*
X155392Y43566D01*
X155310Y43591D01*
X155226Y43612D01*
X155142Y43629D01*
X155057Y43643D01*
X154971Y43652D01*
X154885Y43658D01*
X154799Y43660D01*
X153839Y43660D01*
X153753Y43658D01*
X153667Y43652D01*
X153581Y43643D01*
X153496Y43629D01*
X153412Y43612D01*
X153328Y43591D01*
X153246Y43566D01*
X153165Y43538D01*
X153085Y43506D01*
X153006Y43470D01*
X152930Y43431D01*
X152855Y43388D01*
X152782Y43343D01*
X152711Y43294D01*
X152643Y43241D01*
X152576Y43186D01*
X152513Y43128D01*
X152452Y43067D01*
X152394Y43004D01*
X152339Y42937D01*
X152287Y42869D01*
X152237Y42798D01*
X152192Y42725D01*
X152149Y42650D01*
X152110Y42574D01*
X152074Y42495D01*
X152042Y42415D01*
X152014Y42334D01*
X151989Y42252D01*
X151968Y42168D01*
X151951Y42084D01*
X151937Y41999D01*
X151928Y41913D01*
X151922Y41827D01*
X151920Y41741D01*
X151920Y38862D01*
X148082Y38862D01*
X148082Y43660D01*
X129399Y38862D02*
X122682Y40781D01*
X129399Y38862D02*
X129399Y43660D01*
X127480Y42220D02*
X131318Y42220D01*
X105918Y41261D02*
X105918Y38862D01*
X105918Y41261D02*
X105916Y41358D01*
X105910Y41454D01*
X105901Y41550D01*
X105887Y41646D01*
X105870Y41741D01*
X105848Y41835D01*
X105823Y41928D01*
X105795Y42021D01*
X105762Y42112D01*
X105726Y42201D01*
X105686Y42289D01*
X105643Y42376D01*
X105597Y42461D01*
X105547Y42543D01*
X105493Y42624D01*
X105437Y42702D01*
X105377Y42778D01*
X105315Y42852D01*
X105249Y42923D01*
X105181Y42991D01*
X105110Y43057D01*
X105036Y43119D01*
X104960Y43179D01*
X104882Y43235D01*
X104801Y43289D01*
X104719Y43339D01*
X104634Y43385D01*
X104547Y43428D01*
X104459Y43468D01*
X104370Y43504D01*
X104279Y43537D01*
X104186Y43565D01*
X104093Y43590D01*
X103999Y43612D01*
X103904Y43629D01*
X103808Y43643D01*
X103712Y43652D01*
X103616Y43658D01*
X103519Y43660D01*
X103422Y43658D01*
X103326Y43652D01*
X103230Y43643D01*
X103134Y43629D01*
X103039Y43612D01*
X102945Y43590D01*
X102852Y43565D01*
X102759Y43537D01*
X102668Y43504D01*
X102579Y43468D01*
X102491Y43428D01*
X102404Y43385D01*
X102320Y43339D01*
X102237Y43289D01*
X102156Y43235D01*
X102078Y43179D01*
X102002Y43119D01*
X101928Y43057D01*
X101857Y42991D01*
X101789Y42923D01*
X101723Y42852D01*
X101661Y42778D01*
X101601Y42702D01*
X101545Y42624D01*
X101491Y42543D01*
X101441Y42461D01*
X101395Y42376D01*
X101352Y42289D01*
X101312Y42201D01*
X101276Y42112D01*
X101243Y42021D01*
X101215Y41928D01*
X101190Y41835D01*
X101168Y41741D01*
X101151Y41646D01*
X101137Y41550D01*
X101128Y41454D01*
X101122Y41358D01*
X101120Y41261D01*
X97282Y41741D02*
X97282Y38862D01*
X97282Y41741D02*
X97284Y41827D01*
X97290Y41913D01*
X97299Y41999D01*
X97313Y42084D01*
X97330Y42168D01*
X97351Y42252D01*
X97376Y42334D01*
X97404Y42415D01*
X97436Y42495D01*
X97472Y42574D01*
X97511Y42650D01*
X97554Y42725D01*
X97599Y42798D01*
X97648Y42869D01*
X97701Y42937D01*
X97756Y43004D01*
X97814Y43067D01*
X97875Y43128D01*
X97938Y43186D01*
X98005Y43241D01*
X98073Y43294D01*
X98144Y43343D01*
X98217Y43388D01*
X98292Y43431D01*
X98368Y43470D01*
X98447Y43506D01*
X98527Y43538D01*
X98608Y43566D01*
X98690Y43591D01*
X98774Y43612D01*
X98858Y43629D01*
X98943Y43643D01*
X99029Y43652D01*
X99115Y43658D01*
X99201Y43660D01*
X99287Y43658D01*
X99373Y43652D01*
X99459Y43643D01*
X99544Y43629D01*
X99628Y43612D01*
X99712Y43591D01*
X99794Y43566D01*
X99875Y43538D01*
X99955Y43506D01*
X100034Y43470D01*
X100110Y43431D01*
X100185Y43388D01*
X100258Y43343D01*
X100329Y43294D01*
X100397Y43241D01*
X100464Y43186D01*
X100527Y43128D01*
X100588Y43067D01*
X100646Y43004D01*
X100701Y42937D01*
X100754Y42869D01*
X100803Y42798D01*
X100848Y42725D01*
X100891Y42650D01*
X100930Y42574D01*
X100966Y42495D01*
X100998Y42415D01*
X101026Y42334D01*
X101051Y42252D01*
X101072Y42168D01*
X101089Y42084D01*
X101103Y41999D01*
X101112Y41913D01*
X101118Y41827D01*
X101120Y41741D01*
X101120Y39822D01*
X74041Y43660D02*
X73949Y43658D01*
X73858Y43652D01*
X73767Y43643D01*
X73676Y43629D01*
X73586Y43612D01*
X73497Y43590D01*
X73409Y43565D01*
X73322Y43537D01*
X73236Y43504D01*
X73152Y43468D01*
X73069Y43429D01*
X72988Y43386D01*
X72909Y43339D01*
X72832Y43290D01*
X72757Y43237D01*
X72685Y43181D01*
X72615Y43122D01*
X72547Y43060D01*
X72482Y42995D01*
X72420Y42927D01*
X72361Y42857D01*
X72305Y42785D01*
X72252Y42710D01*
X72203Y42633D01*
X72156Y42554D01*
X72113Y42473D01*
X72074Y42390D01*
X72038Y42306D01*
X72005Y42220D01*
X71977Y42133D01*
X71952Y42045D01*
X71930Y41956D01*
X71913Y41866D01*
X71899Y41775D01*
X71890Y41684D01*
X71884Y41593D01*
X71882Y41501D01*
X71884Y41398D01*
X71890Y41296D01*
X71899Y41194D01*
X71912Y41092D01*
X71929Y40991D01*
X71950Y40890D01*
X71974Y40791D01*
X72003Y40692D01*
X72034Y40595D01*
X72070Y40498D01*
X72108Y40403D01*
X72151Y40310D01*
X72197Y40218D01*
X72246Y40128D01*
X72298Y40040D01*
X72354Y39953D01*
X72413Y39869D01*
X72474Y39788D01*
X72539Y39708D01*
X72607Y39631D01*
X72678Y39556D01*
X72751Y39485D01*
X72827Y39416D01*
X72905Y39349D01*
X72986Y39286D01*
X73069Y39226D01*
X73154Y39169D01*
X73241Y39115D01*
X73331Y39064D01*
X73422Y39017D01*
X73514Y38973D01*
X73609Y38932D01*
X73704Y38895D01*
X73801Y38862D01*
X75720Y42940D02*
X75654Y43007D01*
X75585Y43071D01*
X75514Y43132D01*
X75440Y43190D01*
X75364Y43245D01*
X75286Y43297D01*
X75206Y43346D01*
X75124Y43392D01*
X75040Y43434D01*
X74954Y43473D01*
X74867Y43508D01*
X74779Y43539D01*
X74689Y43567D01*
X74599Y43592D01*
X74507Y43613D01*
X74415Y43630D01*
X74322Y43643D01*
X74229Y43652D01*
X74135Y43658D01*
X74041Y43660D01*
X75720Y42940D02*
X80518Y38862D01*
X80518Y43660D01*
X55118Y41261D02*
X46482Y41261D01*
X46482Y38862D02*
X46482Y43660D01*
X46482Y52674D02*
X55118Y46917D01*
X55118Y52674D02*
X46482Y46917D01*
X29718Y38862D02*
X21082Y38862D01*
X21082Y41261D01*
X21084Y41358D01*
X21090Y41454D01*
X21099Y41550D01*
X21113Y41646D01*
X21130Y41741D01*
X21152Y41835D01*
X21177Y41928D01*
X21205Y42021D01*
X21238Y42112D01*
X21274Y42201D01*
X21314Y42289D01*
X21357Y42376D01*
X21403Y42461D01*
X21453Y42543D01*
X21507Y42624D01*
X21563Y42702D01*
X21623Y42778D01*
X21685Y42852D01*
X21751Y42923D01*
X21819Y42991D01*
X21890Y43057D01*
X21964Y43119D01*
X22040Y43179D01*
X22118Y43235D01*
X22199Y43289D01*
X22282Y43339D01*
X22366Y43385D01*
X22453Y43428D01*
X22541Y43468D01*
X22630Y43504D01*
X22721Y43537D01*
X22814Y43565D01*
X22907Y43590D01*
X23001Y43612D01*
X23096Y43629D01*
X23192Y43643D01*
X23288Y43652D01*
X23384Y43658D01*
X23481Y43660D01*
X23578Y43658D01*
X23674Y43652D01*
X23770Y43643D01*
X23866Y43629D01*
X23961Y43612D01*
X24055Y43590D01*
X24148Y43565D01*
X24241Y43537D01*
X24332Y43504D01*
X24421Y43468D01*
X24509Y43428D01*
X24596Y43385D01*
X24681Y43339D01*
X24763Y43289D01*
X24844Y43235D01*
X24922Y43179D01*
X24998Y43119D01*
X25072Y43057D01*
X25143Y42991D01*
X25211Y42923D01*
X25277Y42852D01*
X25339Y42778D01*
X25399Y42702D01*
X25455Y42624D01*
X25509Y42543D01*
X25559Y42461D01*
X25605Y42376D01*
X25648Y42289D01*
X25688Y42201D01*
X25724Y42112D01*
X25757Y42021D01*
X25785Y41928D01*
X25810Y41835D01*
X25832Y41741D01*
X25849Y41646D01*
X25863Y41550D01*
X25872Y41454D01*
X25878Y41358D01*
X25880Y41261D01*
X25880Y38862D01*
X25880Y41741D02*
X29718Y43660D01*
X29718Y47442D02*
X21082Y53199D01*
X21082Y47442D02*
X29718Y53199D01*
X446899Y43660D02*
X446985Y43658D01*
X447071Y43652D01*
X447157Y43643D01*
X447242Y43629D01*
X447326Y43612D01*
X447410Y43591D01*
X447492Y43566D01*
X447573Y43538D01*
X447653Y43506D01*
X447732Y43470D01*
X447808Y43431D01*
X447883Y43388D01*
X447956Y43343D01*
X448027Y43294D01*
X448095Y43241D01*
X448162Y43186D01*
X448225Y43128D01*
X448286Y43067D01*
X448344Y43004D01*
X448399Y42937D01*
X448452Y42869D01*
X448501Y42798D01*
X448546Y42725D01*
X448589Y42650D01*
X448628Y42574D01*
X448664Y42495D01*
X448696Y42415D01*
X448724Y42334D01*
X448749Y42252D01*
X448770Y42168D01*
X448787Y42084D01*
X448801Y41999D01*
X448810Y41913D01*
X448816Y41827D01*
X448818Y41741D01*
X448816Y41618D01*
X448811Y41495D01*
X448801Y41372D01*
X448788Y41250D01*
X448771Y41128D01*
X448751Y41006D01*
X448727Y40886D01*
X448699Y40766D01*
X448668Y40647D01*
X448632Y40529D01*
X448594Y40412D01*
X448552Y40296D01*
X448506Y40182D01*
X448457Y40069D01*
X448405Y39958D01*
X448349Y39848D01*
X448290Y39740D01*
X448227Y39634D01*
X448162Y39530D01*
X448093Y39427D01*
X448021Y39327D01*
X447946Y39230D01*
X447869Y39134D01*
X447788Y39041D01*
X447705Y38950D01*
X447619Y38862D01*
X442101Y39102D02*
X442015Y39104D01*
X441929Y39110D01*
X441843Y39119D01*
X441758Y39133D01*
X441674Y39150D01*
X441590Y39171D01*
X441508Y39196D01*
X441427Y39224D01*
X441347Y39256D01*
X441268Y39292D01*
X441192Y39331D01*
X441117Y39374D01*
X441044Y39419D01*
X440973Y39468D01*
X440905Y39521D01*
X440838Y39576D01*
X440775Y39634D01*
X440714Y39695D01*
X440656Y39758D01*
X440601Y39825D01*
X440548Y39893D01*
X440499Y39964D01*
X440454Y40037D01*
X440411Y40112D01*
X440372Y40188D01*
X440336Y40267D01*
X440304Y40347D01*
X440276Y40428D01*
X440251Y40510D01*
X440230Y40594D01*
X440213Y40678D01*
X440199Y40763D01*
X440190Y40849D01*
X440184Y40935D01*
X440182Y41021D01*
X440184Y41137D01*
X440189Y41252D01*
X440199Y41368D01*
X440212Y41483D01*
X440228Y41597D01*
X440249Y41711D01*
X440273Y41825D01*
X440301Y41937D01*
X440332Y42048D01*
X440367Y42159D01*
X440405Y42268D01*
X440447Y42376D01*
X440492Y42482D01*
X440541Y42588D01*
X440593Y42691D01*
X440648Y42793D01*
X440707Y42892D01*
X440769Y42990D01*
X440834Y43086D01*
X440902Y43180D01*
X443780Y40062D02*
X443734Y39987D01*
X443684Y39914D01*
X443631Y39844D01*
X443575Y39776D01*
X443516Y39711D01*
X443454Y39648D01*
X443390Y39589D01*
X443322Y39532D01*
X443252Y39478D01*
X443180Y39428D01*
X443106Y39381D01*
X443030Y39337D01*
X442951Y39297D01*
X442871Y39261D01*
X442790Y39228D01*
X442707Y39199D01*
X442622Y39173D01*
X442537Y39151D01*
X442451Y39134D01*
X442364Y39120D01*
X442277Y39110D01*
X442189Y39104D01*
X442101Y39102D01*
X445220Y42701D02*
X445266Y42775D01*
X445316Y42848D01*
X445369Y42918D01*
X445425Y42986D01*
X445484Y43051D01*
X445546Y43114D01*
X445611Y43173D01*
X445678Y43230D01*
X445748Y43284D01*
X445820Y43334D01*
X445894Y43381D01*
X445970Y43425D01*
X446049Y43465D01*
X446129Y43501D01*
X446210Y43534D01*
X446293Y43564D01*
X446378Y43589D01*
X446463Y43611D01*
X446549Y43628D01*
X446636Y43642D01*
X446723Y43652D01*
X446811Y43658D01*
X446899Y43660D01*
X445220Y42700D02*
X443780Y40061D01*
X440182Y48006D02*
X448818Y48006D01*
X440182Y48006D02*
X440182Y50405D01*
X440184Y50502D01*
X440190Y50598D01*
X440199Y50694D01*
X440213Y50790D01*
X440230Y50885D01*
X440252Y50979D01*
X440277Y51072D01*
X440305Y51165D01*
X440338Y51256D01*
X440374Y51345D01*
X440414Y51433D01*
X440457Y51520D01*
X440503Y51605D01*
X440553Y51687D01*
X440607Y51768D01*
X440663Y51846D01*
X440723Y51922D01*
X440785Y51996D01*
X440851Y52067D01*
X440919Y52135D01*
X440990Y52201D01*
X441064Y52263D01*
X441140Y52323D01*
X441218Y52379D01*
X441299Y52433D01*
X441382Y52483D01*
X441466Y52529D01*
X441553Y52572D01*
X441641Y52612D01*
X441730Y52648D01*
X441821Y52681D01*
X441914Y52709D01*
X442007Y52734D01*
X442101Y52756D01*
X442196Y52773D01*
X442292Y52787D01*
X442388Y52796D01*
X442484Y52802D01*
X442581Y52804D01*
X446419Y52804D01*
X446516Y52802D01*
X446612Y52796D01*
X446708Y52787D01*
X446804Y52773D01*
X446899Y52756D01*
X446993Y52734D01*
X447086Y52709D01*
X447179Y52681D01*
X447270Y52648D01*
X447359Y52612D01*
X447447Y52572D01*
X447534Y52529D01*
X447619Y52483D01*
X447701Y52433D01*
X447782Y52379D01*
X447860Y52323D01*
X447936Y52263D01*
X448010Y52201D01*
X448081Y52135D01*
X448149Y52067D01*
X448215Y51996D01*
X448277Y51922D01*
X448337Y51846D01*
X448393Y51768D01*
X448447Y51687D01*
X448497Y51605D01*
X448543Y51520D01*
X448586Y51433D01*
X448626Y51345D01*
X448662Y51256D01*
X448695Y51165D01*
X448723Y51072D01*
X448748Y50979D01*
X448770Y50885D01*
X448787Y50790D01*
X448801Y50694D01*
X448810Y50598D01*
X448816Y50502D01*
X448818Y50405D01*
X448818Y48006D01*
X448818Y56975D02*
X440182Y59854D01*
X448818Y62732D01*
X446659Y62013D02*
X446659Y57695D01*
X472299Y43660D02*
X472385Y43658D01*
X472471Y43652D01*
X472557Y43643D01*
X472642Y43629D01*
X472726Y43612D01*
X472810Y43591D01*
X472892Y43566D01*
X472973Y43538D01*
X473053Y43506D01*
X473132Y43470D01*
X473208Y43431D01*
X473283Y43388D01*
X473356Y43343D01*
X473427Y43294D01*
X473495Y43241D01*
X473562Y43186D01*
X473625Y43128D01*
X473686Y43067D01*
X473744Y43004D01*
X473799Y42937D01*
X473852Y42869D01*
X473901Y42798D01*
X473946Y42725D01*
X473989Y42650D01*
X474028Y42574D01*
X474064Y42495D01*
X474096Y42415D01*
X474124Y42334D01*
X474149Y42252D01*
X474170Y42168D01*
X474187Y42084D01*
X474201Y41999D01*
X474210Y41913D01*
X474216Y41827D01*
X474218Y41741D01*
X474216Y41618D01*
X474211Y41495D01*
X474201Y41372D01*
X474188Y41250D01*
X474171Y41128D01*
X474151Y41006D01*
X474127Y40886D01*
X474099Y40766D01*
X474068Y40647D01*
X474032Y40529D01*
X473994Y40412D01*
X473952Y40296D01*
X473906Y40182D01*
X473857Y40069D01*
X473805Y39958D01*
X473749Y39848D01*
X473690Y39740D01*
X473627Y39634D01*
X473562Y39530D01*
X473493Y39427D01*
X473421Y39327D01*
X473346Y39230D01*
X473269Y39134D01*
X473188Y39041D01*
X473105Y38950D01*
X473019Y38862D01*
X467501Y39102D02*
X467415Y39104D01*
X467329Y39110D01*
X467243Y39119D01*
X467158Y39133D01*
X467074Y39150D01*
X466990Y39171D01*
X466908Y39196D01*
X466827Y39224D01*
X466747Y39256D01*
X466668Y39292D01*
X466592Y39331D01*
X466517Y39374D01*
X466444Y39419D01*
X466373Y39468D01*
X466305Y39521D01*
X466238Y39576D01*
X466175Y39634D01*
X466114Y39695D01*
X466056Y39758D01*
X466001Y39825D01*
X465948Y39893D01*
X465899Y39964D01*
X465854Y40037D01*
X465811Y40112D01*
X465772Y40188D01*
X465736Y40267D01*
X465704Y40347D01*
X465676Y40428D01*
X465651Y40510D01*
X465630Y40594D01*
X465613Y40678D01*
X465599Y40763D01*
X465590Y40849D01*
X465584Y40935D01*
X465582Y41021D01*
X465584Y41137D01*
X465589Y41252D01*
X465599Y41368D01*
X465612Y41483D01*
X465628Y41597D01*
X465649Y41711D01*
X465673Y41825D01*
X465701Y41937D01*
X465732Y42048D01*
X465767Y42159D01*
X465805Y42268D01*
X465847Y42376D01*
X465892Y42482D01*
X465941Y42588D01*
X465993Y42691D01*
X466048Y42793D01*
X466107Y42892D01*
X466169Y42990D01*
X466234Y43086D01*
X466302Y43180D01*
X469180Y40062D02*
X469134Y39987D01*
X469084Y39914D01*
X469031Y39844D01*
X468975Y39776D01*
X468916Y39711D01*
X468854Y39648D01*
X468790Y39589D01*
X468722Y39532D01*
X468652Y39478D01*
X468580Y39428D01*
X468506Y39381D01*
X468430Y39337D01*
X468351Y39297D01*
X468271Y39261D01*
X468190Y39228D01*
X468107Y39199D01*
X468022Y39173D01*
X467937Y39151D01*
X467851Y39134D01*
X467764Y39120D01*
X467677Y39110D01*
X467589Y39104D01*
X467501Y39102D01*
X470620Y42701D02*
X470666Y42775D01*
X470716Y42848D01*
X470769Y42918D01*
X470825Y42986D01*
X470884Y43051D01*
X470946Y43114D01*
X471011Y43173D01*
X471078Y43230D01*
X471148Y43284D01*
X471220Y43334D01*
X471294Y43381D01*
X471370Y43425D01*
X471449Y43465D01*
X471529Y43501D01*
X471610Y43534D01*
X471693Y43564D01*
X471778Y43589D01*
X471863Y43611D01*
X471949Y43628D01*
X472036Y43642D01*
X472123Y43652D01*
X472211Y43658D01*
X472299Y43660D01*
X470620Y42700D02*
X469180Y40061D01*
X474218Y49582D02*
X474218Y51501D01*
X474218Y49582D02*
X474216Y49496D01*
X474210Y49410D01*
X474201Y49324D01*
X474187Y49239D01*
X474170Y49155D01*
X474149Y49071D01*
X474124Y48989D01*
X474096Y48908D01*
X474064Y48828D01*
X474028Y48749D01*
X473989Y48673D01*
X473946Y48598D01*
X473901Y48525D01*
X473852Y48454D01*
X473799Y48386D01*
X473744Y48319D01*
X473686Y48256D01*
X473625Y48195D01*
X473562Y48137D01*
X473495Y48082D01*
X473427Y48030D01*
X473356Y47980D01*
X473283Y47935D01*
X473208Y47892D01*
X473132Y47853D01*
X473053Y47817D01*
X472973Y47785D01*
X472892Y47757D01*
X472810Y47732D01*
X472726Y47711D01*
X472642Y47694D01*
X472557Y47680D01*
X472471Y47671D01*
X472385Y47665D01*
X472299Y47663D01*
X467501Y47663D01*
X467415Y47665D01*
X467329Y47671D01*
X467243Y47680D01*
X467158Y47694D01*
X467074Y47711D01*
X466990Y47732D01*
X466908Y47757D01*
X466827Y47785D01*
X466747Y47817D01*
X466668Y47853D01*
X466592Y47892D01*
X466517Y47935D01*
X466444Y47980D01*
X466373Y48029D01*
X466305Y48082D01*
X466238Y48137D01*
X466175Y48195D01*
X466114Y48256D01*
X466056Y48319D01*
X466001Y48386D01*
X465949Y48454D01*
X465899Y48525D01*
X465854Y48598D01*
X465811Y48673D01*
X465772Y48749D01*
X465736Y48828D01*
X465704Y48908D01*
X465676Y48989D01*
X465651Y49071D01*
X465630Y49155D01*
X465613Y49239D01*
X465599Y49324D01*
X465590Y49410D01*
X465584Y49496D01*
X465582Y49582D01*
X465582Y51501D01*
X465582Y55652D02*
X474218Y55652D01*
X474218Y59490D01*
X359918Y457792D02*
X351282Y457792D01*
X359918Y456833D02*
X359918Y458752D01*
X351282Y458752D02*
X351282Y456833D01*
X353681Y462709D02*
X357519Y462709D01*
X353681Y462708D02*
X353584Y462710D01*
X353488Y462716D01*
X353392Y462725D01*
X353296Y462739D01*
X353201Y462756D01*
X353107Y462778D01*
X353014Y462803D01*
X352921Y462831D01*
X352830Y462864D01*
X352741Y462900D01*
X352653Y462940D01*
X352566Y462983D01*
X352482Y463029D01*
X352399Y463079D01*
X352318Y463133D01*
X352240Y463189D01*
X352164Y463249D01*
X352090Y463311D01*
X352019Y463377D01*
X351951Y463445D01*
X351885Y463516D01*
X351823Y463590D01*
X351763Y463666D01*
X351707Y463744D01*
X351653Y463825D01*
X351603Y463908D01*
X351557Y463992D01*
X351514Y464079D01*
X351474Y464167D01*
X351438Y464256D01*
X351405Y464347D01*
X351377Y464440D01*
X351352Y464533D01*
X351330Y464627D01*
X351313Y464722D01*
X351299Y464818D01*
X351290Y464914D01*
X351284Y465010D01*
X351282Y465107D01*
X351284Y465204D01*
X351290Y465300D01*
X351299Y465396D01*
X351313Y465492D01*
X351330Y465587D01*
X351352Y465681D01*
X351377Y465774D01*
X351405Y465867D01*
X351438Y465958D01*
X351474Y466047D01*
X351514Y466135D01*
X351557Y466222D01*
X351603Y466307D01*
X351653Y466389D01*
X351707Y466470D01*
X351763Y466548D01*
X351823Y466624D01*
X351885Y466698D01*
X351951Y466769D01*
X352019Y466837D01*
X352090Y466903D01*
X352164Y466965D01*
X352240Y467025D01*
X352318Y467081D01*
X352399Y467135D01*
X352482Y467185D01*
X352566Y467231D01*
X352653Y467274D01*
X352741Y467314D01*
X352830Y467350D01*
X352921Y467383D01*
X353014Y467411D01*
X353107Y467436D01*
X353201Y467458D01*
X353296Y467475D01*
X353392Y467489D01*
X353488Y467498D01*
X353584Y467504D01*
X353681Y467506D01*
X357519Y467506D01*
X357616Y467504D01*
X357712Y467498D01*
X357808Y467489D01*
X357904Y467475D01*
X357999Y467458D01*
X358093Y467436D01*
X358186Y467411D01*
X358279Y467383D01*
X358370Y467350D01*
X358459Y467314D01*
X358547Y467274D01*
X358634Y467231D01*
X358719Y467185D01*
X358801Y467135D01*
X358882Y467081D01*
X358960Y467025D01*
X359036Y466965D01*
X359110Y466903D01*
X359181Y466837D01*
X359249Y466769D01*
X359315Y466698D01*
X359377Y466624D01*
X359437Y466548D01*
X359493Y466470D01*
X359547Y466389D01*
X359597Y466307D01*
X359643Y466222D01*
X359686Y466135D01*
X359726Y466047D01*
X359762Y465958D01*
X359795Y465867D01*
X359823Y465774D01*
X359848Y465681D01*
X359870Y465587D01*
X359887Y465492D01*
X359901Y465396D01*
X359910Y465300D01*
X359916Y465204D01*
X359918Y465107D01*
X359916Y465010D01*
X359910Y464914D01*
X359901Y464818D01*
X359887Y464722D01*
X359870Y464627D01*
X359848Y464533D01*
X359823Y464440D01*
X359795Y464347D01*
X359762Y464256D01*
X359726Y464167D01*
X359686Y464079D01*
X359643Y463992D01*
X359597Y463908D01*
X359547Y463825D01*
X359493Y463744D01*
X359437Y463666D01*
X359377Y463590D01*
X359315Y463516D01*
X359249Y463445D01*
X359181Y463377D01*
X359110Y463311D01*
X359036Y463249D01*
X358960Y463189D01*
X358882Y463133D01*
X358801Y463079D01*
X358719Y463029D01*
X358634Y462983D01*
X358547Y462940D01*
X358459Y462900D01*
X358370Y462864D01*
X358279Y462831D01*
X358186Y462803D01*
X358093Y462778D01*
X357999Y462756D01*
X357904Y462739D01*
X357808Y462725D01*
X357712Y462716D01*
X357616Y462710D01*
X357519Y462708D01*
X359918Y472242D02*
X351282Y472242D01*
X351282Y474641D01*
X351284Y474738D01*
X351290Y474834D01*
X351299Y474930D01*
X351313Y475026D01*
X351330Y475121D01*
X351352Y475215D01*
X351377Y475308D01*
X351405Y475401D01*
X351438Y475492D01*
X351474Y475581D01*
X351514Y475669D01*
X351557Y475756D01*
X351603Y475841D01*
X351653Y475923D01*
X351707Y476004D01*
X351763Y476082D01*
X351823Y476158D01*
X351885Y476232D01*
X351951Y476303D01*
X352019Y476371D01*
X352090Y476437D01*
X352164Y476499D01*
X352240Y476559D01*
X352318Y476615D01*
X352399Y476669D01*
X352482Y476719D01*
X352566Y476765D01*
X352653Y476808D01*
X352741Y476848D01*
X352830Y476884D01*
X352921Y476917D01*
X353014Y476945D01*
X353107Y476970D01*
X353201Y476992D01*
X353296Y477009D01*
X353392Y477023D01*
X353488Y477032D01*
X353584Y477038D01*
X353681Y477040D01*
X353778Y477038D01*
X353874Y477032D01*
X353970Y477023D01*
X354066Y477009D01*
X354161Y476992D01*
X354255Y476970D01*
X354348Y476945D01*
X354441Y476917D01*
X354532Y476884D01*
X354621Y476848D01*
X354709Y476808D01*
X354796Y476765D01*
X354881Y476719D01*
X354963Y476669D01*
X355044Y476615D01*
X355122Y476559D01*
X355198Y476499D01*
X355272Y476437D01*
X355343Y476371D01*
X355411Y476303D01*
X355477Y476232D01*
X355539Y476158D01*
X355599Y476082D01*
X355655Y476004D01*
X355709Y475923D01*
X355759Y475841D01*
X355805Y475756D01*
X355848Y475669D01*
X355888Y475581D01*
X355924Y475492D01*
X355957Y475401D01*
X355985Y475308D01*
X356010Y475215D01*
X356032Y475121D01*
X356049Y475026D01*
X356063Y474930D01*
X356072Y474834D01*
X356078Y474738D01*
X356080Y474641D01*
X356080Y472242D01*
X356080Y475121D02*
X359918Y477040D01*
X359918Y481632D02*
X359918Y485470D01*
X359918Y481632D02*
X351282Y481632D01*
X351282Y485470D01*
X355120Y484511D02*
X355120Y481632D01*
X351282Y489557D02*
X359918Y489557D01*
X351282Y489557D02*
X351282Y493395D01*
X355120Y493395D02*
X355120Y489557D01*
D11*
X-31256Y264122D02*
X-31256Y262781D01*
X-31257Y264122D02*
X-31255Y264193D01*
X-31249Y264265D01*
X-31240Y264335D01*
X-31227Y264405D01*
X-31210Y264475D01*
X-31189Y264543D01*
X-31165Y264610D01*
X-31137Y264676D01*
X-31106Y264740D01*
X-31071Y264803D01*
X-31033Y264863D01*
X-30992Y264922D01*
X-30948Y264978D01*
X-30901Y265032D01*
X-30852Y265083D01*
X-30799Y265131D01*
X-30744Y265177D01*
X-30687Y265219D01*
X-30627Y265259D01*
X-30566Y265295D01*
X-30502Y265328D01*
X-30437Y265357D01*
X-30371Y265383D01*
X-30303Y265406D01*
X-30234Y265425D01*
X-30164Y265440D01*
X-30094Y265451D01*
X-30023Y265459D01*
X-29952Y265463D01*
X-29880Y265463D01*
X-29809Y265459D01*
X-29738Y265451D01*
X-29668Y265440D01*
X-29598Y265425D01*
X-29529Y265406D01*
X-29461Y265383D01*
X-29395Y265357D01*
X-29330Y265328D01*
X-29266Y265295D01*
X-29205Y265259D01*
X-29145Y265219D01*
X-29088Y265177D01*
X-29033Y265131D01*
X-28980Y265083D01*
X-28931Y265032D01*
X-28884Y264978D01*
X-28840Y264922D01*
X-28799Y264863D01*
X-28761Y264803D01*
X-28726Y264740D01*
X-28695Y264676D01*
X-28667Y264610D01*
X-28643Y264543D01*
X-28622Y264475D01*
X-28605Y264405D01*
X-28592Y264335D01*
X-28583Y264265D01*
X-28577Y264193D01*
X-28575Y264122D01*
X-28575Y262781D01*
X-33401Y262781D01*
X-33401Y264122D01*
X-33399Y264187D01*
X-33393Y264251D01*
X-33383Y264315D01*
X-33370Y264379D01*
X-33352Y264441D01*
X-33331Y264502D01*
X-33307Y264562D01*
X-33278Y264620D01*
X-33246Y264677D01*
X-33211Y264731D01*
X-33173Y264783D01*
X-33131Y264833D01*
X-33087Y264880D01*
X-33040Y264924D01*
X-32990Y264966D01*
X-32938Y265004D01*
X-32884Y265039D01*
X-32827Y265071D01*
X-32769Y265100D01*
X-32709Y265124D01*
X-32648Y265145D01*
X-32586Y265163D01*
X-32522Y265176D01*
X-32458Y265186D01*
X-32394Y265192D01*
X-32329Y265194D01*
X-32264Y265192D01*
X-32200Y265186D01*
X-32136Y265176D01*
X-32072Y265163D01*
X-32010Y265145D01*
X-31949Y265124D01*
X-31889Y265100D01*
X-31831Y265071D01*
X-31774Y265039D01*
X-31720Y265004D01*
X-31668Y264966D01*
X-31618Y264924D01*
X-31571Y264880D01*
X-31527Y264833D01*
X-31485Y264783D01*
X-31447Y264731D01*
X-31412Y264677D01*
X-31380Y264620D01*
X-31351Y264562D01*
X-31327Y264502D01*
X-31306Y264441D01*
X-31288Y264379D01*
X-31275Y264315D01*
X-31265Y264251D01*
X-31259Y264187D01*
X-31257Y264122D01*
X-32329Y267938D02*
X-33401Y269279D01*
X-28575Y269279D01*
X-28575Y270619D02*
X-28575Y267938D01*
X139700Y342900D02*
X292100Y342900D01*
X292100Y215900D01*
X139700Y215900D01*
X139700Y342900D01*
D10*
X280162Y299682D02*
X286766Y299682D01*
X286766Y302617D01*
X286766Y307588D02*
X280162Y305387D01*
X280162Y309790D02*
X286766Y307588D01*
X281630Y313069D02*
X280162Y314904D01*
X286766Y314904D01*
X286766Y316738D02*
X286766Y313069D01*
X261366Y299682D02*
X254762Y299682D01*
X261366Y299682D02*
X261366Y302617D01*
X261366Y307588D02*
X254762Y305387D01*
X254762Y309790D02*
X261366Y307588D01*
X254762Y315087D02*
X254764Y315166D01*
X254769Y315244D01*
X254779Y315322D01*
X254792Y315399D01*
X254809Y315476D01*
X254829Y315552D01*
X254853Y315627D01*
X254880Y315701D01*
X254911Y315773D01*
X254946Y315844D01*
X254983Y315913D01*
X255024Y315980D01*
X255068Y316045D01*
X255115Y316108D01*
X255165Y316168D01*
X255218Y316226D01*
X255274Y316282D01*
X255332Y316335D01*
X255392Y316385D01*
X255455Y316432D01*
X255520Y316476D01*
X255588Y316517D01*
X255656Y316554D01*
X255727Y316589D01*
X255799Y316620D01*
X255873Y316647D01*
X255948Y316671D01*
X256024Y316691D01*
X256101Y316708D01*
X256178Y316721D01*
X256256Y316731D01*
X256334Y316736D01*
X256413Y316738D01*
X254762Y315087D02*
X254764Y314998D01*
X254769Y314909D01*
X254779Y314821D01*
X254792Y314733D01*
X254808Y314646D01*
X254829Y314559D01*
X254853Y314474D01*
X254880Y314389D01*
X254911Y314306D01*
X254946Y314224D01*
X254984Y314143D01*
X255025Y314064D01*
X255069Y313988D01*
X255117Y313912D01*
X255168Y313839D01*
X255221Y313769D01*
X255278Y313700D01*
X255338Y313634D01*
X255400Y313571D01*
X255465Y313510D01*
X255532Y313452D01*
X255602Y313397D01*
X255674Y313344D01*
X255748Y313295D01*
X255824Y313249D01*
X255902Y313207D01*
X255982Y313167D01*
X256063Y313131D01*
X256146Y313098D01*
X256230Y313069D01*
X257697Y316188D02*
X257641Y316244D01*
X257582Y316298D01*
X257521Y316349D01*
X257457Y316398D01*
X257392Y316443D01*
X257324Y316486D01*
X257255Y316525D01*
X257184Y316562D01*
X257111Y316595D01*
X257037Y316624D01*
X256962Y316651D01*
X256886Y316674D01*
X256808Y316693D01*
X256730Y316709D01*
X256652Y316722D01*
X256572Y316731D01*
X256493Y316736D01*
X256413Y316738D01*
X257697Y316188D02*
X261366Y313069D01*
X261366Y316738D01*
X280162Y241045D02*
X286766Y241045D01*
X283097Y241045D02*
X283097Y244714D01*
X280162Y244714D02*
X286766Y244714D01*
X286766Y250438D02*
X280162Y248237D01*
X280162Y252640D02*
X286766Y250438D01*
X281630Y255919D02*
X280162Y257754D01*
X286766Y257754D01*
X286766Y259588D02*
X286766Y255919D01*
X261366Y241045D02*
X254762Y241045D01*
X257697Y241045D02*
X257697Y244714D01*
X254762Y244714D02*
X261366Y244714D01*
X261366Y250438D02*
X254762Y248237D01*
X254762Y252640D02*
X261366Y250438D01*
X254762Y257937D02*
X254764Y258016D01*
X254769Y258094D01*
X254779Y258172D01*
X254792Y258249D01*
X254809Y258326D01*
X254829Y258402D01*
X254853Y258477D01*
X254880Y258551D01*
X254911Y258623D01*
X254946Y258694D01*
X254983Y258763D01*
X255024Y258830D01*
X255068Y258895D01*
X255115Y258958D01*
X255165Y259018D01*
X255218Y259076D01*
X255274Y259132D01*
X255332Y259185D01*
X255392Y259235D01*
X255455Y259282D01*
X255520Y259326D01*
X255588Y259367D01*
X255656Y259404D01*
X255727Y259439D01*
X255799Y259470D01*
X255873Y259497D01*
X255948Y259521D01*
X256024Y259541D01*
X256101Y259558D01*
X256178Y259571D01*
X256256Y259581D01*
X256334Y259586D01*
X256413Y259588D01*
X254762Y257937D02*
X254764Y257848D01*
X254769Y257759D01*
X254779Y257671D01*
X254792Y257583D01*
X254808Y257496D01*
X254829Y257409D01*
X254853Y257324D01*
X254880Y257239D01*
X254911Y257156D01*
X254946Y257074D01*
X254984Y256993D01*
X255025Y256914D01*
X255069Y256838D01*
X255117Y256762D01*
X255168Y256689D01*
X255221Y256619D01*
X255278Y256550D01*
X255338Y256484D01*
X255400Y256421D01*
X255465Y256360D01*
X255532Y256302D01*
X255602Y256247D01*
X255674Y256194D01*
X255748Y256145D01*
X255824Y256099D01*
X255902Y256057D01*
X255982Y256017D01*
X256063Y255981D01*
X256146Y255948D01*
X256230Y255919D01*
X257697Y259038D02*
X257641Y259094D01*
X257582Y259148D01*
X257521Y259199D01*
X257457Y259248D01*
X257392Y259293D01*
X257324Y259336D01*
X257255Y259375D01*
X257184Y259412D01*
X257111Y259445D01*
X257037Y259474D01*
X256962Y259501D01*
X256886Y259524D01*
X256808Y259543D01*
X256730Y259559D01*
X256652Y259572D01*
X256572Y259581D01*
X256493Y259586D01*
X256413Y259588D01*
X257697Y259038D02*
X261366Y255919D01*
X261366Y259588D01*
X235966Y306630D02*
X229362Y306630D01*
X235966Y306630D02*
X235966Y309566D01*
X235966Y314537D02*
X229362Y312335D01*
X229362Y316738D02*
X235966Y314537D01*
X206897Y301132D02*
X206897Y300032D01*
X206897Y301132D02*
X210566Y301132D01*
X210566Y298931D01*
X210564Y298857D01*
X210558Y298782D01*
X210549Y298709D01*
X210536Y298635D01*
X210519Y298563D01*
X210499Y298492D01*
X210475Y298421D01*
X210447Y298352D01*
X210416Y298285D01*
X210382Y298219D01*
X210344Y298154D01*
X210303Y298092D01*
X210259Y298032D01*
X210212Y297975D01*
X210162Y297920D01*
X210109Y297867D01*
X210054Y297817D01*
X209997Y297770D01*
X209937Y297726D01*
X209875Y297685D01*
X209810Y297647D01*
X209745Y297613D01*
X209677Y297582D01*
X209608Y297554D01*
X209537Y297530D01*
X209466Y297510D01*
X209394Y297493D01*
X209320Y297480D01*
X209247Y297471D01*
X209172Y297465D01*
X209098Y297463D01*
X205430Y297463D01*
X205356Y297465D01*
X205281Y297471D01*
X205208Y297480D01*
X205134Y297493D01*
X205062Y297510D01*
X204991Y297530D01*
X204920Y297554D01*
X204851Y297582D01*
X204784Y297613D01*
X204718Y297647D01*
X204653Y297685D01*
X204591Y297726D01*
X204531Y297770D01*
X204474Y297817D01*
X204419Y297867D01*
X204366Y297920D01*
X204316Y297975D01*
X204269Y298032D01*
X204225Y298092D01*
X204184Y298154D01*
X204146Y298219D01*
X204112Y298284D01*
X204081Y298352D01*
X204053Y298421D01*
X204029Y298492D01*
X204009Y298563D01*
X203992Y298635D01*
X203979Y298709D01*
X203970Y298782D01*
X203964Y298857D01*
X203962Y298931D01*
X203962Y301132D01*
X203962Y305266D02*
X210566Y305266D01*
X210566Y308935D02*
X203962Y305266D01*
X203962Y308935D02*
X210566Y308935D01*
X210566Y313069D02*
X203962Y313069D01*
X203962Y314904D01*
X203964Y314989D01*
X203970Y315073D01*
X203980Y315157D01*
X203993Y315241D01*
X204011Y315324D01*
X204032Y315406D01*
X204057Y315487D01*
X204086Y315567D01*
X204118Y315645D01*
X204154Y315721D01*
X204194Y315796D01*
X204237Y315869D01*
X204283Y315940D01*
X204332Y316009D01*
X204385Y316076D01*
X204441Y316140D01*
X204499Y316201D01*
X204560Y316259D01*
X204624Y316315D01*
X204691Y316368D01*
X204760Y316417D01*
X204831Y316463D01*
X204904Y316506D01*
X204979Y316546D01*
X205055Y316582D01*
X205134Y316614D01*
X205213Y316643D01*
X205294Y316668D01*
X205376Y316689D01*
X205459Y316707D01*
X205543Y316720D01*
X205627Y316730D01*
X205711Y316736D01*
X205796Y316738D01*
X208732Y316738D01*
X208817Y316736D01*
X208901Y316730D01*
X208985Y316720D01*
X209069Y316707D01*
X209152Y316689D01*
X209234Y316668D01*
X209315Y316643D01*
X209395Y316614D01*
X209473Y316582D01*
X209549Y316546D01*
X209624Y316506D01*
X209697Y316463D01*
X209768Y316417D01*
X209837Y316368D01*
X209904Y316315D01*
X209968Y316259D01*
X210029Y316201D01*
X210087Y316140D01*
X210143Y316076D01*
X210196Y316009D01*
X210245Y315940D01*
X210291Y315869D01*
X210334Y315796D01*
X210374Y315721D01*
X210410Y315645D01*
X210442Y315567D01*
X210471Y315487D01*
X210496Y315406D01*
X210517Y315324D01*
X210535Y315241D01*
X210548Y315157D01*
X210558Y315073D01*
X210564Y314989D01*
X210566Y314904D01*
X210566Y313069D01*
X185166Y299682D02*
X178562Y299682D01*
X185166Y299682D02*
X185166Y302617D01*
X185166Y307588D02*
X178562Y305387D01*
X178562Y309790D02*
X185166Y307588D01*
X185166Y313069D02*
X185166Y314904D01*
X185164Y314989D01*
X185158Y315073D01*
X185148Y315157D01*
X185135Y315241D01*
X185117Y315324D01*
X185096Y315406D01*
X185071Y315487D01*
X185042Y315567D01*
X185010Y315645D01*
X184974Y315721D01*
X184934Y315796D01*
X184891Y315869D01*
X184845Y315940D01*
X184796Y316009D01*
X184743Y316076D01*
X184687Y316140D01*
X184629Y316201D01*
X184568Y316259D01*
X184504Y316315D01*
X184437Y316368D01*
X184368Y316417D01*
X184297Y316463D01*
X184224Y316506D01*
X184149Y316546D01*
X184073Y316582D01*
X183995Y316614D01*
X183915Y316643D01*
X183834Y316668D01*
X183752Y316689D01*
X183669Y316707D01*
X183585Y316720D01*
X183501Y316730D01*
X183417Y316736D01*
X183332Y316738D01*
X183247Y316736D01*
X183163Y316730D01*
X183079Y316720D01*
X182995Y316707D01*
X182912Y316689D01*
X182830Y316668D01*
X182749Y316643D01*
X182669Y316614D01*
X182591Y316582D01*
X182515Y316546D01*
X182440Y316506D01*
X182367Y316463D01*
X182296Y316417D01*
X182227Y316368D01*
X182160Y316315D01*
X182096Y316259D01*
X182035Y316201D01*
X181977Y316140D01*
X181921Y316076D01*
X181868Y316009D01*
X181819Y315940D01*
X181773Y315869D01*
X181730Y315796D01*
X181690Y315721D01*
X181654Y315645D01*
X181622Y315567D01*
X181593Y315487D01*
X181568Y315406D01*
X181547Y315324D01*
X181529Y315241D01*
X181516Y315157D01*
X181506Y315073D01*
X181500Y314989D01*
X181498Y314904D01*
X178562Y315270D02*
X178562Y313069D01*
X178562Y315270D02*
X178564Y315346D01*
X178570Y315421D01*
X178579Y315496D01*
X178593Y315570D01*
X178610Y315644D01*
X178632Y315716D01*
X178656Y315788D01*
X178685Y315858D01*
X178717Y315926D01*
X178752Y315993D01*
X178791Y316058D01*
X178834Y316121D01*
X178879Y316181D01*
X178927Y316239D01*
X178979Y316295D01*
X179033Y316347D01*
X179090Y316397D01*
X179149Y316444D01*
X179210Y316488D01*
X179274Y316529D01*
X179340Y316566D01*
X179408Y316600D01*
X179477Y316630D01*
X179548Y316657D01*
X179620Y316680D01*
X179693Y316699D01*
X179767Y316714D01*
X179842Y316726D01*
X179917Y316734D01*
X179992Y316738D01*
X180068Y316738D01*
X180143Y316734D01*
X180218Y316726D01*
X180293Y316714D01*
X180367Y316699D01*
X180440Y316680D01*
X180512Y316657D01*
X180583Y316630D01*
X180652Y316600D01*
X180720Y316566D01*
X180786Y316529D01*
X180850Y316488D01*
X180911Y316444D01*
X180970Y316397D01*
X181027Y316347D01*
X181081Y316295D01*
X181133Y316239D01*
X181181Y316181D01*
X181226Y316121D01*
X181269Y316058D01*
X181308Y315993D01*
X181343Y315926D01*
X181375Y315858D01*
X181404Y315788D01*
X181428Y315716D01*
X181450Y315644D01*
X181467Y315570D01*
X181481Y315496D01*
X181490Y315421D01*
X181496Y315346D01*
X181498Y315270D01*
X181497Y315270D02*
X181497Y313803D01*
X159766Y299682D02*
X153162Y299682D01*
X159766Y299682D02*
X159766Y302617D01*
X159766Y307588D02*
X153162Y305387D01*
X153162Y309790D02*
X159766Y307588D01*
X158298Y313069D02*
X153162Y314537D01*
X158298Y313069D02*
X158298Y316738D01*
X156831Y315637D02*
X159766Y315637D01*
X229362Y241643D02*
X235966Y241643D01*
X232297Y241643D02*
X232297Y245312D01*
X229362Y245312D02*
X235966Y245312D01*
X235966Y251037D02*
X229362Y248835D01*
X229362Y253238D02*
X235966Y251037D01*
X206897Y243982D02*
X206897Y242882D01*
X206897Y243982D02*
X210566Y243982D01*
X210566Y241781D01*
X210564Y241707D01*
X210558Y241632D01*
X210549Y241559D01*
X210536Y241485D01*
X210519Y241413D01*
X210499Y241342D01*
X210475Y241271D01*
X210447Y241202D01*
X210416Y241135D01*
X210382Y241069D01*
X210344Y241004D01*
X210303Y240942D01*
X210259Y240882D01*
X210212Y240825D01*
X210162Y240770D01*
X210109Y240717D01*
X210054Y240667D01*
X209997Y240620D01*
X209937Y240576D01*
X209875Y240535D01*
X209810Y240497D01*
X209745Y240463D01*
X209677Y240432D01*
X209608Y240404D01*
X209537Y240380D01*
X209466Y240360D01*
X209394Y240343D01*
X209320Y240330D01*
X209247Y240321D01*
X209172Y240315D01*
X209098Y240313D01*
X205430Y240313D01*
X205356Y240315D01*
X205281Y240321D01*
X205208Y240330D01*
X205134Y240343D01*
X205062Y240360D01*
X204991Y240380D01*
X204920Y240404D01*
X204851Y240432D01*
X204784Y240463D01*
X204718Y240497D01*
X204653Y240535D01*
X204591Y240576D01*
X204531Y240620D01*
X204474Y240667D01*
X204419Y240717D01*
X204366Y240770D01*
X204316Y240825D01*
X204269Y240882D01*
X204225Y240942D01*
X204184Y241004D01*
X204146Y241069D01*
X204112Y241134D01*
X204081Y241202D01*
X204053Y241271D01*
X204029Y241342D01*
X204009Y241413D01*
X203992Y241485D01*
X203979Y241559D01*
X203970Y241632D01*
X203964Y241707D01*
X203962Y241781D01*
X203962Y243982D01*
X203962Y248116D02*
X210566Y248116D01*
X210566Y251785D02*
X203962Y248116D01*
X203962Y251785D02*
X210566Y251785D01*
X210566Y255919D02*
X203962Y255919D01*
X203962Y257754D01*
X203964Y257839D01*
X203970Y257923D01*
X203980Y258007D01*
X203993Y258091D01*
X204011Y258174D01*
X204032Y258256D01*
X204057Y258337D01*
X204086Y258417D01*
X204118Y258495D01*
X204154Y258571D01*
X204194Y258646D01*
X204237Y258719D01*
X204283Y258790D01*
X204332Y258859D01*
X204385Y258926D01*
X204441Y258990D01*
X204499Y259051D01*
X204560Y259109D01*
X204624Y259165D01*
X204691Y259218D01*
X204760Y259267D01*
X204831Y259313D01*
X204904Y259356D01*
X204979Y259396D01*
X205055Y259432D01*
X205134Y259464D01*
X205213Y259493D01*
X205294Y259518D01*
X205376Y259539D01*
X205459Y259557D01*
X205543Y259570D01*
X205627Y259580D01*
X205711Y259586D01*
X205796Y259588D01*
X208732Y259588D01*
X208817Y259586D01*
X208901Y259580D01*
X208985Y259570D01*
X209069Y259557D01*
X209152Y259539D01*
X209234Y259518D01*
X209315Y259493D01*
X209395Y259464D01*
X209473Y259432D01*
X209549Y259396D01*
X209624Y259356D01*
X209697Y259313D01*
X209768Y259267D01*
X209837Y259218D01*
X209904Y259165D01*
X209968Y259109D01*
X210029Y259051D01*
X210087Y258990D01*
X210143Y258926D01*
X210196Y258859D01*
X210245Y258790D01*
X210291Y258719D01*
X210334Y258646D01*
X210374Y258571D01*
X210410Y258495D01*
X210442Y258417D01*
X210471Y258337D01*
X210496Y258256D01*
X210517Y258174D01*
X210535Y258091D01*
X210548Y258007D01*
X210558Y257923D01*
X210564Y257839D01*
X210566Y257754D01*
X210566Y255919D01*
X185166Y241045D02*
X178562Y241045D01*
X181497Y241045D02*
X181497Y244714D01*
X178562Y244714D02*
X185166Y244714D01*
X185166Y250438D02*
X178562Y248237D01*
X178562Y252640D02*
X185166Y250438D01*
X185166Y255919D02*
X185166Y257754D01*
X185164Y257839D01*
X185158Y257923D01*
X185148Y258007D01*
X185135Y258091D01*
X185117Y258174D01*
X185096Y258256D01*
X185071Y258337D01*
X185042Y258417D01*
X185010Y258495D01*
X184974Y258571D01*
X184934Y258646D01*
X184891Y258719D01*
X184845Y258790D01*
X184796Y258859D01*
X184743Y258926D01*
X184687Y258990D01*
X184629Y259051D01*
X184568Y259109D01*
X184504Y259165D01*
X184437Y259218D01*
X184368Y259267D01*
X184297Y259313D01*
X184224Y259356D01*
X184149Y259396D01*
X184073Y259432D01*
X183995Y259464D01*
X183915Y259493D01*
X183834Y259518D01*
X183752Y259539D01*
X183669Y259557D01*
X183585Y259570D01*
X183501Y259580D01*
X183417Y259586D01*
X183332Y259588D01*
X183247Y259586D01*
X183163Y259580D01*
X183079Y259570D01*
X182995Y259557D01*
X182912Y259539D01*
X182830Y259518D01*
X182749Y259493D01*
X182669Y259464D01*
X182591Y259432D01*
X182515Y259396D01*
X182440Y259356D01*
X182367Y259313D01*
X182296Y259267D01*
X182227Y259218D01*
X182160Y259165D01*
X182096Y259109D01*
X182035Y259051D01*
X181977Y258990D01*
X181921Y258926D01*
X181868Y258859D01*
X181819Y258790D01*
X181773Y258719D01*
X181730Y258646D01*
X181690Y258571D01*
X181654Y258495D01*
X181622Y258417D01*
X181593Y258337D01*
X181568Y258256D01*
X181547Y258174D01*
X181529Y258091D01*
X181516Y258007D01*
X181506Y257923D01*
X181500Y257839D01*
X181498Y257754D01*
X178562Y258120D02*
X178562Y255919D01*
X178562Y258120D02*
X178564Y258196D01*
X178570Y258271D01*
X178579Y258346D01*
X178593Y258420D01*
X178610Y258494D01*
X178632Y258566D01*
X178656Y258638D01*
X178685Y258708D01*
X178717Y258776D01*
X178752Y258843D01*
X178791Y258908D01*
X178834Y258971D01*
X178879Y259031D01*
X178927Y259089D01*
X178979Y259145D01*
X179033Y259197D01*
X179090Y259247D01*
X179149Y259294D01*
X179210Y259338D01*
X179274Y259379D01*
X179340Y259416D01*
X179408Y259450D01*
X179477Y259480D01*
X179548Y259507D01*
X179620Y259530D01*
X179693Y259549D01*
X179767Y259564D01*
X179842Y259576D01*
X179917Y259584D01*
X179992Y259588D01*
X180068Y259588D01*
X180143Y259584D01*
X180218Y259576D01*
X180293Y259564D01*
X180367Y259549D01*
X180440Y259530D01*
X180512Y259507D01*
X180583Y259480D01*
X180652Y259450D01*
X180720Y259416D01*
X180786Y259379D01*
X180850Y259338D01*
X180911Y259294D01*
X180970Y259247D01*
X181027Y259197D01*
X181081Y259145D01*
X181133Y259089D01*
X181181Y259031D01*
X181226Y258971D01*
X181269Y258908D01*
X181308Y258843D01*
X181343Y258776D01*
X181375Y258708D01*
X181404Y258638D01*
X181428Y258566D01*
X181450Y258494D01*
X181467Y258420D01*
X181481Y258346D01*
X181490Y258271D01*
X181496Y258196D01*
X181498Y258120D01*
X181497Y258120D02*
X181497Y256653D01*
X159766Y241045D02*
X153162Y241045D01*
X156097Y241045D02*
X156097Y244714D01*
X153162Y244714D02*
X159766Y244714D01*
X159766Y250438D02*
X153162Y248237D01*
X153162Y252640D02*
X159766Y250438D01*
X158298Y255919D02*
X153162Y257387D01*
X158298Y255919D02*
X158298Y259588D01*
X156831Y258487D02*
X159766Y258487D01*
D11*
X297420Y275481D02*
X297420Y276821D01*
X297419Y276821D02*
X297421Y276892D01*
X297427Y276964D01*
X297436Y277034D01*
X297449Y277104D01*
X297466Y277174D01*
X297487Y277242D01*
X297511Y277309D01*
X297539Y277375D01*
X297570Y277439D01*
X297605Y277502D01*
X297643Y277562D01*
X297684Y277621D01*
X297728Y277677D01*
X297775Y277731D01*
X297824Y277782D01*
X297877Y277830D01*
X297932Y277876D01*
X297989Y277918D01*
X298049Y277958D01*
X298110Y277994D01*
X298174Y278027D01*
X298239Y278056D01*
X298305Y278082D01*
X298373Y278105D01*
X298442Y278124D01*
X298512Y278139D01*
X298582Y278150D01*
X298653Y278158D01*
X298724Y278162D01*
X298796Y278162D01*
X298867Y278158D01*
X298938Y278150D01*
X299008Y278139D01*
X299078Y278124D01*
X299147Y278105D01*
X299215Y278082D01*
X299281Y278056D01*
X299346Y278027D01*
X299410Y277994D01*
X299471Y277958D01*
X299531Y277918D01*
X299588Y277876D01*
X299643Y277830D01*
X299696Y277782D01*
X299745Y277731D01*
X299792Y277677D01*
X299836Y277621D01*
X299877Y277562D01*
X299915Y277502D01*
X299950Y277439D01*
X299981Y277375D01*
X300009Y277309D01*
X300033Y277242D01*
X300054Y277174D01*
X300071Y277104D01*
X300084Y277034D01*
X300093Y276964D01*
X300099Y276892D01*
X300101Y276821D01*
X300101Y275481D01*
X295275Y275481D01*
X295275Y276821D01*
X295277Y276886D01*
X295283Y276950D01*
X295293Y277014D01*
X295306Y277078D01*
X295324Y277140D01*
X295345Y277201D01*
X295369Y277261D01*
X295398Y277319D01*
X295430Y277376D01*
X295465Y277430D01*
X295503Y277482D01*
X295545Y277532D01*
X295589Y277579D01*
X295636Y277623D01*
X295686Y277665D01*
X295738Y277703D01*
X295792Y277738D01*
X295849Y277770D01*
X295907Y277799D01*
X295967Y277823D01*
X296028Y277844D01*
X296090Y277862D01*
X296154Y277875D01*
X296218Y277885D01*
X296282Y277891D01*
X296347Y277893D01*
X296412Y277891D01*
X296476Y277885D01*
X296540Y277875D01*
X296604Y277862D01*
X296666Y277844D01*
X296727Y277823D01*
X296787Y277799D01*
X296845Y277770D01*
X296902Y277738D01*
X296956Y277703D01*
X297008Y277665D01*
X297058Y277623D01*
X297105Y277579D01*
X297149Y277532D01*
X297191Y277482D01*
X297229Y277430D01*
X297264Y277376D01*
X297296Y277319D01*
X297325Y277261D01*
X297349Y277201D01*
X297370Y277140D01*
X297388Y277078D01*
X297401Y277014D01*
X297411Y276950D01*
X297417Y276886D01*
X297419Y276821D01*
X295275Y282112D02*
X295277Y282180D01*
X295283Y282247D01*
X295292Y282314D01*
X295305Y282381D01*
X295322Y282446D01*
X295343Y282511D01*
X295367Y282574D01*
X295395Y282636D01*
X295426Y282696D01*
X295460Y282754D01*
X295498Y282810D01*
X295538Y282865D01*
X295582Y282916D01*
X295629Y282965D01*
X295678Y283012D01*
X295729Y283056D01*
X295784Y283096D01*
X295840Y283134D01*
X295898Y283168D01*
X295958Y283199D01*
X296020Y283227D01*
X296083Y283251D01*
X296148Y283272D01*
X296213Y283289D01*
X296280Y283302D01*
X296347Y283311D01*
X296414Y283317D01*
X296482Y283319D01*
X295275Y282112D02*
X295277Y282034D01*
X295283Y281956D01*
X295293Y281879D01*
X295306Y281802D01*
X295324Y281726D01*
X295345Y281651D01*
X295370Y281577D01*
X295399Y281505D01*
X295431Y281434D01*
X295467Y281365D01*
X295506Y281297D01*
X295549Y281232D01*
X295595Y281169D01*
X295644Y281108D01*
X295696Y281050D01*
X295751Y280995D01*
X295808Y280942D01*
X295868Y280893D01*
X295931Y280846D01*
X295996Y280803D01*
X296062Y280763D01*
X296131Y280726D01*
X296202Y280693D01*
X296274Y280663D01*
X296348Y280637D01*
X297420Y282917D02*
X297371Y282966D01*
X297319Y283013D01*
X297264Y283056D01*
X297207Y283097D01*
X297148Y283135D01*
X297087Y283169D01*
X297024Y283200D01*
X296960Y283228D01*
X296894Y283252D01*
X296828Y283272D01*
X296760Y283289D01*
X296691Y283302D01*
X296622Y283311D01*
X296552Y283317D01*
X296482Y283319D01*
X297420Y282917D02*
X300101Y280638D01*
X300101Y283319D01*
X136525Y195837D02*
X136523Y195902D01*
X136517Y195966D01*
X136507Y196030D01*
X136494Y196094D01*
X136476Y196156D01*
X136455Y196217D01*
X136431Y196277D01*
X136402Y196335D01*
X136370Y196392D01*
X136335Y196446D01*
X136297Y196498D01*
X136255Y196548D01*
X136211Y196595D01*
X136164Y196639D01*
X136114Y196681D01*
X136062Y196719D01*
X136008Y196754D01*
X135951Y196786D01*
X135893Y196815D01*
X135833Y196839D01*
X135772Y196860D01*
X135710Y196878D01*
X135646Y196891D01*
X135582Y196901D01*
X135518Y196907D01*
X135453Y196909D01*
X136525Y195837D02*
X136523Y195743D01*
X136517Y195649D01*
X136507Y195555D01*
X136494Y195462D01*
X136476Y195370D01*
X136455Y195278D01*
X136430Y195187D01*
X136401Y195097D01*
X136368Y195009D01*
X136332Y194922D01*
X136292Y194837D01*
X136249Y194753D01*
X136202Y194672D01*
X136152Y194592D01*
X136099Y194514D01*
X136042Y194439D01*
X135983Y194366D01*
X135920Y194296D01*
X135855Y194228D01*
X132771Y194362D02*
X132706Y194364D01*
X132642Y194370D01*
X132578Y194380D01*
X132514Y194393D01*
X132452Y194411D01*
X132391Y194432D01*
X132331Y194456D01*
X132273Y194485D01*
X132216Y194517D01*
X132162Y194552D01*
X132110Y194590D01*
X132060Y194632D01*
X132013Y194676D01*
X131969Y194723D01*
X131927Y194773D01*
X131889Y194825D01*
X131854Y194879D01*
X131822Y194936D01*
X131793Y194994D01*
X131769Y195054D01*
X131748Y195115D01*
X131730Y195177D01*
X131717Y195241D01*
X131707Y195305D01*
X131701Y195369D01*
X131699Y195434D01*
X131701Y195520D01*
X131706Y195606D01*
X131716Y195692D01*
X131729Y195777D01*
X131745Y195862D01*
X131765Y195946D01*
X131789Y196029D01*
X131816Y196111D01*
X131847Y196191D01*
X131881Y196271D01*
X131919Y196348D01*
X131960Y196424D01*
X132004Y196498D01*
X132051Y196571D01*
X132101Y196641D01*
X133709Y194898D02*
X133676Y194845D01*
X133639Y194794D01*
X133600Y194745D01*
X133558Y194698D01*
X133513Y194654D01*
X133466Y194613D01*
X133417Y194574D01*
X133365Y194538D01*
X133311Y194505D01*
X133256Y194476D01*
X133199Y194450D01*
X133140Y194427D01*
X133081Y194407D01*
X133020Y194391D01*
X132959Y194378D01*
X132896Y194369D01*
X132834Y194364D01*
X132771Y194362D01*
X134515Y196373D02*
X134548Y196426D01*
X134585Y196477D01*
X134624Y196526D01*
X134666Y196573D01*
X134711Y196617D01*
X134758Y196658D01*
X134807Y196697D01*
X134859Y196733D01*
X134913Y196766D01*
X134968Y196795D01*
X135025Y196821D01*
X135084Y196844D01*
X135143Y196864D01*
X135204Y196880D01*
X135265Y196893D01*
X135328Y196902D01*
X135390Y196907D01*
X135453Y196909D01*
X134514Y196373D02*
X133710Y194898D01*
X131699Y199861D02*
X136525Y199861D01*
X131699Y199861D02*
X131699Y201201D01*
X131701Y201272D01*
X131707Y201344D01*
X131716Y201414D01*
X131729Y201484D01*
X131746Y201554D01*
X131767Y201622D01*
X131791Y201689D01*
X131819Y201755D01*
X131850Y201819D01*
X131885Y201882D01*
X131923Y201942D01*
X131964Y202001D01*
X132008Y202057D01*
X132055Y202111D01*
X132104Y202162D01*
X132157Y202210D01*
X132212Y202256D01*
X132269Y202298D01*
X132329Y202338D01*
X132390Y202374D01*
X132454Y202407D01*
X132519Y202436D01*
X132585Y202462D01*
X132653Y202485D01*
X132722Y202504D01*
X132792Y202519D01*
X132862Y202530D01*
X132933Y202538D01*
X133004Y202542D01*
X133076Y202542D01*
X133147Y202538D01*
X133218Y202530D01*
X133288Y202519D01*
X133358Y202504D01*
X133427Y202485D01*
X133495Y202462D01*
X133561Y202436D01*
X133626Y202407D01*
X133690Y202374D01*
X133751Y202338D01*
X133811Y202298D01*
X133868Y202256D01*
X133923Y202210D01*
X133976Y202162D01*
X134025Y202111D01*
X134072Y202057D01*
X134116Y202001D01*
X134157Y201942D01*
X134195Y201882D01*
X134230Y201819D01*
X134261Y201755D01*
X134289Y201689D01*
X134313Y201622D01*
X134334Y201554D01*
X134351Y201484D01*
X134364Y201414D01*
X134373Y201344D01*
X134379Y201272D01*
X134381Y201201D01*
X134380Y201201D02*
X134380Y199861D01*
X136525Y204750D02*
X131699Y206358D01*
X136525Y207967D01*
X135319Y207565D02*
X135319Y205152D01*
X136525Y210751D02*
X131699Y210751D01*
X131699Y212091D01*
X131701Y212162D01*
X131707Y212234D01*
X131716Y212304D01*
X131729Y212374D01*
X131746Y212444D01*
X131767Y212512D01*
X131791Y212579D01*
X131819Y212645D01*
X131850Y212709D01*
X131885Y212772D01*
X131923Y212832D01*
X131964Y212891D01*
X132008Y212947D01*
X132055Y213001D01*
X132104Y213052D01*
X132157Y213100D01*
X132212Y213146D01*
X132269Y213188D01*
X132329Y213228D01*
X132390Y213264D01*
X132454Y213297D01*
X132519Y213326D01*
X132585Y213352D01*
X132653Y213375D01*
X132722Y213394D01*
X132792Y213409D01*
X132862Y213420D01*
X132933Y213428D01*
X133004Y213432D01*
X133076Y213432D01*
X133147Y213428D01*
X133218Y213420D01*
X133288Y213409D01*
X133358Y213394D01*
X133427Y213375D01*
X133495Y213352D01*
X133561Y213326D01*
X133626Y213297D01*
X133690Y213264D01*
X133751Y213228D01*
X133811Y213188D01*
X133868Y213146D01*
X133923Y213100D01*
X133976Y213052D01*
X134025Y213001D01*
X134072Y212947D01*
X134116Y212891D01*
X134157Y212832D01*
X134195Y212772D01*
X134230Y212709D01*
X134261Y212645D01*
X134289Y212579D01*
X134313Y212512D01*
X134334Y212444D01*
X134351Y212374D01*
X134364Y212304D01*
X134373Y212234D01*
X134379Y212162D01*
X134381Y212091D01*
X134380Y212091D02*
X134380Y210751D01*
X134380Y212359D02*
X136525Y213432D01*
X136525Y216503D02*
X131699Y216503D01*
X131699Y219184D02*
X134648Y216503D01*
X133576Y217575D02*
X136525Y219184D01*
X136525Y221862D02*
X131699Y221862D01*
X131699Y224007D01*
X133844Y224007D02*
X133844Y221862D01*
X135184Y226597D02*
X131699Y226597D01*
X135184Y226597D02*
X135255Y226599D01*
X135327Y226605D01*
X135397Y226614D01*
X135467Y226627D01*
X135537Y226644D01*
X135605Y226665D01*
X135672Y226689D01*
X135738Y226717D01*
X135802Y226748D01*
X135865Y226783D01*
X135925Y226821D01*
X135984Y226862D01*
X136040Y226906D01*
X136094Y226953D01*
X136145Y227002D01*
X136193Y227055D01*
X136239Y227110D01*
X136281Y227167D01*
X136321Y227227D01*
X136357Y227288D01*
X136390Y227352D01*
X136419Y227417D01*
X136445Y227483D01*
X136468Y227551D01*
X136487Y227620D01*
X136502Y227690D01*
X136513Y227760D01*
X136521Y227831D01*
X136525Y227902D01*
X136525Y227974D01*
X136521Y228045D01*
X136513Y228116D01*
X136502Y228186D01*
X136487Y228256D01*
X136468Y228325D01*
X136445Y228393D01*
X136419Y228459D01*
X136390Y228524D01*
X136357Y228588D01*
X136321Y228649D01*
X136281Y228709D01*
X136239Y228766D01*
X136193Y228821D01*
X136145Y228874D01*
X136094Y228923D01*
X136040Y228970D01*
X135984Y229014D01*
X135925Y229055D01*
X135865Y229093D01*
X135802Y229128D01*
X135738Y229159D01*
X135672Y229187D01*
X135605Y229211D01*
X135537Y229232D01*
X135467Y229249D01*
X135397Y229262D01*
X135327Y229271D01*
X135255Y229277D01*
X135184Y229279D01*
X131699Y229279D01*
X131699Y232450D02*
X136525Y232450D01*
X136525Y235131D02*
X131699Y232450D01*
X131699Y235131D02*
X136525Y235131D01*
X137061Y237838D02*
X137061Y239983D01*
X136525Y242710D02*
X131699Y242710D01*
X136525Y242710D02*
X136525Y244855D01*
X135184Y247263D02*
X133040Y247263D01*
X133040Y247262D02*
X132969Y247264D01*
X132897Y247270D01*
X132827Y247279D01*
X132757Y247292D01*
X132687Y247309D01*
X132619Y247330D01*
X132552Y247354D01*
X132486Y247382D01*
X132422Y247413D01*
X132359Y247448D01*
X132299Y247486D01*
X132240Y247527D01*
X132184Y247571D01*
X132130Y247618D01*
X132079Y247667D01*
X132031Y247720D01*
X131985Y247775D01*
X131943Y247832D01*
X131903Y247892D01*
X131867Y247953D01*
X131834Y248017D01*
X131805Y248082D01*
X131779Y248148D01*
X131756Y248216D01*
X131737Y248285D01*
X131722Y248355D01*
X131711Y248425D01*
X131703Y248496D01*
X131699Y248567D01*
X131699Y248639D01*
X131703Y248710D01*
X131711Y248781D01*
X131722Y248851D01*
X131737Y248921D01*
X131756Y248990D01*
X131779Y249058D01*
X131805Y249124D01*
X131834Y249189D01*
X131867Y249253D01*
X131903Y249314D01*
X131943Y249374D01*
X131985Y249431D01*
X132031Y249486D01*
X132079Y249539D01*
X132130Y249588D01*
X132184Y249635D01*
X132240Y249679D01*
X132299Y249720D01*
X132359Y249758D01*
X132422Y249793D01*
X132486Y249824D01*
X132552Y249852D01*
X132619Y249876D01*
X132687Y249897D01*
X132757Y249914D01*
X132827Y249927D01*
X132897Y249936D01*
X132969Y249942D01*
X133040Y249944D01*
X135184Y249944D01*
X135255Y249942D01*
X135327Y249936D01*
X135397Y249927D01*
X135467Y249914D01*
X135537Y249897D01*
X135605Y249876D01*
X135672Y249852D01*
X135738Y249824D01*
X135802Y249793D01*
X135865Y249758D01*
X135925Y249720D01*
X135984Y249679D01*
X136040Y249635D01*
X136094Y249588D01*
X136145Y249539D01*
X136193Y249486D01*
X136239Y249431D01*
X136281Y249374D01*
X136321Y249314D01*
X136357Y249253D01*
X136390Y249189D01*
X136419Y249124D01*
X136445Y249058D01*
X136468Y248990D01*
X136487Y248921D01*
X136502Y248851D01*
X136513Y248781D01*
X136521Y248710D01*
X136525Y248639D01*
X136525Y248567D01*
X136521Y248496D01*
X136513Y248425D01*
X136502Y248355D01*
X136487Y248285D01*
X136468Y248216D01*
X136445Y248148D01*
X136419Y248082D01*
X136390Y248017D01*
X136357Y247953D01*
X136321Y247892D01*
X136281Y247832D01*
X136239Y247775D01*
X136193Y247720D01*
X136145Y247667D01*
X136094Y247618D01*
X136040Y247571D01*
X135984Y247527D01*
X135925Y247486D01*
X135865Y247448D01*
X135802Y247413D01*
X135738Y247382D01*
X135672Y247354D01*
X135605Y247330D01*
X135537Y247309D01*
X135467Y247292D01*
X135397Y247279D01*
X135327Y247270D01*
X135255Y247264D01*
X135184Y247262D01*
X133844Y254809D02*
X133844Y255613D01*
X136525Y255613D01*
X136525Y254004D01*
X136523Y253939D01*
X136517Y253875D01*
X136507Y253811D01*
X136494Y253747D01*
X136476Y253685D01*
X136455Y253624D01*
X136431Y253564D01*
X136402Y253506D01*
X136370Y253449D01*
X136335Y253395D01*
X136297Y253343D01*
X136255Y253293D01*
X136211Y253246D01*
X136164Y253202D01*
X136114Y253160D01*
X136062Y253122D01*
X136008Y253087D01*
X135951Y253055D01*
X135893Y253026D01*
X135833Y253002D01*
X135772Y252981D01*
X135710Y252963D01*
X135646Y252950D01*
X135582Y252940D01*
X135518Y252934D01*
X135453Y252932D01*
X132771Y252932D01*
X132771Y252931D02*
X132706Y252933D01*
X132642Y252939D01*
X132578Y252949D01*
X132514Y252962D01*
X132452Y252980D01*
X132391Y253001D01*
X132331Y253026D01*
X132272Y253054D01*
X132216Y253086D01*
X132161Y253121D01*
X132109Y253159D01*
X132059Y253201D01*
X132012Y253245D01*
X131968Y253292D01*
X131926Y253342D01*
X131888Y253394D01*
X131853Y253449D01*
X131821Y253505D01*
X131793Y253564D01*
X131768Y253623D01*
X131747Y253685D01*
X131729Y253747D01*
X131716Y253811D01*
X131706Y253875D01*
X131700Y253939D01*
X131698Y254004D01*
X131699Y254004D02*
X131699Y255613D01*
X131699Y258844D02*
X136525Y258844D01*
X136525Y258308D02*
X136525Y259381D01*
X131699Y259381D02*
X131699Y258308D01*
X136525Y262937D02*
X136525Y264009D01*
X136525Y262937D02*
X136523Y262872D01*
X136517Y262808D01*
X136507Y262744D01*
X136494Y262680D01*
X136476Y262618D01*
X136455Y262557D01*
X136431Y262497D01*
X136402Y262439D01*
X136370Y262382D01*
X136335Y262328D01*
X136297Y262276D01*
X136255Y262226D01*
X136211Y262179D01*
X136164Y262135D01*
X136114Y262093D01*
X136062Y262055D01*
X136008Y262020D01*
X135951Y261988D01*
X135893Y261959D01*
X135833Y261935D01*
X135772Y261914D01*
X135710Y261896D01*
X135646Y261883D01*
X135582Y261873D01*
X135518Y261867D01*
X135453Y261865D01*
X135453Y261864D02*
X132771Y261864D01*
X132706Y261866D01*
X132642Y261872D01*
X132578Y261882D01*
X132514Y261895D01*
X132452Y261913D01*
X132391Y261934D01*
X132331Y261959D01*
X132272Y261987D01*
X132216Y262019D01*
X132161Y262054D01*
X132109Y262092D01*
X132059Y262134D01*
X132012Y262178D01*
X131968Y262225D01*
X131926Y262275D01*
X131888Y262327D01*
X131853Y262382D01*
X131821Y262438D01*
X131793Y262497D01*
X131768Y262556D01*
X131747Y262618D01*
X131729Y262680D01*
X131716Y262744D01*
X131706Y262808D01*
X131700Y262872D01*
X131698Y262937D01*
X131699Y262937D02*
X131699Y264009D01*
X137061Y266184D02*
X137061Y268329D01*
X136525Y271056D02*
X131699Y271056D01*
X136525Y271056D02*
X136525Y273201D01*
X136525Y275811D02*
X136525Y277956D01*
X136525Y275811D02*
X131699Y275811D01*
X131699Y277956D01*
X133844Y277420D02*
X133844Y275811D01*
X131699Y280096D02*
X136525Y281704D01*
X131699Y283313D01*
X136525Y286052D02*
X136525Y288197D01*
X136525Y286052D02*
X131699Y286052D01*
X131699Y288197D01*
X133844Y287661D02*
X133844Y286052D01*
X131699Y290807D02*
X136525Y290807D01*
X136525Y292952D01*
X137061Y295079D02*
X137061Y297224D01*
X136525Y300792D02*
X136525Y301865D01*
X136525Y300792D02*
X136523Y300727D01*
X136517Y300663D01*
X136507Y300599D01*
X136494Y300535D01*
X136476Y300473D01*
X136455Y300412D01*
X136431Y300352D01*
X136402Y300294D01*
X136370Y300237D01*
X136335Y300183D01*
X136297Y300131D01*
X136255Y300081D01*
X136211Y300034D01*
X136164Y299990D01*
X136114Y299948D01*
X136062Y299910D01*
X136008Y299875D01*
X135951Y299843D01*
X135893Y299814D01*
X135833Y299790D01*
X135772Y299769D01*
X135710Y299751D01*
X135646Y299738D01*
X135582Y299728D01*
X135518Y299722D01*
X135453Y299720D01*
X132771Y299720D01*
X132706Y299722D01*
X132642Y299728D01*
X132578Y299738D01*
X132514Y299751D01*
X132452Y299769D01*
X132391Y299790D01*
X132331Y299815D01*
X132272Y299843D01*
X132216Y299875D01*
X132161Y299910D01*
X132109Y299948D01*
X132059Y299990D01*
X132012Y300034D01*
X131968Y300081D01*
X131926Y300131D01*
X131888Y300183D01*
X131853Y300238D01*
X131821Y300294D01*
X131793Y300353D01*
X131768Y300412D01*
X131747Y300474D01*
X131729Y300536D01*
X131716Y300600D01*
X131706Y300664D01*
X131700Y300728D01*
X131698Y300793D01*
X131699Y300792D02*
X131699Y301865D01*
X133040Y304321D02*
X135184Y304321D01*
X133040Y304320D02*
X132969Y304322D01*
X132897Y304328D01*
X132827Y304337D01*
X132757Y304350D01*
X132687Y304367D01*
X132619Y304388D01*
X132552Y304412D01*
X132486Y304440D01*
X132422Y304471D01*
X132359Y304506D01*
X132299Y304544D01*
X132240Y304585D01*
X132184Y304629D01*
X132130Y304676D01*
X132079Y304725D01*
X132031Y304778D01*
X131985Y304833D01*
X131943Y304890D01*
X131903Y304950D01*
X131867Y305011D01*
X131834Y305075D01*
X131805Y305140D01*
X131779Y305206D01*
X131756Y305274D01*
X131737Y305343D01*
X131722Y305413D01*
X131711Y305483D01*
X131703Y305554D01*
X131699Y305625D01*
X131699Y305697D01*
X131703Y305768D01*
X131711Y305839D01*
X131722Y305909D01*
X131737Y305979D01*
X131756Y306048D01*
X131779Y306116D01*
X131805Y306182D01*
X131834Y306247D01*
X131867Y306311D01*
X131903Y306372D01*
X131943Y306432D01*
X131985Y306489D01*
X132031Y306544D01*
X132079Y306597D01*
X132130Y306646D01*
X132184Y306693D01*
X132240Y306737D01*
X132299Y306778D01*
X132359Y306816D01*
X132422Y306851D01*
X132486Y306882D01*
X132552Y306910D01*
X132619Y306934D01*
X132687Y306955D01*
X132757Y306972D01*
X132827Y306985D01*
X132897Y306994D01*
X132969Y307000D01*
X133040Y307002D01*
X135184Y307002D01*
X135255Y307000D01*
X135327Y306994D01*
X135397Y306985D01*
X135467Y306972D01*
X135537Y306955D01*
X135605Y306934D01*
X135672Y306910D01*
X135738Y306882D01*
X135802Y306851D01*
X135865Y306816D01*
X135925Y306778D01*
X135984Y306737D01*
X136040Y306693D01*
X136094Y306646D01*
X136145Y306597D01*
X136193Y306544D01*
X136239Y306489D01*
X136281Y306432D01*
X136321Y306372D01*
X136357Y306311D01*
X136390Y306247D01*
X136419Y306182D01*
X136445Y306116D01*
X136468Y306048D01*
X136487Y305979D01*
X136502Y305909D01*
X136513Y305839D01*
X136521Y305768D01*
X136525Y305697D01*
X136525Y305625D01*
X136521Y305554D01*
X136513Y305483D01*
X136502Y305413D01*
X136487Y305343D01*
X136468Y305274D01*
X136445Y305206D01*
X136419Y305140D01*
X136390Y305075D01*
X136357Y305011D01*
X136321Y304950D01*
X136281Y304890D01*
X136239Y304833D01*
X136193Y304778D01*
X136145Y304725D01*
X136094Y304676D01*
X136040Y304629D01*
X135984Y304585D01*
X135925Y304544D01*
X135865Y304506D01*
X135802Y304471D01*
X135738Y304440D01*
X135672Y304412D01*
X135605Y304388D01*
X135537Y304367D01*
X135467Y304350D01*
X135397Y304337D01*
X135327Y304328D01*
X135255Y304322D01*
X135184Y304320D01*
X136525Y309990D02*
X131699Y309990D01*
X136525Y312671D01*
X131699Y312671D01*
X131699Y315391D02*
X136525Y317000D01*
X131699Y318608D01*
X136525Y321348D02*
X136525Y323493D01*
X136525Y321348D02*
X131699Y321348D01*
X131699Y323493D01*
X133844Y322957D02*
X133844Y321348D01*
X131699Y326147D02*
X136525Y326147D01*
X131699Y326147D02*
X131699Y327488D01*
X131701Y327559D01*
X131707Y327631D01*
X131716Y327701D01*
X131729Y327771D01*
X131746Y327841D01*
X131767Y327909D01*
X131791Y327976D01*
X131819Y328042D01*
X131850Y328106D01*
X131885Y328169D01*
X131923Y328229D01*
X131964Y328288D01*
X132008Y328344D01*
X132055Y328398D01*
X132104Y328449D01*
X132157Y328497D01*
X132212Y328543D01*
X132269Y328585D01*
X132329Y328625D01*
X132390Y328661D01*
X132454Y328694D01*
X132519Y328723D01*
X132585Y328749D01*
X132653Y328772D01*
X132722Y328791D01*
X132792Y328806D01*
X132862Y328817D01*
X132933Y328825D01*
X133004Y328829D01*
X133076Y328829D01*
X133147Y328825D01*
X133218Y328817D01*
X133288Y328806D01*
X133358Y328791D01*
X133427Y328772D01*
X133495Y328749D01*
X133561Y328723D01*
X133626Y328694D01*
X133690Y328661D01*
X133751Y328625D01*
X133811Y328585D01*
X133868Y328543D01*
X133923Y328497D01*
X133976Y328449D01*
X134025Y328398D01*
X134072Y328344D01*
X134116Y328288D01*
X134157Y328229D01*
X134195Y328169D01*
X134230Y328106D01*
X134261Y328042D01*
X134289Y327976D01*
X134313Y327909D01*
X134334Y327841D01*
X134351Y327771D01*
X134364Y327701D01*
X134373Y327631D01*
X134379Y327559D01*
X134381Y327488D01*
X134380Y327488D02*
X134380Y326147D01*
X134380Y327756D02*
X136525Y328828D01*
X136525Y332544D02*
X131699Y332544D01*
X131699Y331204D02*
X131699Y333885D01*
X136525Y336527D02*
X136525Y338672D01*
X136525Y336527D02*
X131699Y336527D01*
X131699Y338672D01*
X133844Y338136D02*
X133844Y336527D01*
X131699Y341326D02*
X136525Y341326D01*
X131699Y341326D02*
X131699Y342666D01*
X131701Y342737D01*
X131707Y342809D01*
X131716Y342879D01*
X131729Y342949D01*
X131746Y343019D01*
X131767Y343087D01*
X131791Y343154D01*
X131819Y343220D01*
X131850Y343284D01*
X131885Y343347D01*
X131923Y343407D01*
X131964Y343466D01*
X132008Y343522D01*
X132055Y343576D01*
X132104Y343627D01*
X132157Y343675D01*
X132212Y343721D01*
X132269Y343763D01*
X132329Y343803D01*
X132390Y343839D01*
X132454Y343872D01*
X132519Y343901D01*
X132585Y343927D01*
X132653Y343950D01*
X132722Y343969D01*
X132792Y343984D01*
X132862Y343995D01*
X132933Y344003D01*
X133004Y344007D01*
X133076Y344007D01*
X133147Y344003D01*
X133218Y343995D01*
X133288Y343984D01*
X133358Y343969D01*
X133427Y343950D01*
X133495Y343927D01*
X133561Y343901D01*
X133626Y343872D01*
X133690Y343839D01*
X133751Y343803D01*
X133811Y343763D01*
X133868Y343721D01*
X133923Y343675D01*
X133976Y343627D01*
X134025Y343576D01*
X134072Y343522D01*
X134116Y343466D01*
X134157Y343407D01*
X134195Y343347D01*
X134230Y343284D01*
X134261Y343220D01*
X134289Y343154D01*
X134313Y343087D01*
X134334Y343019D01*
X134351Y342949D01*
X134364Y342879D01*
X134373Y342809D01*
X134379Y342737D01*
X134381Y342666D01*
X134380Y342666D02*
X134380Y341326D01*
X134380Y342935D02*
X136525Y344007D01*
X136525Y346951D02*
X131699Y346951D01*
X136525Y346951D02*
X136525Y349096D01*
X135184Y351503D02*
X133040Y351503D01*
X132969Y351505D01*
X132897Y351511D01*
X132827Y351520D01*
X132757Y351533D01*
X132687Y351550D01*
X132619Y351571D01*
X132552Y351595D01*
X132486Y351623D01*
X132422Y351654D01*
X132359Y351689D01*
X132299Y351727D01*
X132240Y351768D01*
X132184Y351812D01*
X132130Y351859D01*
X132079Y351908D01*
X132031Y351961D01*
X131985Y352016D01*
X131943Y352073D01*
X131903Y352133D01*
X131867Y352194D01*
X131834Y352258D01*
X131805Y352323D01*
X131779Y352389D01*
X131756Y352457D01*
X131737Y352526D01*
X131722Y352596D01*
X131711Y352666D01*
X131703Y352737D01*
X131699Y352808D01*
X131699Y352880D01*
X131703Y352951D01*
X131711Y353022D01*
X131722Y353092D01*
X131737Y353162D01*
X131756Y353231D01*
X131779Y353299D01*
X131805Y353365D01*
X131834Y353430D01*
X131867Y353494D01*
X131903Y353555D01*
X131943Y353615D01*
X131985Y353672D01*
X132031Y353727D01*
X132079Y353780D01*
X132130Y353829D01*
X132184Y353876D01*
X132240Y353920D01*
X132299Y353961D01*
X132359Y353999D01*
X132422Y354034D01*
X132486Y354065D01*
X132552Y354093D01*
X132619Y354117D01*
X132687Y354138D01*
X132757Y354155D01*
X132827Y354168D01*
X132897Y354177D01*
X132969Y354183D01*
X133040Y354185D01*
X133040Y354184D02*
X135184Y354184D01*
X135184Y354185D02*
X135255Y354183D01*
X135327Y354177D01*
X135397Y354168D01*
X135467Y354155D01*
X135537Y354138D01*
X135605Y354117D01*
X135672Y354093D01*
X135738Y354065D01*
X135802Y354034D01*
X135865Y353999D01*
X135925Y353961D01*
X135984Y353920D01*
X136040Y353876D01*
X136094Y353829D01*
X136145Y353780D01*
X136193Y353727D01*
X136239Y353672D01*
X136281Y353615D01*
X136321Y353555D01*
X136357Y353494D01*
X136390Y353430D01*
X136419Y353365D01*
X136445Y353299D01*
X136468Y353231D01*
X136487Y353162D01*
X136502Y353092D01*
X136513Y353022D01*
X136521Y352951D01*
X136525Y352880D01*
X136525Y352808D01*
X136521Y352737D01*
X136513Y352666D01*
X136502Y352596D01*
X136487Y352526D01*
X136468Y352457D01*
X136445Y352389D01*
X136419Y352323D01*
X136390Y352258D01*
X136357Y352194D01*
X136321Y352133D01*
X136281Y352073D01*
X136239Y352016D01*
X136193Y351961D01*
X136145Y351908D01*
X136094Y351859D01*
X136040Y351812D01*
X135984Y351768D01*
X135925Y351727D01*
X135865Y351689D01*
X135802Y351654D01*
X135738Y351623D01*
X135672Y351595D01*
X135605Y351571D01*
X135537Y351550D01*
X135467Y351533D01*
X135397Y351520D01*
X135327Y351511D01*
X135255Y351505D01*
X135184Y351503D01*
X136525Y358033D02*
X136525Y359106D01*
X136525Y358033D02*
X136523Y357968D01*
X136517Y357904D01*
X136507Y357840D01*
X136494Y357776D01*
X136476Y357714D01*
X136455Y357653D01*
X136431Y357593D01*
X136402Y357535D01*
X136370Y357478D01*
X136335Y357424D01*
X136297Y357372D01*
X136255Y357322D01*
X136211Y357275D01*
X136164Y357231D01*
X136114Y357189D01*
X136062Y357151D01*
X136008Y357116D01*
X135951Y357084D01*
X135893Y357055D01*
X135833Y357031D01*
X135772Y357010D01*
X135710Y356992D01*
X135646Y356979D01*
X135582Y356969D01*
X135518Y356963D01*
X135453Y356961D01*
X132771Y356961D01*
X132771Y356960D02*
X132706Y356962D01*
X132642Y356968D01*
X132578Y356978D01*
X132514Y356991D01*
X132452Y357009D01*
X132391Y357030D01*
X132331Y357055D01*
X132272Y357083D01*
X132216Y357115D01*
X132161Y357150D01*
X132109Y357188D01*
X132059Y357230D01*
X132012Y357274D01*
X131968Y357321D01*
X131926Y357371D01*
X131888Y357423D01*
X131853Y357478D01*
X131821Y357534D01*
X131793Y357593D01*
X131768Y357652D01*
X131747Y357714D01*
X131729Y357776D01*
X131716Y357840D01*
X131706Y357904D01*
X131700Y357968D01*
X131698Y358033D01*
X131699Y358033D02*
X131699Y359106D01*
X131699Y361891D02*
X136525Y361891D01*
X134648Y361891D02*
X131699Y364572D01*
X133576Y362963D02*
X136525Y364572D01*
D10*
X400050Y203200D02*
X406400Y209550D01*
X406400Y222250D02*
X400050Y228600D01*
X406400Y234950D01*
X406400Y247650D02*
X400050Y254000D01*
X406400Y260350D01*
X406400Y273050D02*
X400050Y279400D01*
X406400Y285750D01*
X406400Y298450D02*
X400050Y304800D01*
X406400Y311150D01*
X406400Y323850D02*
X400050Y330200D01*
X400050Y203200D02*
X361950Y203200D01*
X355600Y209550D01*
X355600Y222250D01*
X361950Y228600D01*
X355600Y234950D01*
X355600Y247650D01*
X361950Y254000D01*
X355600Y260350D01*
X355600Y273050D01*
X361950Y279400D01*
X355600Y285750D01*
X355600Y298450D01*
X361950Y304800D01*
X355600Y311150D01*
X355600Y323850D01*
X361950Y330200D01*
X361950Y228600D02*
X400050Y228600D01*
X400050Y254000D02*
X361950Y254000D01*
X361950Y279400D02*
X400050Y279400D01*
X400050Y304800D02*
X361950Y304800D01*
X361950Y330200D02*
X400050Y330200D01*
X406400Y323850D02*
X406400Y311150D01*
X406400Y298450D02*
X406400Y285750D01*
X406400Y273050D02*
X406400Y260350D01*
X406400Y247650D02*
X406400Y234950D01*
X406400Y222250D02*
X406400Y209550D01*
X400050Y330200D02*
X406400Y336550D01*
X406400Y349250D02*
X400050Y355600D01*
X361950Y330200D02*
X355600Y336550D01*
X355600Y349250D01*
X361950Y355600D01*
X400050Y355600D01*
X406400Y349250D02*
X406400Y336550D01*
D11*
X348615Y208915D02*
X348615Y206375D01*
X348613Y206275D01*
X348607Y206176D01*
X348597Y206076D01*
X348584Y205978D01*
X348566Y205879D01*
X348545Y205782D01*
X348520Y205686D01*
X348491Y205590D01*
X348458Y205496D01*
X348422Y205403D01*
X348382Y205312D01*
X348338Y205222D01*
X348291Y205134D01*
X348241Y205048D01*
X348187Y204964D01*
X348130Y204882D01*
X348070Y204803D01*
X348006Y204725D01*
X347940Y204651D01*
X347871Y204579D01*
X347799Y204510D01*
X347725Y204444D01*
X347647Y204380D01*
X347568Y204320D01*
X347486Y204263D01*
X347402Y204209D01*
X347316Y204159D01*
X347228Y204112D01*
X347138Y204068D01*
X347047Y204028D01*
X346954Y203992D01*
X346860Y203959D01*
X346764Y203930D01*
X346668Y203905D01*
X346571Y203884D01*
X346472Y203866D01*
X346374Y203853D01*
X346274Y203843D01*
X346175Y203837D01*
X346075Y203835D01*
X339725Y203835D01*
X339625Y203837D01*
X339526Y203843D01*
X339426Y203853D01*
X339328Y203866D01*
X339229Y203884D01*
X339132Y203905D01*
X339036Y203930D01*
X338940Y203959D01*
X338846Y203992D01*
X338753Y204028D01*
X338662Y204068D01*
X338572Y204112D01*
X338484Y204159D01*
X338398Y204209D01*
X338314Y204263D01*
X338232Y204320D01*
X338153Y204380D01*
X338075Y204444D01*
X338001Y204510D01*
X337929Y204579D01*
X337860Y204651D01*
X337794Y204725D01*
X337730Y204803D01*
X337670Y204882D01*
X337613Y204964D01*
X337559Y205048D01*
X337509Y205134D01*
X337462Y205222D01*
X337418Y205312D01*
X337378Y205403D01*
X337342Y205496D01*
X337309Y205590D01*
X337280Y205686D01*
X337255Y205782D01*
X337234Y205879D01*
X337216Y205978D01*
X337203Y206076D01*
X337193Y206176D01*
X337187Y206275D01*
X337185Y206375D01*
X337185Y208915D01*
X340360Y213397D02*
X345440Y213397D01*
X340360Y213397D02*
X340249Y213399D01*
X340139Y213405D01*
X340028Y213414D01*
X339918Y213428D01*
X339809Y213445D01*
X339700Y213466D01*
X339592Y213491D01*
X339485Y213520D01*
X339379Y213552D01*
X339274Y213588D01*
X339171Y213628D01*
X339069Y213671D01*
X338968Y213718D01*
X338869Y213769D01*
X338773Y213822D01*
X338678Y213879D01*
X338585Y213940D01*
X338494Y214003D01*
X338405Y214070D01*
X338319Y214140D01*
X338236Y214213D01*
X338154Y214288D01*
X338076Y214366D01*
X338001Y214448D01*
X337928Y214531D01*
X337858Y214617D01*
X337791Y214706D01*
X337728Y214797D01*
X337667Y214890D01*
X337610Y214985D01*
X337557Y215081D01*
X337506Y215180D01*
X337459Y215281D01*
X337416Y215383D01*
X337376Y215486D01*
X337340Y215591D01*
X337308Y215697D01*
X337279Y215804D01*
X337254Y215912D01*
X337233Y216021D01*
X337216Y216130D01*
X337202Y216240D01*
X337193Y216351D01*
X337187Y216461D01*
X337185Y216572D01*
X337187Y216683D01*
X337193Y216793D01*
X337202Y216904D01*
X337216Y217014D01*
X337233Y217123D01*
X337254Y217232D01*
X337279Y217340D01*
X337308Y217447D01*
X337340Y217553D01*
X337376Y217658D01*
X337416Y217761D01*
X337459Y217863D01*
X337506Y217964D01*
X337557Y218063D01*
X337610Y218160D01*
X337667Y218254D01*
X337728Y218347D01*
X337791Y218438D01*
X337858Y218527D01*
X337928Y218613D01*
X338001Y218696D01*
X338076Y218778D01*
X338154Y218856D01*
X338236Y218931D01*
X338319Y219004D01*
X338405Y219074D01*
X338494Y219141D01*
X338585Y219204D01*
X338678Y219265D01*
X338773Y219322D01*
X338869Y219375D01*
X338968Y219426D01*
X339069Y219473D01*
X339171Y219516D01*
X339274Y219556D01*
X339379Y219592D01*
X339485Y219624D01*
X339592Y219653D01*
X339700Y219678D01*
X339809Y219699D01*
X339918Y219716D01*
X340028Y219730D01*
X340139Y219739D01*
X340249Y219745D01*
X340360Y219747D01*
X345440Y219747D01*
X345551Y219745D01*
X345661Y219739D01*
X345772Y219730D01*
X345882Y219716D01*
X345991Y219699D01*
X346100Y219678D01*
X346208Y219653D01*
X346315Y219624D01*
X346421Y219592D01*
X346526Y219556D01*
X346629Y219516D01*
X346731Y219473D01*
X346832Y219426D01*
X346931Y219375D01*
X347028Y219322D01*
X347122Y219265D01*
X347215Y219204D01*
X347306Y219141D01*
X347395Y219074D01*
X347481Y219004D01*
X347564Y218931D01*
X347646Y218856D01*
X347724Y218778D01*
X347799Y218696D01*
X347872Y218613D01*
X347942Y218527D01*
X348009Y218438D01*
X348072Y218347D01*
X348133Y218254D01*
X348190Y218159D01*
X348243Y218063D01*
X348294Y217964D01*
X348341Y217863D01*
X348384Y217761D01*
X348424Y217658D01*
X348460Y217553D01*
X348492Y217447D01*
X348521Y217340D01*
X348546Y217232D01*
X348567Y217123D01*
X348584Y217014D01*
X348598Y216904D01*
X348607Y216793D01*
X348613Y216683D01*
X348615Y216572D01*
X348613Y216461D01*
X348607Y216351D01*
X348598Y216240D01*
X348584Y216130D01*
X348567Y216021D01*
X348546Y215912D01*
X348521Y215804D01*
X348492Y215697D01*
X348460Y215591D01*
X348424Y215486D01*
X348384Y215383D01*
X348341Y215281D01*
X348294Y215180D01*
X348243Y215081D01*
X348190Y214984D01*
X348133Y214890D01*
X348072Y214797D01*
X348009Y214706D01*
X347942Y214617D01*
X347872Y214531D01*
X347799Y214448D01*
X347724Y214366D01*
X347646Y214288D01*
X347564Y214213D01*
X347481Y214140D01*
X347395Y214070D01*
X347306Y214003D01*
X347215Y213940D01*
X347122Y213879D01*
X347028Y213822D01*
X346931Y213769D01*
X346832Y213718D01*
X346731Y213671D01*
X346629Y213628D01*
X346526Y213588D01*
X346421Y213552D01*
X346315Y213520D01*
X346208Y213491D01*
X346100Y213466D01*
X345991Y213445D01*
X345882Y213428D01*
X345772Y213414D01*
X345661Y213405D01*
X345551Y213399D01*
X345440Y213397D01*
X348615Y225208D02*
X337185Y225208D01*
X348615Y231558D01*
X337185Y231558D01*
X337185Y237400D02*
X348615Y237400D01*
X348615Y243750D02*
X337185Y237400D01*
X337185Y243750D02*
X348615Y243750D01*
X348615Y249618D02*
X348615Y254698D01*
X348615Y249618D02*
X337185Y249618D01*
X337185Y254698D01*
X342265Y253428D02*
X342265Y249618D01*
X348615Y261620D02*
X348615Y264160D01*
X348615Y261620D02*
X348613Y261520D01*
X348607Y261421D01*
X348597Y261321D01*
X348584Y261223D01*
X348566Y261124D01*
X348545Y261027D01*
X348520Y260931D01*
X348491Y260835D01*
X348458Y260741D01*
X348422Y260648D01*
X348382Y260557D01*
X348338Y260467D01*
X348291Y260379D01*
X348241Y260293D01*
X348187Y260209D01*
X348130Y260127D01*
X348070Y260048D01*
X348006Y259970D01*
X347940Y259896D01*
X347871Y259824D01*
X347799Y259755D01*
X347725Y259689D01*
X347647Y259625D01*
X347568Y259565D01*
X347486Y259508D01*
X347402Y259454D01*
X347316Y259404D01*
X347228Y259357D01*
X347138Y259313D01*
X347047Y259273D01*
X346954Y259237D01*
X346860Y259204D01*
X346764Y259175D01*
X346668Y259150D01*
X346571Y259129D01*
X346472Y259111D01*
X346374Y259098D01*
X346274Y259088D01*
X346175Y259082D01*
X346075Y259080D01*
X339725Y259080D01*
X339625Y259082D01*
X339526Y259088D01*
X339426Y259098D01*
X339328Y259111D01*
X339229Y259129D01*
X339132Y259150D01*
X339036Y259175D01*
X338940Y259204D01*
X338846Y259237D01*
X338753Y259273D01*
X338662Y259313D01*
X338572Y259357D01*
X338484Y259404D01*
X338398Y259454D01*
X338314Y259508D01*
X338232Y259565D01*
X338153Y259625D01*
X338075Y259689D01*
X338001Y259755D01*
X337929Y259824D01*
X337860Y259896D01*
X337794Y259970D01*
X337730Y260048D01*
X337670Y260127D01*
X337613Y260209D01*
X337559Y260293D01*
X337509Y260379D01*
X337462Y260467D01*
X337418Y260557D01*
X337378Y260648D01*
X337342Y260741D01*
X337309Y260835D01*
X337280Y260931D01*
X337255Y261027D01*
X337234Y261124D01*
X337216Y261223D01*
X337203Y261321D01*
X337193Y261421D01*
X337187Y261520D01*
X337185Y261620D01*
X337185Y264160D01*
X337185Y271055D02*
X348615Y271055D01*
X337185Y267880D02*
X337185Y274230D01*
X340360Y278548D02*
X345440Y278548D01*
X340360Y278548D02*
X340249Y278550D01*
X340139Y278556D01*
X340028Y278565D01*
X339918Y278579D01*
X339809Y278596D01*
X339700Y278617D01*
X339592Y278642D01*
X339485Y278671D01*
X339379Y278703D01*
X339274Y278739D01*
X339171Y278779D01*
X339069Y278822D01*
X338968Y278869D01*
X338869Y278920D01*
X338773Y278973D01*
X338678Y279030D01*
X338585Y279091D01*
X338494Y279154D01*
X338405Y279221D01*
X338319Y279291D01*
X338236Y279364D01*
X338154Y279439D01*
X338076Y279517D01*
X338001Y279599D01*
X337928Y279682D01*
X337858Y279768D01*
X337791Y279857D01*
X337728Y279948D01*
X337667Y280041D01*
X337610Y280136D01*
X337557Y280232D01*
X337506Y280331D01*
X337459Y280432D01*
X337416Y280534D01*
X337376Y280637D01*
X337340Y280742D01*
X337308Y280848D01*
X337279Y280955D01*
X337254Y281063D01*
X337233Y281172D01*
X337216Y281281D01*
X337202Y281391D01*
X337193Y281502D01*
X337187Y281612D01*
X337185Y281723D01*
X337187Y281834D01*
X337193Y281944D01*
X337202Y282055D01*
X337216Y282165D01*
X337233Y282274D01*
X337254Y282383D01*
X337279Y282491D01*
X337308Y282598D01*
X337340Y282704D01*
X337376Y282809D01*
X337416Y282912D01*
X337459Y283014D01*
X337506Y283115D01*
X337557Y283214D01*
X337610Y283311D01*
X337667Y283405D01*
X337728Y283498D01*
X337791Y283589D01*
X337858Y283678D01*
X337928Y283764D01*
X338001Y283847D01*
X338076Y283929D01*
X338154Y284007D01*
X338236Y284082D01*
X338319Y284155D01*
X338405Y284225D01*
X338494Y284292D01*
X338585Y284355D01*
X338678Y284416D01*
X338773Y284473D01*
X338869Y284526D01*
X338968Y284577D01*
X339069Y284624D01*
X339171Y284667D01*
X339274Y284707D01*
X339379Y284743D01*
X339485Y284775D01*
X339592Y284804D01*
X339700Y284829D01*
X339809Y284850D01*
X339918Y284867D01*
X340028Y284881D01*
X340139Y284890D01*
X340249Y284896D01*
X340360Y284898D01*
X345440Y284898D01*
X345551Y284896D01*
X345661Y284890D01*
X345772Y284881D01*
X345882Y284867D01*
X345991Y284850D01*
X346100Y284829D01*
X346208Y284804D01*
X346315Y284775D01*
X346421Y284743D01*
X346526Y284707D01*
X346629Y284667D01*
X346731Y284624D01*
X346832Y284577D01*
X346931Y284526D01*
X347028Y284473D01*
X347122Y284416D01*
X347215Y284355D01*
X347306Y284292D01*
X347395Y284225D01*
X347481Y284155D01*
X347564Y284082D01*
X347646Y284007D01*
X347724Y283929D01*
X347799Y283847D01*
X347872Y283764D01*
X347942Y283678D01*
X348009Y283589D01*
X348072Y283498D01*
X348133Y283405D01*
X348190Y283310D01*
X348243Y283214D01*
X348294Y283115D01*
X348341Y283014D01*
X348384Y282912D01*
X348424Y282809D01*
X348460Y282704D01*
X348492Y282598D01*
X348521Y282491D01*
X348546Y282383D01*
X348567Y282274D01*
X348584Y282165D01*
X348598Y282055D01*
X348607Y281944D01*
X348613Y281834D01*
X348615Y281723D01*
X348613Y281612D01*
X348607Y281502D01*
X348598Y281391D01*
X348584Y281281D01*
X348567Y281172D01*
X348546Y281063D01*
X348521Y280955D01*
X348492Y280848D01*
X348460Y280742D01*
X348424Y280637D01*
X348384Y280534D01*
X348341Y280432D01*
X348294Y280331D01*
X348243Y280232D01*
X348190Y280135D01*
X348133Y280041D01*
X348072Y279948D01*
X348009Y279857D01*
X347942Y279768D01*
X347872Y279682D01*
X347799Y279599D01*
X347724Y279517D01*
X347646Y279439D01*
X347564Y279364D01*
X347481Y279291D01*
X347395Y279221D01*
X347306Y279154D01*
X347215Y279091D01*
X347122Y279030D01*
X347028Y278973D01*
X346931Y278920D01*
X346832Y278869D01*
X346731Y278822D01*
X346629Y278779D01*
X346526Y278739D01*
X346421Y278703D01*
X346315Y278671D01*
X346208Y278642D01*
X346100Y278617D01*
X345991Y278596D01*
X345882Y278579D01*
X345772Y278565D01*
X345661Y278556D01*
X345551Y278550D01*
X345440Y278548D01*
X348615Y290442D02*
X337185Y290442D01*
X337185Y293617D01*
X337187Y293728D01*
X337193Y293838D01*
X337202Y293949D01*
X337216Y294059D01*
X337233Y294168D01*
X337254Y294277D01*
X337279Y294385D01*
X337308Y294492D01*
X337340Y294598D01*
X337376Y294703D01*
X337416Y294806D01*
X337459Y294908D01*
X337506Y295009D01*
X337557Y295108D01*
X337610Y295205D01*
X337667Y295299D01*
X337728Y295392D01*
X337791Y295483D01*
X337858Y295572D01*
X337928Y295658D01*
X338001Y295741D01*
X338076Y295823D01*
X338154Y295901D01*
X338236Y295976D01*
X338319Y296049D01*
X338405Y296119D01*
X338494Y296186D01*
X338585Y296249D01*
X338678Y296310D01*
X338773Y296367D01*
X338869Y296420D01*
X338968Y296471D01*
X339069Y296518D01*
X339171Y296561D01*
X339274Y296601D01*
X339379Y296637D01*
X339485Y296669D01*
X339592Y296698D01*
X339700Y296723D01*
X339809Y296744D01*
X339918Y296761D01*
X340028Y296775D01*
X340139Y296784D01*
X340249Y296790D01*
X340360Y296792D01*
X340471Y296790D01*
X340581Y296784D01*
X340692Y296775D01*
X340802Y296761D01*
X340911Y296744D01*
X341020Y296723D01*
X341128Y296698D01*
X341235Y296669D01*
X341341Y296637D01*
X341446Y296601D01*
X341549Y296561D01*
X341651Y296518D01*
X341752Y296471D01*
X341851Y296420D01*
X341948Y296367D01*
X342042Y296310D01*
X342135Y296249D01*
X342226Y296186D01*
X342315Y296119D01*
X342401Y296049D01*
X342484Y295976D01*
X342566Y295901D01*
X342644Y295823D01*
X342719Y295741D01*
X342792Y295658D01*
X342862Y295572D01*
X342929Y295483D01*
X342992Y295392D01*
X343053Y295299D01*
X343110Y295205D01*
X343163Y295108D01*
X343214Y295009D01*
X343261Y294908D01*
X343304Y294806D01*
X343344Y294703D01*
X343380Y294598D01*
X343412Y294492D01*
X343441Y294385D01*
X343466Y294277D01*
X343487Y294168D01*
X343504Y294059D01*
X343518Y293949D01*
X343527Y293838D01*
X343533Y293728D01*
X343535Y293617D01*
X343535Y290442D01*
X343535Y294252D02*
X348615Y296792D01*
D12*
X92800Y183400D02*
X92800Y71400D01*
X27800Y71400D01*
X17800Y71400D01*
X17800Y183400D01*
X27800Y183400D01*
X92800Y183400D01*
X27800Y183400D02*
X27800Y71400D01*
D11*
X76835Y108896D02*
X81661Y108896D01*
X76835Y108896D02*
X76835Y110236D01*
X76837Y110307D01*
X76843Y110379D01*
X76852Y110449D01*
X76865Y110519D01*
X76882Y110589D01*
X76903Y110657D01*
X76927Y110724D01*
X76955Y110790D01*
X76986Y110854D01*
X77021Y110917D01*
X77059Y110977D01*
X77100Y111036D01*
X77144Y111092D01*
X77191Y111146D01*
X77240Y111197D01*
X77293Y111245D01*
X77348Y111291D01*
X77405Y111333D01*
X77465Y111373D01*
X77526Y111409D01*
X77590Y111442D01*
X77655Y111471D01*
X77721Y111497D01*
X77789Y111520D01*
X77858Y111539D01*
X77928Y111554D01*
X77998Y111565D01*
X78069Y111573D01*
X78140Y111577D01*
X78212Y111577D01*
X78283Y111573D01*
X78354Y111565D01*
X78424Y111554D01*
X78494Y111539D01*
X78563Y111520D01*
X78631Y111497D01*
X78697Y111471D01*
X78762Y111442D01*
X78826Y111409D01*
X78887Y111373D01*
X78947Y111333D01*
X79004Y111291D01*
X79059Y111245D01*
X79112Y111197D01*
X79161Y111146D01*
X79208Y111092D01*
X79252Y111036D01*
X79293Y110977D01*
X79331Y110917D01*
X79366Y110854D01*
X79397Y110790D01*
X79425Y110724D01*
X79449Y110657D01*
X79470Y110589D01*
X79487Y110519D01*
X79500Y110449D01*
X79509Y110379D01*
X79515Y110307D01*
X79517Y110236D01*
X79516Y110236D02*
X79516Y108896D01*
X80320Y114053D02*
X78176Y114053D01*
X78176Y114052D02*
X78105Y114054D01*
X78033Y114060D01*
X77963Y114069D01*
X77893Y114082D01*
X77823Y114099D01*
X77755Y114120D01*
X77688Y114144D01*
X77622Y114172D01*
X77558Y114203D01*
X77495Y114238D01*
X77435Y114276D01*
X77376Y114317D01*
X77320Y114361D01*
X77266Y114408D01*
X77215Y114457D01*
X77167Y114510D01*
X77121Y114565D01*
X77079Y114622D01*
X77039Y114682D01*
X77003Y114743D01*
X76970Y114807D01*
X76941Y114872D01*
X76915Y114938D01*
X76892Y115006D01*
X76873Y115075D01*
X76858Y115145D01*
X76847Y115215D01*
X76839Y115286D01*
X76835Y115357D01*
X76835Y115429D01*
X76839Y115500D01*
X76847Y115571D01*
X76858Y115641D01*
X76873Y115711D01*
X76892Y115780D01*
X76915Y115848D01*
X76941Y115914D01*
X76970Y115979D01*
X77003Y116043D01*
X77039Y116104D01*
X77079Y116164D01*
X77121Y116221D01*
X77167Y116276D01*
X77215Y116329D01*
X77266Y116378D01*
X77320Y116425D01*
X77376Y116469D01*
X77435Y116510D01*
X77495Y116548D01*
X77558Y116583D01*
X77622Y116614D01*
X77688Y116642D01*
X77755Y116666D01*
X77823Y116687D01*
X77893Y116704D01*
X77963Y116717D01*
X78033Y116726D01*
X78105Y116732D01*
X78176Y116734D01*
X80320Y116734D01*
X80391Y116732D01*
X80463Y116726D01*
X80533Y116717D01*
X80603Y116704D01*
X80673Y116687D01*
X80741Y116666D01*
X80808Y116642D01*
X80874Y116614D01*
X80938Y116583D01*
X81001Y116548D01*
X81061Y116510D01*
X81120Y116469D01*
X81176Y116425D01*
X81230Y116378D01*
X81281Y116329D01*
X81329Y116276D01*
X81375Y116221D01*
X81417Y116164D01*
X81457Y116104D01*
X81493Y116043D01*
X81526Y115979D01*
X81555Y115914D01*
X81581Y115848D01*
X81604Y115780D01*
X81623Y115711D01*
X81638Y115641D01*
X81649Y115571D01*
X81657Y115500D01*
X81661Y115429D01*
X81661Y115357D01*
X81657Y115286D01*
X81649Y115215D01*
X81638Y115145D01*
X81623Y115075D01*
X81604Y115006D01*
X81581Y114938D01*
X81555Y114872D01*
X81526Y114807D01*
X81493Y114743D01*
X81457Y114682D01*
X81417Y114622D01*
X81375Y114565D01*
X81329Y114510D01*
X81281Y114457D01*
X81230Y114408D01*
X81176Y114361D01*
X81120Y114317D01*
X81061Y114276D01*
X81001Y114238D01*
X80938Y114203D01*
X80874Y114172D01*
X80808Y114144D01*
X80741Y114120D01*
X80673Y114099D01*
X80603Y114082D01*
X80533Y114069D01*
X80463Y114060D01*
X80391Y114054D01*
X80320Y114052D01*
X76835Y119466D02*
X81661Y120539D01*
X78444Y121611D01*
X81661Y122683D01*
X76835Y123756D01*
X81661Y126691D02*
X81661Y128836D01*
X81661Y126691D02*
X76835Y126691D01*
X76835Y128836D01*
X78980Y128299D02*
X78980Y126691D01*
X76835Y131490D02*
X81661Y131490D01*
X76835Y131490D02*
X76835Y132830D01*
X76837Y132901D01*
X76843Y132973D01*
X76852Y133043D01*
X76865Y133113D01*
X76882Y133183D01*
X76903Y133251D01*
X76927Y133318D01*
X76955Y133384D01*
X76986Y133448D01*
X77021Y133511D01*
X77059Y133571D01*
X77100Y133630D01*
X77144Y133686D01*
X77191Y133740D01*
X77240Y133791D01*
X77293Y133839D01*
X77348Y133885D01*
X77405Y133927D01*
X77465Y133967D01*
X77526Y134003D01*
X77590Y134036D01*
X77655Y134065D01*
X77721Y134091D01*
X77789Y134114D01*
X77858Y134133D01*
X77928Y134148D01*
X77998Y134159D01*
X78069Y134167D01*
X78140Y134171D01*
X78212Y134171D01*
X78283Y134167D01*
X78354Y134159D01*
X78424Y134148D01*
X78494Y134133D01*
X78563Y134114D01*
X78631Y134091D01*
X78697Y134065D01*
X78762Y134036D01*
X78826Y134003D01*
X78887Y133967D01*
X78947Y133927D01*
X79004Y133885D01*
X79059Y133839D01*
X79112Y133791D01*
X79161Y133740D01*
X79208Y133686D01*
X79252Y133630D01*
X79293Y133571D01*
X79331Y133511D01*
X79366Y133448D01*
X79397Y133384D01*
X79425Y133318D01*
X79449Y133251D01*
X79470Y133183D01*
X79487Y133113D01*
X79500Y133043D01*
X79509Y132973D01*
X79515Y132901D01*
X79517Y132830D01*
X79516Y132830D02*
X79516Y131490D01*
X79516Y133098D02*
X81661Y134171D01*
X81661Y138338D02*
X81659Y138403D01*
X81653Y138467D01*
X81643Y138531D01*
X81630Y138595D01*
X81612Y138657D01*
X81591Y138718D01*
X81567Y138778D01*
X81538Y138836D01*
X81506Y138893D01*
X81471Y138947D01*
X81433Y138999D01*
X81391Y139049D01*
X81347Y139096D01*
X81300Y139140D01*
X81250Y139182D01*
X81198Y139220D01*
X81144Y139255D01*
X81087Y139287D01*
X81029Y139316D01*
X80969Y139340D01*
X80908Y139361D01*
X80846Y139379D01*
X80782Y139392D01*
X80718Y139402D01*
X80654Y139408D01*
X80589Y139410D01*
X81661Y138338D02*
X81659Y138244D01*
X81653Y138150D01*
X81643Y138056D01*
X81630Y137963D01*
X81612Y137871D01*
X81591Y137779D01*
X81566Y137688D01*
X81537Y137598D01*
X81504Y137510D01*
X81468Y137423D01*
X81428Y137338D01*
X81385Y137254D01*
X81338Y137173D01*
X81288Y137093D01*
X81235Y137015D01*
X81178Y136940D01*
X81119Y136867D01*
X81056Y136797D01*
X80991Y136729D01*
X77907Y136864D02*
X77842Y136866D01*
X77778Y136872D01*
X77714Y136882D01*
X77650Y136895D01*
X77588Y136913D01*
X77527Y136934D01*
X77467Y136958D01*
X77409Y136987D01*
X77352Y137019D01*
X77298Y137054D01*
X77246Y137092D01*
X77196Y137134D01*
X77149Y137178D01*
X77105Y137225D01*
X77063Y137275D01*
X77025Y137327D01*
X76990Y137381D01*
X76958Y137438D01*
X76929Y137496D01*
X76905Y137556D01*
X76884Y137617D01*
X76866Y137679D01*
X76853Y137743D01*
X76843Y137807D01*
X76837Y137871D01*
X76835Y137936D01*
X76837Y138022D01*
X76842Y138108D01*
X76852Y138194D01*
X76865Y138279D01*
X76881Y138364D01*
X76901Y138448D01*
X76925Y138531D01*
X76952Y138613D01*
X76983Y138693D01*
X77017Y138773D01*
X77055Y138850D01*
X77096Y138926D01*
X77140Y139000D01*
X77187Y139073D01*
X77237Y139143D01*
X78845Y137400D02*
X78812Y137347D01*
X78775Y137296D01*
X78736Y137247D01*
X78694Y137200D01*
X78649Y137156D01*
X78602Y137115D01*
X78553Y137076D01*
X78501Y137040D01*
X78447Y137007D01*
X78392Y136978D01*
X78335Y136952D01*
X78276Y136929D01*
X78217Y136909D01*
X78156Y136893D01*
X78095Y136880D01*
X78032Y136871D01*
X77970Y136866D01*
X77907Y136864D01*
X79651Y138874D02*
X79684Y138927D01*
X79721Y138978D01*
X79760Y139027D01*
X79802Y139074D01*
X79847Y139118D01*
X79894Y139159D01*
X79943Y139198D01*
X79995Y139234D01*
X80049Y139267D01*
X80104Y139296D01*
X80161Y139322D01*
X80220Y139345D01*
X80279Y139365D01*
X80340Y139381D01*
X80401Y139394D01*
X80464Y139403D01*
X80526Y139408D01*
X80589Y139410D01*
X79650Y138874D02*
X78846Y137400D01*
X76835Y141960D02*
X81661Y143033D01*
X78444Y144105D01*
X81661Y145177D01*
X76835Y146250D01*
X76835Y149226D02*
X81661Y149226D01*
X81661Y149762D02*
X81661Y148689D01*
X76835Y148689D02*
X76835Y149762D01*
X76835Y153249D02*
X81661Y153249D01*
X76835Y151908D02*
X76835Y154590D01*
X81661Y158073D02*
X81661Y159145D01*
X81661Y158073D02*
X81659Y158008D01*
X81653Y157944D01*
X81643Y157880D01*
X81630Y157816D01*
X81612Y157754D01*
X81591Y157693D01*
X81567Y157633D01*
X81538Y157575D01*
X81506Y157518D01*
X81471Y157464D01*
X81433Y157412D01*
X81391Y157362D01*
X81347Y157315D01*
X81300Y157271D01*
X81250Y157229D01*
X81198Y157191D01*
X81144Y157156D01*
X81087Y157124D01*
X81029Y157095D01*
X80969Y157071D01*
X80908Y157050D01*
X80846Y157032D01*
X80782Y157019D01*
X80718Y157009D01*
X80654Y157003D01*
X80589Y157001D01*
X80589Y157000D02*
X77907Y157000D01*
X77842Y157002D01*
X77778Y157008D01*
X77714Y157018D01*
X77650Y157031D01*
X77588Y157049D01*
X77527Y157070D01*
X77467Y157095D01*
X77408Y157123D01*
X77352Y157155D01*
X77297Y157190D01*
X77245Y157228D01*
X77195Y157270D01*
X77148Y157314D01*
X77104Y157361D01*
X77062Y157411D01*
X77024Y157463D01*
X76989Y157518D01*
X76957Y157574D01*
X76929Y157633D01*
X76904Y157692D01*
X76883Y157754D01*
X76865Y157816D01*
X76852Y157880D01*
X76842Y157944D01*
X76836Y158008D01*
X76834Y158073D01*
X76835Y158073D02*
X76835Y159145D01*
X76835Y161784D02*
X81661Y161784D01*
X78980Y161784D02*
X78980Y164465D01*
X76835Y164465D02*
X81661Y164465D01*
D12*
X92800Y338100D02*
X92800Y450100D01*
X92800Y338100D02*
X27800Y338100D01*
X17800Y338100D01*
X17800Y450100D01*
X27800Y450100D01*
X92800Y450100D01*
X27800Y450100D02*
X27800Y338100D01*
D11*
X81661Y398574D02*
X81659Y398639D01*
X81653Y398703D01*
X81643Y398767D01*
X81630Y398831D01*
X81612Y398893D01*
X81591Y398954D01*
X81567Y399014D01*
X81538Y399072D01*
X81506Y399129D01*
X81471Y399183D01*
X81433Y399235D01*
X81391Y399285D01*
X81347Y399332D01*
X81300Y399376D01*
X81250Y399418D01*
X81198Y399456D01*
X81144Y399491D01*
X81087Y399523D01*
X81029Y399552D01*
X80969Y399576D01*
X80908Y399597D01*
X80846Y399615D01*
X80782Y399628D01*
X80718Y399638D01*
X80654Y399644D01*
X80589Y399646D01*
X81661Y398574D02*
X81659Y398480D01*
X81653Y398386D01*
X81643Y398292D01*
X81630Y398199D01*
X81612Y398107D01*
X81591Y398015D01*
X81566Y397924D01*
X81537Y397834D01*
X81504Y397746D01*
X81468Y397659D01*
X81428Y397574D01*
X81385Y397490D01*
X81338Y397409D01*
X81288Y397329D01*
X81235Y397251D01*
X81178Y397176D01*
X81119Y397103D01*
X81056Y397033D01*
X80991Y396965D01*
X77907Y397100D02*
X77842Y397102D01*
X77778Y397108D01*
X77714Y397118D01*
X77650Y397131D01*
X77588Y397149D01*
X77527Y397170D01*
X77467Y397194D01*
X77409Y397223D01*
X77352Y397255D01*
X77298Y397290D01*
X77246Y397328D01*
X77196Y397370D01*
X77149Y397414D01*
X77105Y397461D01*
X77063Y397511D01*
X77025Y397563D01*
X76990Y397617D01*
X76958Y397674D01*
X76929Y397732D01*
X76905Y397792D01*
X76884Y397853D01*
X76866Y397915D01*
X76853Y397979D01*
X76843Y398043D01*
X76837Y398107D01*
X76835Y398172D01*
X76837Y398258D01*
X76842Y398344D01*
X76852Y398430D01*
X76865Y398515D01*
X76881Y398600D01*
X76901Y398684D01*
X76925Y398767D01*
X76952Y398849D01*
X76983Y398929D01*
X77017Y399009D01*
X77055Y399086D01*
X77096Y399162D01*
X77140Y399236D01*
X77187Y399309D01*
X77237Y399379D01*
X78845Y397635D02*
X78812Y397582D01*
X78775Y397531D01*
X78736Y397482D01*
X78694Y397435D01*
X78649Y397391D01*
X78602Y397350D01*
X78553Y397311D01*
X78501Y397275D01*
X78447Y397242D01*
X78392Y397213D01*
X78335Y397187D01*
X78276Y397164D01*
X78217Y397144D01*
X78156Y397128D01*
X78095Y397115D01*
X78032Y397106D01*
X77970Y397101D01*
X77907Y397099D01*
X79651Y399110D02*
X79684Y399163D01*
X79721Y399214D01*
X79760Y399263D01*
X79802Y399310D01*
X79847Y399354D01*
X79894Y399395D01*
X79943Y399434D01*
X79995Y399470D01*
X80049Y399503D01*
X80104Y399532D01*
X80161Y399558D01*
X80220Y399581D01*
X80279Y399601D01*
X80340Y399617D01*
X80401Y399630D01*
X80464Y399639D01*
X80526Y399644D01*
X80589Y399646D01*
X79650Y399110D02*
X78846Y397635D01*
X76835Y402598D02*
X81661Y402598D01*
X76835Y402598D02*
X76835Y403938D01*
X76837Y404009D01*
X76843Y404081D01*
X76852Y404151D01*
X76865Y404221D01*
X76882Y404291D01*
X76903Y404359D01*
X76927Y404426D01*
X76955Y404492D01*
X76986Y404556D01*
X77021Y404619D01*
X77059Y404679D01*
X77100Y404738D01*
X77144Y404794D01*
X77191Y404848D01*
X77240Y404899D01*
X77293Y404947D01*
X77348Y404993D01*
X77405Y405035D01*
X77465Y405075D01*
X77526Y405111D01*
X77590Y405144D01*
X77655Y405173D01*
X77721Y405199D01*
X77789Y405222D01*
X77858Y405241D01*
X77928Y405256D01*
X77998Y405267D01*
X78069Y405275D01*
X78140Y405279D01*
X78212Y405279D01*
X78283Y405275D01*
X78354Y405267D01*
X78424Y405256D01*
X78494Y405241D01*
X78563Y405222D01*
X78631Y405199D01*
X78697Y405173D01*
X78762Y405144D01*
X78826Y405111D01*
X78887Y405075D01*
X78947Y405035D01*
X79004Y404993D01*
X79059Y404947D01*
X79112Y404899D01*
X79161Y404848D01*
X79208Y404794D01*
X79252Y404738D01*
X79293Y404679D01*
X79331Y404619D01*
X79366Y404556D01*
X79397Y404492D01*
X79425Y404426D01*
X79449Y404359D01*
X79470Y404291D01*
X79487Y404221D01*
X79500Y404151D01*
X79509Y404081D01*
X79515Y404009D01*
X79517Y403938D01*
X79516Y403938D02*
X79516Y402598D01*
X81661Y407957D02*
X81661Y410102D01*
X81661Y407957D02*
X76835Y407957D01*
X76835Y410102D01*
X78980Y409566D02*
X78980Y407957D01*
X81661Y412242D02*
X76835Y413850D01*
X81661Y415459D01*
X80455Y415057D02*
X80455Y412644D01*
X81661Y418326D02*
X76835Y418326D01*
X76835Y421007D02*
X79784Y418326D01*
X78712Y419398D02*
X81661Y421007D01*
X81661Y423685D02*
X81661Y425830D01*
X81661Y423685D02*
X76835Y423685D01*
X76835Y425830D01*
X78980Y425294D02*
X78980Y423685D01*
X76835Y428484D02*
X81661Y428484D01*
X76835Y428484D02*
X76835Y429824D01*
X76837Y429895D01*
X76843Y429967D01*
X76852Y430037D01*
X76865Y430107D01*
X76882Y430177D01*
X76903Y430245D01*
X76927Y430312D01*
X76955Y430378D01*
X76986Y430442D01*
X77021Y430505D01*
X77059Y430565D01*
X77100Y430624D01*
X77144Y430680D01*
X77191Y430734D01*
X77240Y430785D01*
X77293Y430833D01*
X77348Y430879D01*
X77405Y430921D01*
X77465Y430961D01*
X77526Y430997D01*
X77590Y431030D01*
X77655Y431059D01*
X77721Y431085D01*
X77789Y431108D01*
X77858Y431127D01*
X77928Y431142D01*
X77998Y431153D01*
X78069Y431161D01*
X78140Y431165D01*
X78212Y431165D01*
X78283Y431161D01*
X78354Y431153D01*
X78424Y431142D01*
X78494Y431127D01*
X78563Y431108D01*
X78631Y431085D01*
X78697Y431059D01*
X78762Y431030D01*
X78826Y430997D01*
X78887Y430961D01*
X78947Y430921D01*
X79004Y430879D01*
X79059Y430833D01*
X79112Y430785D01*
X79161Y430734D01*
X79208Y430680D01*
X79252Y430624D01*
X79293Y430565D01*
X79331Y430505D01*
X79366Y430442D01*
X79397Y430378D01*
X79425Y430312D01*
X79449Y430245D01*
X79470Y430177D01*
X79487Y430107D01*
X79500Y430037D01*
X79509Y429967D01*
X79515Y429895D01*
X79517Y429824D01*
X79516Y429824D02*
X79516Y428484D01*
X79516Y430093D02*
X81661Y431165D01*
M02*
