G04 EAGLE Gerber RS-274X export*
G75*
%MOMM*%
%FSLAX34Y34*%
%LPD*%
%INSoldermask Top*%
%IPPOS*%
%AMOC8*
5,1,8,0,0,1.08239X$1,22.5*%
G01*
%ADD10C,2.082800*%
%ADD11P,1.869504X8X112.500000*%
%ADD12R,2.235200X2.235200*%
%ADD13C,2.235200*%


D10*
X330200Y508000D03*
X304800Y508000D03*
X279400Y508000D03*
X254000Y508000D03*
X228600Y508000D03*
X203200Y508000D03*
X152400Y508000D03*
X127000Y508000D03*
X101600Y508000D03*
X76200Y508000D03*
X50800Y508000D03*
X25400Y508000D03*
X25400Y25400D03*
X50800Y25400D03*
X76200Y25400D03*
X101600Y25400D03*
X127000Y25400D03*
X152400Y25400D03*
X177800Y25400D03*
X203200Y25400D03*
X241300Y25400D03*
X266700Y25400D03*
X292100Y25400D03*
X317500Y25400D03*
X342900Y25400D03*
X368300Y25400D03*
X393700Y25400D03*
X419100Y25400D03*
X444500Y25400D03*
X469900Y25400D03*
X355600Y508000D03*
X381000Y508000D03*
X279400Y331470D03*
X254000Y328930D03*
X228600Y331470D03*
X203200Y328930D03*
X177800Y331470D03*
X152400Y328930D03*
X152400Y227330D03*
X177800Y229870D03*
X203200Y227330D03*
X228600Y229870D03*
X254000Y227330D03*
X279400Y229870D03*
D11*
X393700Y215900D03*
X368300Y215900D03*
X393700Y241300D03*
X368300Y241300D03*
X393700Y266700D03*
X368300Y266700D03*
X393700Y292100D03*
X368300Y292100D03*
X393700Y317500D03*
X368300Y317500D03*
X393700Y342900D03*
X368300Y342900D03*
D12*
X50800Y152400D03*
D13*
X50800Y102400D03*
D12*
X50800Y419100D03*
D13*
X50800Y369100D03*
M02*
